<?xml version="1.0" encoding="UTF-8"?><svg id="Layer_2" xmlns="http://www.w3.org/2000/svg" viewBox="0 0 85.83 87.51"><defs><style>.cls-1{fill:#fdb714;}</style></defs><g id="Layer_1-2"><path class="cls-1" d="m83.4,65.41c-3.31,2.12,11.99-7.66-32.36,20.69-2.37,1.47-5.25,1.83-7.94.88-12.05-3.98-14.74-6.06-20.16-5.83l-1.49.05v-27.17c5.87-1.19,13.13-1.12,16.82,3.57.37.46.98.73,1.69.73h14.57c2.49,0,4.51,2.22,4.51,4.94s-2.02,4.92-4.51,4.92h-13.89c-.71.01-1.22.19-1.51.53-.42.49-.38,1.33-.28,1.93.08.5.52.87,1.05.87h14.76c.89,0,1.74-.26,2.48-.73l22.08-14.12c2.27-1.3,5.05-.24,6.14,2.14,1.09,2.41.22,5.36-1.96,6.6"/><rect class="cls-1" x="6.71" y="73.7" width="4.95" height="4.92"/><path class="cls-1" d="m13.03,79.29c0,.37-.3.68-.68.68h-6.32c-.38,0-.68-.3-.68-.68v-6.27c0-.37.3-.68.68-.68h6.32c.38,0,.68.3.68.68v6.27Zm6.38-28.94H.68c-.38,0-.68.31-.68.68v32.69c0,.38.3.68.68.68h18.73c.38,0,.68-.3.68-.68v-32.69c0-.37-.3-.68-.68-.68"/><path class="cls-1" d="m85.24,27.79c0,6.21-2,12.09-5.8,17.01-.12.16-.3.26-.5.27h-.04c-.18,0-.35-.08-.48-.2l-7.48-7.42c-.22-.22-.26-.57-.08-.84,1.7-2.64,2.61-5.68,2.61-8.82,0-7.76-5.57-14.5-13.24-16-.33-.07-.56-.34-.56-.66V.67c0-.19.08-.37.23-.5.15-.12.34-.19.53-.16,14.14,1.66,24.8,13.6,24.8,27.78"/><path class="cls-1" d="m74.57,48.44c.14.13.2.32.2.51-.01.19-.11.37-.26.49-5.05,4.03-11.16,6.17-17.65,6.17-13.88,0-25.56-9.86-27.8-23.44-.04-.19.03-.39.15-.54.13-.16.31-.24.52-.24h10.64c.31,0,.59.2.65.5,1.95,7.07,8.46,12.02,15.84,12.02,3.39,0,6.63-1.01,9.38-2.95.27-.18.64-.15.87.08l7.45,7.4Z"/><path class="cls-1" d="m54.18.17c.15.13.23.31.23.5v10.45c0,.32-.23.59-.54.66-6.96,1.37-12.22,6.98-13.09,13.96-.04.34-.34.59-.68.59h-10.46c-.19,0-.38-.08-.5-.22-.12-.15-.19-.32-.18-.51C29.98,12.34,40.37,1.58,53.65,0c.2-.03.39.04.53.16"/><path class="cls-1" d="m57.96,34.57v-5.14c1.67.52,3.01,1,3.01,2.68,0,1.57-1.44,2.28-3.01,2.46m-1.85-9.14c-1.66-.53-2.75-1.05-2.75-2.61,0-1.43,1.31-2.21,2.75-2.35v4.96Zm1.96.5h-.11v-5.38c1.48.22,2.86.77,4.14,1.68l1.87-2.63c-1.91-1.28-3.9-1.99-6.01-2.16v-1.45h-1.85v1.43c-3.52.16-6.26,2.24-6.26,5.75s2.42,4.84,6.26,5.76v5.57c-1.7-.26-3.35-1.12-4.97-2.49l-2.11,2.49c2.08,1.8,4.47,2.83,7.08,3.1v2.1h1.85v-2.06c3.71-.18,6.52-2.25,6.52-5.8,0-3.78-2.72-5.02-6.42-5.91"/></g></svg>