<?xml version="1.0" encoding="UTF-8"?><svg id="Layer_2" xmlns="http://www.w3.org/2000/svg" viewBox="0 0 89.42 90.31"><defs><style>.cls-1{fill:#00954c;}</style></defs><g id="Layer_1-2"><path class="cls-1" d="m4.25,48.92h54.85c1.1,0,2.01-.93,2.01-2.03s-.9-2.03-2.01-2.03H4.25c-.09,0-.18-.08-.18-.18V6.19c0-.09.08-.17.18-.17h54.85c1.1,0,2.01-.92,2.01-2.03s-.9-2.03-2.01-2.03h-19.39c0-1.05-.9-1.95-2.01-1.95h-9.37c-1.11,0-2.01.9-2.01,1.95H4.25C1.93,1.95,0,3.87,0,6.19v38.49c0,2.33,1.93,4.24,4.24,4.24"/><path class="cls-1" d="m69.06,4.72c.61-3.16,3.66-5.23,6.82-4.62,3.16.61,5.23,3.66,4.62,6.82-.61,3.16-3.66,5.23-6.82,4.62-3.16-.61-5.23-3.66-4.62-6.82"/><path class="cls-1" d="m70.5,58.13c1.69,0,3.1-1.39,3.1-3.08v-17.32c0-.36.29-.64.67-.61.32.03.54.32.54.63v17.28c0,1.69,1.39,3.08,3.08,3.08s3.08-1.39,3.08-3.08v-24.62l1.58,4.38c.58,1.59,2.3,2.38,3.9,1.79,1.59-.45,2.42-2.28,1.84-3.87l-6.59-18.01c-.47-1.29-1.69-2.12-3.06-2.12h-1.41s-2.44,2.46-2.44,2.46l-2.45-2.45h-3.17c-1.16,0-2.31.1-3.45.3l-14.57,2.54c-1.67.29-2.78,2.03-2.48,3.53.29,1.95,1.89,2.8,3.56,2.51l15.23-2.67v36.23c-.01,1.7,1.37,3.08,3.06,3.09"/><path class="cls-1" d="m40.03,40.79c.16.02.32.05.47.05,1.32,0,2.44-.94,2.67-2.24.03-.19.04-.4.03-.6l4.38-3.07c.18.08.37.14.57.17.16.02.31.05.47.05,1.32,0,2.44-.94,2.66-2.24.26-1.47-.72-2.88-2.2-3.14-.16-.02-.32-.05-.48-.05-1.32,0-2.44.94-2.66,2.24-.06.29-.06.59-.01.88l-4.14,2.9c-.26-.15-.54-.24-.84-.29-.34-.06-.7-.06-1.03.01l-6.74-9.63c.05-.14.09-.28.11-.42.26-1.47-.72-2.88-2.2-3.14-.16-.02-.32-.05-.47-.05-1.32,0-2.44.94-2.66,2.24-.05.23-.05.46-.03.69l-4.82,3.37c-.28-.17-.6-.28-.93-.35-.28-.05-.57-.06-.87-.01l-9.29-13.27c.1-.21.18-.45.21-.69.26-1.47-.72-2.88-2.2-3.14-.16-.02-.32-.05-.47-.05-1.32,0-2.44.94-2.67,2.24-.26,1.47.72,2.88,2.2,3.14.25.05.51.06.76.02l9.38,13.39c-.08.19-.14.38-.17.59-.26,1.47.72,2.88,2.2,3.14.16.02.32.05.48.05,1.32,0,2.44-.94,2.66-2.24.02-.16.05-.32.03-.47l4.99-3.5c.24.11.48.2.75.25.34.06.69.06,1.03-.01l6.75,9.63c-.05.14-.08.27-.11.42-.26,1.47.72,2.87,2.19,3.13"/><path class="cls-1" d="m60.79,73.01h-9.46c-3.28,0-5.88,2.64-5.88,5.92v5.99c0,1.38.98,2.58,2.36,2.71.59.06,1.11-.08,1.56-.35v3.04h13.4v-3.03c.45.27.97.41,1.56.35,1.38-.14,2.36-1.33,2.36-2.71v-5.99c0-3.28-2.62-5.93-5.89-5.93"/><path class="cls-1" d="m54.7,60.36c3.03-.76,6.1,1.09,6.86,4.11.76,3.03-1.09,6.1-4.11,6.86-3.03.76-6.1-1.09-6.86-4.11-.76-3.03,1.09-6.1,4.11-6.86"/><path class="cls-1" d="m83.53,73.01h-9.46c-3.28,0-5.88,2.64-5.88,5.92v5.99c0,1.38.98,2.58,2.36,2.71.59.06,1.11-.08,1.56-.35v3.04h13.4v-3.03c.45.27.97.41,1.56.35,1.38-.14,2.36-1.33,2.36-2.71v-5.99c-.01-3.28-2.62-5.93-5.89-5.93"/><path class="cls-1" d="m73.15,65.63c.12-3.12,2.75-5.56,5.87-5.43,3.12.12,5.55,2.75,5.43,5.87-.12,3.12-2.75,5.55-5.87,5.43-3.12-.12-5.56-2.75-5.43-5.87"/><path class="cls-1" d="m38.07,73.01h-9.46c-3.28,0-5.88,2.64-5.88,5.92v5.99c0,1.38.98,2.58,2.36,2.71.59.06,1.11-.08,1.56-.35v3.04h13.4v-3.03c.45.27.97.41,1.56.35,1.38-.14,2.36-1.33,2.36-2.71v-5.99c-.01-3.28-2.62-5.93-5.89-5.93"/><path class="cls-1" d="m33.34,60.19c3.12,0,5.66,2.53,5.66,5.66s-2.53,5.65-5.66,5.65-5.66-2.53-5.66-5.65,2.53-5.66,5.66-5.66"/><path class="cls-1" d="m15.34,73.01H5.88c-3.28,0-5.88,2.64-5.88,5.92v5.99c0,1.38.98,2.58,2.36,2.71.59.06,1.11-.08,1.56-.35v3.04h13.4v-3.03c.45.27.97.41,1.56.35,1.38-.14,2.36-1.33,2.36-2.71v-5.99c-.01-3.28-2.62-5.93-5.89-5.93"/><path class="cls-1" d="m10.42,60.19c3.12-.1,5.74,2.34,5.84,5.47.1,3.12-2.34,5.74-5.46,5.84-3.12.1-5.74-2.34-5.84-5.46-.1-3.12,2.34-5.74,5.47-5.84"/></g></svg>