<?xml version="1.0" encoding="UTF-8"?><svg id="Layer_2" xmlns="http://www.w3.org/2000/svg" viewBox="0 0 94.54 85.89"><defs><style>.cls-1{fill:#f15623;}</style></defs><g id="Layer_1-2"><path class="cls-1" d="m18.55,42.02c1.34-4.06,3.53-7.74,6.41-10.8-.68-1.27-1.25-2.6-1.69-3.99-4.35,4.16-7.53,9.5-9.09,15.47,1.42-.36,2.88-.59,4.38-.68h0Z"/><path class="cls-1" d="m54.1,78.81c-2.5.69-5.12,1.09-7.84,1.09-2.09,0-4.13-.23-6.1-.65-.82,1.22-1.77,2.36-2.8,3.4,2.84.79,5.81,1.24,8.89,1.24,3.66,0,7.18-.61,10.48-1.71-.98-1.05-1.86-2.17-2.64-3.38h0Z"/><path class="cls-1" d="m69.26,27.26c-.44,1.38-1.01,2.71-1.69,3.97,2.86,3.05,5.08,6.69,6.41,10.74.15,0,.29-.02.45-.02,1.31,0,2.58.13,3.83.33-1.6-5.8-4.76-10.95-8.99-15.01"/><path class="cls-1" d="m53.16,34.39l-.15-.11c-2.37-1.69-2.64-5.08-.58-7.12l1.9-1.89c.56-.55.87-1.31.87-2.11v-2.4c0-3.17,1.9-6.08,4.83-7.37l.73-.32c1.01,2.09,1.59,4.42,1.59,6.89,0,6.37-3.76,11.85-9.19,14.42h0Zm-21.12-6.95l3.99-1.99c1.43-.71,3.17-.44,4.31.69.58.58.96,1.31,1.07,2.11l1.05,7.23c-4.52-1.09-8.29-4.06-10.42-8.04h0ZM46.26,3.99c.22,0,.44.03.66.03l.93,4.14c.4,1.82-.16,3.73-1.5,5.06l-4.2,4.17c-.22.22-.54.36-.85.36h-2.82c-2.24,0-4.47.44-6.53,1.33l-1.78.76c.07-8.76,7.24-15.85,16.09-15.85h0Zm0-3.99c-11.11,0-20.11,8.94-20.11,19.97s9.01,19.97,20.11,19.97,20.11-8.94,20.11-19.97S57.37,0,46.26,0"/><path class="cls-1" d="m79.11,70.91h-2.68v5.99c0,1.1-.9,2-2.01,2s-2.01-.9-2.01-2v-5.99h-2.68c-3.7,0-6.7-2.99-6.7-6.66,0-3.06,2.09-5.65,4.93-6.42.78-2.82,3.38-4.9,6.47-4.9s5.69,2.08,6.47,4.9c2.84.77,4.93,3.36,4.93,6.42,0,3.67-3.01,6.66-6.7,6.66h0Zm-4.69-24.97c-11.11,0-20.11,8.94-20.11,19.97s9.01,19.97,20.11,19.97,20.11-8.94,20.11-19.97-9.01-19.97-20.11-19.97"/><path class="cls-1" d="m12.07,60.92c0-4.41,3.6-7.99,8.04-7.99s8.04,3.57,8.04,7.99c0,2.81-1.47,5.26-3.67,6.69,3.86,1.25,6.96,4.13,8.54,7.8-2.93,3.92-7.62,6.47-12.91,6.47s-9.98-2.55-12.91-6.47c1.58-3.68,4.68-6.55,8.54-7.8-2.21-1.42-3.67-3.88-3.67-6.69m8.04-14.98c-11.11,0-20.11,8.94-20.11,19.97s9.01,19.97,20.11,19.97,20.11-8.94,20.11-19.97-9.01-19.97-20.11-19.97"/></g></svg>