<?xml version="1.0" encoding="UTF-8"?><svg id="Layer_2" xmlns="http://www.w3.org/2000/svg" viewBox="0 0 89.04 69.1"><defs><style>.cls-1{fill:#fdb714;}</style></defs><g id="Layer_1-2"><path class="cls-1" d="m15.65,18.98c5.15,0,9.37-4.27,9.37-9.49S20.81,0,15.65,0,6.28,4.27,6.28,9.49s4.22,9.49,9.37,9.49"/><path class="cls-1" d="m23.9,39.49c0-5.03,1.87-9.68,4.87-13.19-1.31-1.99-3.09-3.7-5.15-4.84-2.25,1.61-5.06,2.47-8.06,2.47s-5.72-.95-8.06-2.47c-4.41,2.66-7.5,7.59-7.5,13.2v1.99c0,2.09,1.69,3.8,3.75,3.8h20.15v-.95Z"/><path class="cls-1" d="m73.39,18.98c5.15,0,9.37-4.27,9.37-9.49S78.54,0,73.39,0s-9.37,4.27-9.37,9.49,4.22,9.49,9.37,9.49"/><path class="cls-1" d="m81.45,21.55c-2.25,1.61-5.06,2.47-8.06,2.47s-5.72-.95-8.06-2.47c-2.06,1.14-3.84,2.85-5.15,4.84,3.09,3.42,4.97,8.07,4.97,13.1v.95h20.15c2.06,0,3.75-1.71,3.75-3.8v-1.99c0-5.6-3.09-10.54-7.59-13.1"/><path class="cls-1" d="m44.52,23.92c5.15,0,9.37-4.27,9.37-9.49s-4.22-9.49-9.37-9.49-9.37,4.27-9.37,9.49,4.22,9.49,9.37,9.49"/><path class="cls-1" d="m60.17,39.49c0-5.6-3.09-10.54-7.59-13.1-2.34,1.61-5.06,2.47-8.06,2.47s-5.72-.95-8.06-2.47c-4.5,2.56-7.59,7.5-7.59,13.1v1.99c0,2.09,1.69,3.8,3.75,3.8h23.71c2.06,0,3.75-1.71,3.75-3.8v-1.99h.09Z"/><path class="cls-1" d="m27.09,51.07c-.94-.66-2.06-.95-3.19-.95-1.59,0-3.19.66-4.41,1.9l-.66.57-.75-.76c-1.13-1.14-2.63-1.8-4.22-1.8-1.97,0-3.84,1.04-4.97,2.75-1.5,2.37-1.22,5.6.84,7.69l8.15,8.26c.28.29.56.38.94.38s.75-.19.94-.38l8.25-8.35c1.31-1.33,1.87-3.04,1.69-4.84-.09-1.8-1.12-3.51-2.62-4.46"/><path class="cls-1" d="m52.74,51.07c-.94-.66-2.06-.95-3.18-.95-1.59,0-3.18.66-4.4,1.9l-.66.57-.75-.76c-1.12-1.14-2.62-1.8-4.21-1.8-1.97,0-3.84,1.04-4.96,2.75-1.5,2.37-1.22,5.6.84,7.69l8.14,8.26c.28.29.56.38.94.38s.75-.19.94-.38l8.23-8.35c1.31-1.33,1.87-3.04,1.68-4.84-.19-1.8-1.12-3.51-2.62-4.46"/><path class="cls-1" d="m78.35,51.07c-.94-.66-2.06-.95-3.19-.95-1.59,0-3.19.66-4.41,1.9l-.56.57-.75-.76c-1.13-1.14-2.63-1.8-4.22-1.8-1.97,0-3.84,1.04-4.97,2.75-1.5,2.37-1.22,5.6.84,7.69l8.15,8.26c.28.29.56.38.94.38s.75-.19.94-.38l8.25-8.35c1.31-1.33,1.87-3.04,1.69-4.84-.19-1.8-1.13-3.51-2.72-4.46"/></g></svg>