<?xml version="1.0" encoding="UTF-8"?><svg id="Layer_2" xmlns="http://www.w3.org/2000/svg" viewBox="0 0 95.97 95.37"><defs><style>.cls-1{fill:#005da6;}</style></defs><g id="Layer_1-2"><path class="cls-1" d="m85.81,58.22c4.74-17.59-3.26-36.13-19.3-44.76-.58-.31-.79-1.03-.48-1.6.31-.58,1.03-.79,1.6-.48,17.01,9.14,25.49,28.8,20.46,47.45-.13.52-.6.88-1.13.88-.11,0-.21-.02-.32-.04-.63-.18-1-.82-.83-1.45M8.86,47.99c-.02,6.26,1.48,12.43,4.36,17.99.3.58.08,1.29-.5,1.59h0c-.17.09-.35.14-.55.14-.44,0-.85-.25-1.05-.64C.72,46.9,8.41,22.11,28.4,11.38c.57-.31,1.29-.09,1.6.48.31.58.09,1.29-.48,1.6-12.72,6.82-20.66,20.09-20.66,34.52m53.4,37.77c.21.62-.11,1.29-.73,1.5h0c-4.35,1.5-8.92,2.26-13.52,2.25-.89,0-1.79-.03-2.68-.09-.65-.08-1.11-.67-1.03-1.32.07-.6.58-1.04,1.18-1.04.84.05,1.68.08,2.53.08,4.34,0,8.65-.71,12.76-2.13.61-.21,1.29.11,1.5.73h0s0,0,0,0Zm-24.35,5.74v-17.35c0-.15-.12-.26-.26-.26H13.59c-.14,0-.26.12-.26.26v17.35h9.79c.65-2.63,3.31-4.23,5.94-3.58,1.76.44,3.14,1.82,3.58,3.58h5.28Zm-10.04,3.73c-1.4,0-2.54-1.14-2.54-2.54,0-1.4,1.14-2.54,2.54-2.54s2.54,1.14,2.54,2.54-1.14,2.54-2.54,2.54m-16.91-3.73v-14.15h-1.7v4.73c0,1.45-1.18,2.63-2.62,2.63H0v6.79h.77c.65-2.63,3.31-4.23,5.94-3.58,1.76.44,3.14,1.82,3.58,3.58h.67Zm-5.43,3.73c-1.4,0-2.54-1.14-2.54-2.54s1.14-2.54,2.54-2.54,2.54,1.14,2.54,2.54c0,1.4-1.14,2.54-2.54,2.54m-1-17.88h2.36v4.73c0,.15-.12.26-.26.26H.05l4.49-4.99Zm78.95,18.03l12.49-7.21v-14.41l-12.49,7.21v14.41Zm-14.85-21.62v14.41l12.48,7.21v-14.41l-12.48-7.21Zm13.66-9.26l12.49,7.21-12.49,7.21-12.48-7.21,12.48-7.21ZM59.59,11.6C59.6,5.2,54.42,0,48.03,0c-6.4,0-11.59,5.17-11.6,11.57,0,2.05.54,4.07,1.58,5.85.64-2.49,2.19-4.66,4.35-6.06-1.33-3.13.13-6.74,3.26-8.06,3.13-1.33,6.73.13,8.06,3.26.65,1.54.65,3.27,0,4.81,2.16,1.4,3.71,3.56,4.35,6.06,1.03-1.77,1.57-3.77,1.57-5.82m-11.58,1.15c-2.09,0-3.78-1.7-3.78-3.79,0-2.09,1.7-3.78,3.78-3.78,2.09,0,3.78,1.69,3.78,3.78,0,2.09-1.69,3.78-3.78,3.78h0Zm-7.97,7.24c0-2.7,1.37-5.21,3.64-6.67,2.39,2.39,6.26,2.39,8.66,0,2.27,1.46,3.64,3.97,3.64,6.67-4.46,4.26-11.48,4.26-15.95,0m7.97,37.28c-3.81,0-6.89-3.09-6.89-6.9,0-3.81,3.09-6.89,6.89-6.89s6.89,3.09,6.89,6.89c0,3.81-3.09,6.89-6.89,6.9m0-16.16c5.12,0,9.26,4.15,9.26,9.26,0,5.12-4.14,9.26-9.26,9.27-5.11,0-9.26-4.15-9.26-9.26h0c0-5.12,4.15-9.26,9.26-9.26m14.79,16.21c.22-.46.41-.93.58-1.41l3.83-.59c.98-.15,1.7-.99,1.7-1.98v-5.94c0-.99-.72-1.84-1.7-1.98l-3.83-.59c-.17-.48-.37-.95-.58-1.41l2.29-3.12c.59-.8.5-1.9-.2-2.6l-4.21-4.2c-.7-.71-1.81-.79-2.6-.2l-3.12,2.29c-.46-.22-.93-.41-1.41-.58l-.59-3.83c-.15-.98-.99-1.71-1.98-1.7h-5.94c-.99,0-1.83.72-1.98,1.7l-.59,3.83c-.48.17-.95.37-1.41.58l-3.12-2.29c-.8-.59-1.91-.51-2.6.2l-4.2,4.2c-.7.7-.79,1.81-.2,2.6l2.29,3.12c-.22.46-.41.93-.58,1.41l-3.83.59c-.98.15-1.7.99-1.7,1.98v5.94c0,.99.72,1.84,1.7,1.98l3.82.59c.17.48.37.95.58,1.41l-2.29,3.12c-.59.8-.5,1.9.2,2.6l4.2,4.21c.7.7,1.81.79,2.6.2l3.12-2.29c.46.22.93.41,1.41.58l.59,3.83c.15.98.99,1.7,1.98,1.7h5.94c.99,0,1.84-.72,1.98-1.7l.59-3.83c.48-.17.95-.37,1.41-.58l3.12,2.29c.79.59,1.9.51,2.6-.2l4.21-4.21c.7-.7.79-1.81.2-2.6l-2.29-3.12Z"/></g></svg>