<?xml version="1.0" encoding="UTF-8"?><svg id="Layer_2" xmlns="http://www.w3.org/2000/svg" viewBox="0 0 89.48 87.4"><defs><style>.cls-1{fill:#005da6;}</style></defs><g id="Layer_1-2"><path class="cls-1" d="m87.17,50.59c0-1.7-1.37-3.07-3.06-3.07-.43,0-.85.09-1.22.26l-4.85-4.87c-.21-.2-.49-.33-.79-.33h-5.48v2.22h5.02l4.53,4.54c-.17.38-.26.79-.26,1.24,0,1.69,1.37,3.07,3.06,3.07s3.06-1.38,3.06-3.07Zm-17.62,28.88c1.19-1.2,1.19-3.14,0-4.34-.31-.31-.67-.54-1.05-.69v-6.88c0-.3-.12-.58-.33-.79l-3.87-3.89-1.57,1.57,3.55,3.56v6.42c-.39.15-.75.38-1.06.69-1.2,1.2-1.2,3.14,0,4.33,1.19,1.2,3.13,1.2,4.33,0h0Zm-32.83,7.93c1.69,0,3.06-1.37,3.06-3.06,0-.44-.09-.86-.26-1.24l4.85-4.86c.2-.21.33-.49.33-.79v-5.49h-2.22v5.03l-4.53,4.54c-.38-.17-.79-.26-1.23-.26-1.69,0-3.06,1.37-3.06,3.07s1.37,3.06,3.06,3.06Zm-28.81-17.67c1.19,1.2,3.13,1.2,4.33,0,.31-.31.54-.67.69-1.06h6.87c.29,0,.58-.12.79-.33l3.87-3.88-1.57-1.57-3.55,3.56h-6.4c-.15-.39-.38-.75-.69-1.06-1.19-1.2-3.13-1.2-4.33,0-1.2,1.2-1.2,3.14,0,4.34h0ZM0,36.81c0,1.7,1.37,3.07,3.05,3.07.44,0,.85-.09,1.23-.26l4.85,4.87c.21.2.49.32.79.32h5.48v-2.22h-5.01l-4.53-4.54c.17-.38.25-.79.25-1.23,0-1.69-1.37-3.07-3.06-3.07s-3.06,1.38-3.06,3.07h0ZM17.62,7.93c-1.19,1.2-1.19,3.14,0,4.34.31.31.67.54,1.05.69v6.88c0,.3.12.58.32.79l3.87,3.88,1.57-1.57-3.55-3.56v-6.42c.39-.15.75-.39,1.06-.69,1.19-1.2,1.19-3.14,0-4.34-1.19-1.2-3.13-1.2-4.33,0h0ZM50.46,0c-1.69,0-3.06,1.37-3.06,3.07,0,.44.09.85.26,1.23l-4.85,4.87c-.2.21-.33.49-.33.79v5.5h2.22v-5.03l4.53-4.54c.38.17.79.26,1.23.26,1.69,0,3.06-1.37,3.06-3.06s-1.37-3.07-3.06-3.07h0Zm19.28,12.54c.12.6.7,1,1.3.88,1.31-.25,2.53,0,3.51.7.97.7,1.59,1.77,1.75,3.01.07.56.55.97,1.1.97.05,0,.1,0,.15-.01.61-.08,1.03-.64.96-1.25-.24-1.83-1.21-3.48-2.65-4.52-1.47-1.06-3.32-1.45-5.22-1.08-.6.12-1,.7-.88,1.3h0Zm-17.67,11.79c.34,0,.66-.16.87-.43.21-.27.28-.62.2-.95-.34-1.37-.1-2.88.67-4.14.74-1.22,1.89-2.09,3.15-2.39.39-.09.78-.14,1.18-.14,1.34,0,2.68.51,3.7,1.44.31.28.76.37,1.15.21.39-.16.66-.52.7-.94.37-4.58,4.39-8.05,8.98-7.72,4.57.32,8.07,4.32,7.8,8.91-.02.3.09.6.3.83.21.22.5.35.81.35,4.37,0,7.92,3.57,7.92,7.95s-3.55,7.95-7.92,7.95h-29.49c-2.98-.02-5.4-2.47-5.4-5.45s2.42-5.43,5.4-5.45Zm-7.57,6.31c-.3-.02-.6-.03-.9-.03-7.2,0-13.06,5.87-13.06,13.09s5.86,13.1,13.06,13.1,13.06-5.88,13.06-13.1c0-2.19-.55-4.33-1.58-6.24h-3.02c-3.91-.03-7.13-3.02-7.56-6.82m-22.32,17.57l-4.55-.9v-7.21l4.55-.9c.36-.07.67-.32.81-.67l2.39-5.78c.14-.35.1-.74-.1-1.05l-2.59-3.87,5.09-5.1,3.85,2.59c.31.21.7.25,1.04.1l5.76-2.4c.34-.14.59-.45.66-.81l.9-4.56h7.19l.9,4.56c.06.31.25.57.51.73-2.07,1.08-3.6,3.08-4.02,5.45-.33-.02-.65-.03-.98-.03-8.43,0-15.28,6.87-15.28,15.32s6.85,15.32,15.28,15.32,15.28-6.87,15.28-15.32c0-2.16-.45-4.29-1.33-6.24h6.21l.45,1.07c.14.34.45.59.81.67l4.55.9v7.21l-4.55.9c-.36.07-.67.32-.81.67l-2.39,5.78c-.14.34-.1.74.1,1.05l2.58,3.86-5.08,5.1-3.85-2.59c-.31-.21-.7-.25-1.04-.1l-5.76,2.4c-.34.14-.59.45-.66.81l-.9,4.56h-7.19l-.9-4.56c-.07-.36-.32-.67-.66-.81l-5.76-2.4c-.34-.14-.74-.1-1.04.1l-3.85,2.59-5.09-5.1,2.58-3.86c.21-.31.25-.7.1-1.05l-2.39-5.78c-.14-.34-.45-.59-.81-.67Z"/></g></svg>