<?xml version="1.0" encoding="UTF-8"?><svg id="Layer_2" xmlns="http://www.w3.org/2000/svg" viewBox="0 0 103.58 103.59"><defs><style>.cls-1{fill:#fdb714;}</style></defs><g id="Layer_1-2"><path class="cls-1" d="m75.09,18.4c.95-.3,1.97.2,2.32,1.13l1.71-2.34,12.37,1.36c-5.26-6.26-11.93-11.18-19.45-14.37l5.04,11.5-1.99,2.71Z"/><path class="cls-1" d="m91.56,18.6l-8.84,12.03c11.64,17.01,7.28,40.24-9.74,51.88-17.01,11.63-40.24,7.27-51.88-9.74-11.63-17.01-7.27-40.24,9.74-51.87,9.47-6.48,21.39-8.24,32.32-4.78l8.83-12.01C45.66-7.04,15.27,5.26,4.12,31.59c-11.16,26.33,1.15,56.72,27.48,67.88,26.33,11.16,56.72-1.15,67.88-27.48,7.57-17.86,4.52-38.46-7.91-53.36v-.03Z"/><path class="cls-1" d="m62.46,19.85c-17.65-5.86-36.7,3.7-42.56,21.34-5.86,17.65,3.7,36.7,21.35,42.56,17.65,5.86,36.7-3.7,42.55-21.34,3.38-10.18,1.71-21.36-4.5-30.1l-9.6-1.06-7.26,9.73c6.04,5.8,6.23,15.39.44,21.43-5.8,6.04-15.39,6.23-21.43.44-6.04-5.8-6.23-15.39-.44-21.43,4.8-5,12.38-6.11,18.41-2.69l7.1-9.54-4.06-9.34Z"/><path class="cls-1" d="m57.59,42.05c-5.38-3.15-12.3-1.35-15.45,4.04-3.15,5.38-1.35,12.3,4.04,15.45,5.38,3.15,12.3,1.35,15.45-4.04,2.42-4.14,1.97-9.36-1.13-13.02l-7.8,10.45c-.67.81-1.87.92-2.68.25-.74-.62-.91-1.7-.37-2.51l7.94-10.63Z"/></g></svg>