<?xml version="1.0" encoding="UTF-8"?><svg id="Layer_2" xmlns="http://www.w3.org/2000/svg" viewBox="0 0 51.49 86.13"><defs><style>.cls-1{fill:#f15623;}</style></defs><g id="Layer_1-2"><path class="cls-1" d="m21.75,45.14c-.39,1.01-1.48,1.55-2.51,1.14-.97-.4-1.48-1.55-1.09-2.62.39-1.08,1.48-1.55,2.51-1.14.97.4,1.48,1.55,1.09,2.62m-.19-5.11c-2.32-.94-4.96.27-5.79,2.69-.9,2.42.26,5.18,2.58,6.05,2.32.94,4.96-.27,5.79-2.69.9-2.42-.26-5.11-2.57-6.05"/><path class="cls-1" d="m40.48,6.53c.39-1.01,1.48-1.55,2.51-1.14.97.4,1.48,1.55,1.09,2.62-.39,1.01-1.48,1.55-2.51,1.14-.97-.4-1.42-1.61-1.09-2.62m.26,5.11c2.32.94,4.96-.27,5.79-2.69.9-2.42-.26-5.18-2.58-6.05-2.32-.94-4.96.27-5.79,2.69-.97,2.42.19,5.11,2.57,6.05q-.07,0,0,0"/><path class="cls-1" d="m27.67,52.47v3.03c0,.13.07.27.07.34s.06.2.06.27,0,.07.07.13c.06.07.06.13.13.2v.07l.19.27c.19.27.45.47.77.67.39.27.84.34,1.29.34h16.73c.45,0,.9-.13,1.29-.34.26-.2.51-.4.77-.67l.19-.27v-.07c.07-.07.07-.13.13-.2,0-.07.06-.07.06-.13.07-.07.07-.2.07-.27.06-.13.06-.2.06-.34v-3.03c0-1.48-1.16-2.69-2.57-2.69h-16.73c-1.42,0-2.57,1.21-2.57,2.69"/><path class="cls-1" d="m51.49,84.62l-2.9-24.35c-.52.2-1.03.27-1.61.27h-16.73c-.58,0-1.09-.07-1.61-.27l-.52,4.31h6.63c.71,0,1.29.6,1.29,1.34s-.58,1.35-1.29,1.35h-6.95l-.51,4.04h6.82c.71,0,1.29.6,1.29,1.34s-.58,1.35-1.29,1.35h-7.08l-.45,4.04h6.89c.71,0,1.29.6,1.29,1.34s-.58,1.35-1.29,1.35h-7.27l-.45,3.9c-.07.74.39,1.41,1.09,1.48.71.07,22.72,0,23.36,0h.13c.71-.07,1.22-.74,1.16-1.48"/><path class="cls-1" d="m31.34,47.09h14.16c0-1.28-.32-2.56-1.03-3.7,3.22-4.71,2.12-11.23-2.38-14.6-.06-.07-.13-.07-.19-.13.26-1.08.45-2.22.45-3.3-.07-5.51-3.35-10.36-8.24-12.38.19-.74.26-1.55.26-2.29C34.3,4.71,29.54-.07,23.81,0,20.66,0,17.63,1.48,15.57,3.97c-1.54-.87-3.28-1.35-5.08-1.35C4.83,2.56.06,7.4,0,13.39c0,3.5,1.67,6.79,4.51,8.75-.32,1.08-.52,2.15-.52,3.23.07,5.99,4.83,10.76,10.56,10.69,1.8,0,3.6-.47,5.15-1.34,1.54,1.61,3.48,2.82,5.6,3.43.26,3.9,2.64,7.4,6.05,8.95"/></g></svg>