<?xml version="1.0" encoding="UTF-8"?><svg id="Layer_2" xmlns="http://www.w3.org/2000/svg" viewBox="0 0 92.52 102.62"><defs><style>.cls-1{fill:#005da6;}</style></defs><g id="Layer_1-2"><path class="cls-1" d="m16.71,98.84c-4.15,0-8.41-3.13-8.41-8.96,0-.86.64-1.51,1.49-1.51s1.49.65,1.49,1.51c0,4.1,2.77,5.93,5.43,5.93.85,0,1.49.65,1.49,1.51s-.74,1.51-1.49,1.51m.53-26.65c-.43-.43-1.17-.43-1.7,0-2.66,2.59-11.07,11.22-11.07,18.45,0,8.63,6.17,11.98,11.92,11.98s11.92-3.34,11.92-11.98c0-7.34-8.3-15.86-11.07-18.45"/><path class="cls-1" d="m89.75,25.14h-14.8c-2.34-3.56-5.96-6.26-10.11-7.44v-7.34h6.17c2.77,0,5.11-2.38,5.11-5.18s-2.34-5.18-5.11-5.18h-22.57c-2.77,0-5.11,2.37-5.11,5.18s2.34,5.18,5.11,5.18h6.17v7.34c-4.15,1.19-7.77,3.88-10.11,7.44h-2.98c-17.78,0-32.47,13.38-34.92,30.65h-3.73c-1.6,0-2.88,1.29-2.88,2.91v4.64c0,1.62,1.28,2.91,2.88,2.91h27.15c1.6,0,2.87-1.29,2.87-2.91v-4.64c0-1.62-1.28-2.91-2.87-2.91h-2.45c2.02-5.72,7.35-9.71,13.63-9.82h3.19c3.3,4.96,8.94,8.2,15.22,8.2s11.92-3.24,15.22-8.2h14.8c1.6,0,2.87-1.29,2.87-2.91v-15c.11-1.62-1.17-2.91-2.77-2.91"/></g></svg>