<?xml version="1.0" encoding="UTF-8"?><svg id="Layer_2" xmlns="http://www.w3.org/2000/svg" viewBox="0 0 98.24 95.46"><defs><style>.cls-1{fill:#00954c;}</style></defs><g id="Layer_1-2"><path class="cls-1" d="m95.47,63.78c.21-.32-.11-.63-.43-.42-2.24,1.16-6.94,2.85-15.49,2.85h-15.16c-.43,0-.64,0-.75-.21-.11-.1-.11-.42-.11-.74v-6.23c0-.32-.43-.42-.54-.21,0,0-13.24,15.73-15.16,17.95-.11.21-.11.42,0,.53,1.92,2.32,15.06,18.05,15.06,18.05.21.21.64.11.64-.21v-6.44c0-.42.11-.74.64-.74h8.97c6.83,0,9.18-1.8,14.31-10.35l8.01-13.83Z"/><path class="cls-1" d="m97.5,57.33c1.17-2.01.96-4.43-.64-7.07l-8.76-15.1c-.11-.11-.32-.21-.43-.11l-18.79,10.66c-.11.11-.22.32-.11.42l9.83,16.89c.11.1.21.21.32.21,7.37,0,16.02-1.69,18.58-5.91"/><path class="cls-1" d="m12.38,80.04c.21.32.64.21.64-.11.11-2.53.96-7.39,5.23-14.68,0-.1,7.58-12.88,7.58-12.99.21-.32.32-.53.53-.53s.43.1.75.21l5.45,3.06c.32.11.53-.1.43-.42,0,0-7.16-19.11-8.22-21.96-.11-.21-.32-.32-.53-.32-2.88.53-23.28,3.91-23.28,3.91-.32,0-.43.53-.11.63l5.66,3.17c.32.21.64.42.32.95,0,0-.96,1.58-4.48,7.71-3.52,5.81-3.2,8.76,1.81,17.32l8.22,14.04Z"/><path class="cls-1" d="m16.98,85c1.17,2.01,3.31,3.06,6.51,3.06h17.62c.21,0,.32-.11.32-.32v-21.44c0-.21-.11-.32-.32-.32h-19.65c-.11,0-.21.1-.32.21-3.84,6.23-6.62,14.46-4.16,18.79"/><path class="cls-1" d="m39.83,0c-.32,0-.43.42-.21.63,2.24,1.37,5.98,4.54,10.25,11.83,0,.11,7.58,12.88,7.58,12.99.22.32.32.53.22.74-.11.21-.22.32-.64.53l-5.45,3.06c-.32.11-.22.53.11.63,0,0,20.4,3.49,23.28,3.91.21,0,.43-.11.53-.32,1.07-2.75,8.33-21.96,8.33-21.96.11-.32-.21-.63-.53-.42l-5.66,3.17c-.32.21-.64.32-.96-.21,0,0-.96-1.69-4.48-7.71-3.2-5.7-5.98-6.86-16.02-6.86h-16.34Z"/><path class="cls-1" d="m33.21,1.48c-2.35,0-4.38,1.37-5.98,4.12l-8.76,15.1c-.11.11,0,.32.11.42l18.79,10.66c.11.1.32,0,.43-.11l9.82-16.89c.11-.1.11-.21,0-.32-3.63-6.44-9.4-12.88-14.42-12.99"/></g></svg>