<?xml version="1.0" encoding="UTF-8"?><svg id="Layer_2" xmlns="http://www.w3.org/2000/svg" viewBox="0 0 110.5 72.81"><defs><style>.cls-1{fill:#f15623;}</style></defs><g id="Layer_1-2"><path class="cls-1" d="m10.54,0c4.73,0,8.56,3.98,8.56,8.89s-3.83,8.89-8.56,8.89S1.98,13.79,1.98,8.89,5.82,0,10.54,0"/><path class="cls-1" d="m10.84,40.41l-2.05-3.35,1.29-15.87h1.51l1.29,15.87-2.05,3.35Zm-1.46-20.23h2.63v.76h-2.63v-.76Zm7.7-1.36H4.01c-2.22,0-4.01,1.86-4.01,4.17v23.61c0,2.27,1.75,4.11,3.92,4.15v17.91c0,2.3,1.76,4.16,3.93,4.16h5.39c2.17,0,3.93-1.87,3.93-4.16v-17.91c2.17-.05,3.93-1.88,3.93-4.15v-23.61c0-2.3-1.8-4.17-4.01-4.17"/><path class="cls-1" d="m32.9,0c4.73,0,8.56,3.98,8.56,8.89s-3.83,8.89-8.56,8.89-8.56-3.98-8.56-8.89S28.17,0,32.9,0"/><path class="cls-1" d="m33.19,40.41l-2.05-3.35,1.29-15.87h1.51l1.29,15.87-2.05,3.35Zm-1.46-20.23h2.63v.76h-2.63v-.76Zm7.7-1.36h-13.07c-2.22,0-4.01,1.86-4.01,4.16v23.61c0,2.27,1.75,4.11,3.92,4.16v17.91c0,2.3,1.76,4.16,3.93,4.16h5.39c2.17,0,3.93-1.86,3.93-4.16v-17.91c2.17-.05,3.93-1.88,3.93-4.15v-23.61c0-2.3-1.8-4.17-4.01-4.17"/><path class="cls-1" d="m55.25,0c4.73,0,8.56,3.98,8.56,8.89s-3.83,8.89-8.56,8.89-8.56-3.98-8.56-8.89S50.52,0,55.25,0"/><path class="cls-1" d="m55.54,40.41l-2.05-3.35,1.29-15.87h1.51l1.29,15.87-2.05,3.35Zm-1.46-20.23h2.63v.76h-2.63v-.76Zm7.7-1.36h-13.07c-2.21,0-4.01,1.86-4.01,4.16v23.61c0,2.27,1.75,4.11,3.92,4.16v17.91c0,2.3,1.76,4.16,3.93,4.16h5.39c2.17,0,3.93-1.86,3.93-4.16v-17.91c2.17-.05,3.93-1.88,3.93-4.15v-23.61c0-2.3-1.8-4.17-4.01-4.17"/><path class="cls-1" d="m77.61,0c4.73,0,8.56,3.98,8.56,8.89s-3.83,8.89-8.56,8.89-8.56-3.98-8.56-8.89,3.83-8.89,8.56-8.89"/><path class="cls-1" d="m77.9,40.41l-2.05-3.35,1.29-15.87h1.51l1.29,15.87-2.05,3.35Zm-1.46-20.23h2.63v.76h-2.63v-.76Zm7.7-1.36h-13.07c-2.22,0-4.01,1.86-4.01,4.16v23.61c0,2.27,1.75,4.11,3.92,4.16v17.91c0,2.3,1.76,4.16,3.93,4.16h5.38c2.17,0,3.93-1.86,3.93-4.16v-17.91c2.17-.05,3.93-1.88,3.93-4.15v-23.61c0-2.3-1.8-4.17-4.01-4.17"/><path class="cls-1" d="m99.96,0c4.73,0,8.56,3.98,8.56,8.89s-3.83,8.89-8.56,8.89-8.56-3.98-8.56-8.89,3.83-8.89,8.56-8.89"/><path class="cls-1" d="m100.25,40.41l-2.05-3.35,1.29-15.87h1.51l1.29,15.87-2.05,3.35Zm-1.46-20.23h2.63v.76h-2.63v-.76Zm7.7-1.36h-13.06c-2.22,0-4.01,1.86-4.01,4.16v23.61c0,2.27,1.75,4.11,3.93,4.16v17.91c0,2.3,1.76,4.16,3.93,4.16h5.39c2.17,0,3.93-1.86,3.93-4.16v-17.91c2.17-.05,3.93-1.88,3.93-4.15v-23.61c0-2.3-1.8-4.17-4.01-4.17"/></g></svg>