<?xml version="1.0" encoding="UTF-8"?><svg id="Layer_2" xmlns="http://www.w3.org/2000/svg" viewBox="0 0 94.74 64.6"><defs><style>.cls-1{fill:#fdb714;}</style></defs><g id="Layer_1-2"><path class="cls-1" d="m88.28,50.6c0,.59-.48,1.08-1.08,1.08H7.54c-.59,0-1.08-.48-1.08-1.08V7.54c0-.59.48-1.08,1.08-1.08h79.67c.59,0,1.08.48,1.08,1.08v43.07Zm0,8.61c0,.59-.48,1.08-1.08,1.08h-4.31c-.59,0-1.08-.48-1.08-1.08v-2.15c0-.59.48-1.08,1.08-1.08h4.31c.59,0,1.08.48,1.08,1.08v2.15Zm-10.77,0c0,.59-.48,1.08-1.08,1.08h-4.31c-.59,0-1.08-.48-1.08-1.08v-2.15c0-.59.48-1.08,1.08-1.08h4.31c.59,0,1.08.48,1.08,1.08v2.15ZM87.62,0H7.13C3.2.01.01,3.2,0,7.13v50.34c.01,3.93,3.2,7.12,7.13,7.13h80.49c3.93-.01,7.12-3.2,7.13-7.13V7.13c-.01-3.93-3.2-7.12-7.13-7.13"/><path class="cls-1" d="m23.73,39.71c-.13.62-.66,1.09-1.3,1.12-.02,0-.05,0-.07,0-.61,0-1.15-.4-1.34-.98l-3.12-9.97-.67,2.01c-.19.57-.73.96-1.33.96h-7.14c-.06,0-.11-.03-.17-.03v17.16h77.49v-18.31H25.37l-1.64,8.06Z"/><path class="cls-1" d="m14.89,30.04l1.72-5.16c.19-.58.73-.94,1.34-.96.61,0,1.14.4,1.32.98l2.8,8.92.79-3.85c.13-.65.7-1.12,1.37-1.12h61.85V8.67H8.59v21.41c.06,0,.11-.03.17-.03h6.13Z"/></g></svg>