<?xml version="1.0" encoding="UTF-8"?><svg id="Layer_2" xmlns="http://www.w3.org/2000/svg" viewBox="0 0 99.44 101.51"><defs><style>.cls-1{fill:#005da6;}</style></defs><g id="Layer_1-2"><path class="cls-1" d="m76.11,26.45h-13.84s-.47.77-1.36,2.31v.09h3.65c.61,0,1.3.15,2.07.44,1.06.49,1.79,1.18,2.17,2.07v.03h-6.54s-.49.77-1.39,2.31c0,.06.02.09.07.09h8.22c0,.35-.06.69-.17,1.03-.75,2.3-2.63,3.45-5.65,3.45-.64,0-1.21-.04-1.68-.12l-.03.09v2.24s2.7,3.73,8.12,11.09h3.01s.07-.02.07-.07v-.45l-6.83-9.64c-.6-.82-.9-1.28-.9-1.38v-.03c1.22,0,2.5-.37,3.84-1.12.71-.34,1.47-1.07,2.27-2.2.59-1.13.91-2.09.97-2.87h2.55s.48-.79,1.36-2.33c0-.04-.02-.06-.07-.07h-3.94c-.18-.99-.53-1.84-1.04-2.54h3.69c.11-.11.58-.89,1.39-2.36v-.03Zm13.99,12.46h0c0,11.9-9.36,21.55-20.91,21.54-11.55,0-20.9-9.65-20.9-21.55,0-11.9,9.36-21.54,20.91-21.54,11.55,0,20.9,9.64,20.9,21.54m-44.13-6.34c1.38-5.36,4.47-10.09,8.78-13.43h-30.76v13.43h21.98Zm-.79,6.34v-.64h-21.19v13.44h24.65c-2.27-3.86-3.46-8.29-3.46-12.8m-29.79,35.82c-.02-.06-.04-.11-.06-.17-.51-1.33-1.93-2.02-3.25-1.59-.05.02-.11.04-.17.06h0s-11.92,4.37-11.92,4.37l8.32,24.09,12.01-4.41c1.36-.51,2.06-2.05,1.58-3.45l-6.53-18.91Zm83.18-4.03c-.07-.12-.13-.22-.17-.28-.73-1.07-1.85-1.79-3.1-2-1.33-.24-2.7,0-3.88.7-.11.07-.22.14-.34.22l-18.24,12.74c-.02.66-.12,1.31-.28,1.94-.59,2.25-2.02,4.17-3.98,5.33-1.96,1.17-4.28,1.49-6.47.89l-26.57-7.34s-.06-.02-.09-.02c-.82-.25-1.29-1.15-1.04-2,.25-.85,1.11-1.33,1.94-1.07l26.57,7.33c1.39.38,2.87.18,4.11-.56,1.25-.74,2.16-1.97,2.54-3.4.77-2.98-.95-6.04-3.84-6.83l-24.23-6.68-11.16-3.08c-2.56-.7-5.29-.33-7.58,1.04-2.16,1.27-3.78,3.34-4.53,5.78.02.05.04.11.06.16l6.57,19.01c.11.3.19.61.24.93h0s7.28,0,7.28,0l.38.04c2.3.6,5.29,1.4,8.02,2.12,13.91,3.71,20.31,5.41,25.66,4.18,4.55-1.05,8.74-4.33,16.51-10.39,3.81-2.97,8.45-6.6,14.25-10.85,1.14-.82,1.91-2.08,2.16-3.49.26-1.52-.02-3.08-.78-4.41m-31.79-57.28H23.98V0h42.8v13.44Z"/></g></svg>