<?xml version="1.0" encoding="UTF-8"?><svg id="Layer_2" xmlns="http://www.w3.org/2000/svg" viewBox="0 0 121.78 114.17"><defs><style>.cls-1{fill:#099749;}</style></defs><g id="Layer_1-2"><path class="cls-1" d="m76.61,81.67l6.22,4.6,7.23-7.23-4.6-6.22c1.83-2.85,3.18-6.05,3.92-9.48l7.65-1.14v-10.22l-7.65-1.14c-.74-3.43-2.09-6.62-3.92-9.48l4.6-6.22-7.23-7.23-6.22,4.6c-2.85-1.83-6.05-3.18-9.48-3.92l-1.14-7.67h-10.22l-1.14,7.65c-3.43.74-6.62,2.09-9.48,3.92l-6.22-4.6-7.23,7.23,4.6,6.22c-1.83,2.85-3.18,6.05-3.92,9.48l-7.67,1.14v10.22l7.65,1.14c.74,3.43,2.09,6.62,3.92,9.48l-4.6,6.22,7.23,7.23,6.22-4.6c2.85,1.83,6.05,3.18,9.48,3.92l1.14,7.65h10.22l1.14-7.65c3.44-.72,6.64-2.07,9.5-3.9Zm-15.74-10.79c-7.63,0-13.8-6.18-13.8-13.8s6.18-13.8,13.8-13.8,13.8,6.18,13.8,13.8-6.17,13.8-13.8,13.8Z"/><path class="cls-1" d="m60.88,108.46c-27.4,0-49.86-21.56-51.3-48.62l2.38,2.38c.38.38.86.57,1.35.57s.97-.19,1.35-.55c.74-.74.74-1.94,0-2.68l-5.71-5.71c-.74-.74-1.94-.74-2.68,0l-5.71,5.71c-.74.74-.74,1.94,0,2.68s1.94.74,2.68,0l2.53-2.53c1.37,29.21,25.56,52.56,55.11,52.56,1.05,0,1.9-.86,1.9-1.9s-.86-1.9-1.9-1.9Z"/><path class="cls-1" d="m121.22,51.93c-.74-.74-1.94-.74-2.68,0l-2.53,2.53C114.62,25.25,90.43,1.9,60.88,1.9c-1.05,0-1.9.86-1.9,1.9s.86,1.9,1.9,1.9c27.4,0,49.86,21.56,51.3,48.62l-2.38-2.38c-.74-.74-1.94-.74-2.68,0s-.74,1.94,0,2.68l5.71,5.71c.36.36.84.55,1.33.55s.97-.19,1.35-.55l5.71-5.71c.74-.74.74-1.96,0-2.7Z"/><path class="cls-1" d="m9.98,45.86l5.48-3.52c2.32,2.04,5.08,3.58,8.13,4.43v1.54l5.75-.86c.61-2.02,1.43-3.98,2.42-5.84l-2.63-3.56c-6.22-.1-11.25-5.16-11.25-11.42s5.12-11.42,11.42-11.42c5.5,0,10.1,3.9,11.17,9.08l4.93,3.65c1.54-.82,3.16-1.48,4.8-2.04-.06-1.86-.36-3.65-.88-5.37l5.31-3.43.15-.1-6.17-9.61-5.48,3.52c-2.32-2.02-5.08-3.56-8.13-4.43V0h-11.42v6.51c-3.04.86-5.8,2.4-8.13,4.43l-5.48-3.52-6.18,9.61,5.46,3.52c-.57,1.92-.89,3.98-.89,6.09s.32,4.17.91,6.09l-5.48,3.52,6.18,9.61Z"/><path class="cls-1" d="m111.78,68.31l-5.48,3.52c-2.32-2.04-5.08-3.58-8.13-4.43v-1.54l-5.75.86c-.61,2.02-1.43,3.98-2.42,5.84l2.63,3.56c6.22.1,11.25,5.16,11.25,11.42s-5.12,11.42-11.42,11.42c-5.5,0-10.1-3.9-11.17-9.08l-4.93-3.65c-1.54.82-3.16,1.48-4.8,2.04.06,1.86.36,3.65.88,5.37l-5.31,3.43-.15.1,6.18,9.61,5.48-3.52c2.32,2.04,5.08,3.58,8.13,4.43v6.51h11.42v-6.51c3.04-.86,5.8-2.4,8.13-4.43l5.48,3.52,6.17-9.61-5.46-3.52c.59-1.92.91-3.98.91-6.09s-.32-4.17-.91-6.09l5.46-3.52-6.18-9.61Z"/></g></svg>