<?xml version="1.0" encoding="UTF-8"?><svg id="Layer_2" xmlns="http://www.w3.org/2000/svg" viewBox="0 0 130.51 130.51"><defs><style>.cls-1{fill:#099749;}</style></defs><g id="Layer_1-2"><path class="cls-1" d="m76.4,98.68c0,1.76-1.43,3.18-3.18,3.18s-3.18-1.43-3.18-3.18v-22.28h-25.47v26.88c.01.56.17,1.11.46,1.59l7.74,12.91c.89,1.5,1.36,3.21,1.35,4.95v7.78h22.28v-7.78c0-1.74.46-3.45,1.35-4.95l7.75-12.89c.28-.48.43-1.03.45-1.59v-10.98h-9.55v6.37Z"/><path class="cls-1" d="m122.73,54.12c-1.74,0-3.45-.46-4.95-1.35l-12.89-7.75c-.48-.28-1.03-.43-1.59-.45h-10.98v9.55h6.37c1.76,0,3.18,1.43,3.18,3.18s-1.43,3.18-3.18,3.18h-22.28v25.47h26.88c.56-.01,1.11-.17,1.59-.46l12.91-7.74c1.5-.89,3.21-1.36,4.95-1.35h7.78v-22.28h-7.78Z"/><rect class="cls-1" x="60.48" y="60.48" width="9.55" height="9.55"/><path class="cls-1" d="m28.65,73.21c0-1.76,1.43-3.18,3.18-3.18h22.28v-25.47h-26.88c-.56.01-1.11.17-1.59.46l-12.91,7.74c-1.49.88-3.19,1.35-4.92,1.35H0v22.28h7.78c1.73,0,3.43.47,4.92,1.35l12.89,7.75c.48.28,1.03.43,1.59.45h11.01v-9.55h-6.37c-1.76,0-3.18-1.43-3.18-3.18Z"/><path class="cls-1" d="m54.12,31.83c0-1.76,1.43-3.18,3.18-3.18s3.18,1.43,3.18,3.18v22.28h25.47v-26.88c-.01-.56-.17-1.11-.46-1.59l-7.74-12.91c-.89-1.5-1.36-3.21-1.35-4.95V0h-22.28v7.78c0,1.74-.46,3.45-1.35,4.95l-7.75,12.89c-.28.48-.43,1.03-.45,1.59v10.98h9.55v-6.37Z"/></g></svg>