<?xml version="1.0" encoding="UTF-8"?><svg id="Layer_2" xmlns="http://www.w3.org/2000/svg" viewBox="0 0 119.54 137.93"><defs><style>.cls-1{fill:#099749;}</style></defs><g id="Layer_1-2"><path class="cls-1" d="m117.44,62.99c-1.34-1.24-3.14-1.88-4.96-1.74l-4.76.35c-.87.06-1.66-.44-1.97-1.25-.28-.71-.57-1.41-.88-2.1-.36-.8-.15-1.72.51-2.29,2.6-2.21,6.73-5.04,5.82-9.03-3.88,6.23-9.98,11.26-17.01,13.81,2.67,5.24,4.2,11.15,4.2,17.42,0,21.29-17.32,38.62-38.62,38.62s-38.62-17.32-38.62-38.62c0-9.8,3.7-18.74,9.74-25.56-3.78-1.67-7.27-4.02-10.27-7.03-2.19-2.19-4.03-4.64-5.52-7.28l-4.92,4.92c-1.29,1.29-1.99,3.07-1.92,4.89.07,1.82.9,3.55,2.28,4.74l3.62,3.12c.66.57.86,1.49.51,2.29-.31.69-.6,1.4-.88,2.11-.31.81-1.1,1.31-1.97,1.25l-4.76-.35c-1.83-.14-3.62.5-4.96,1.74s-2.1,2.99-2.1,4.82v20.71c0,1.82.77,3.58,2.1,4.82,1.33,1.24,3.13,1.88,4.96,1.74l4.76-.35c.87-.07,1.66.44,1.97,1.26.28.71.57,1.41.88,2.1.36.8.15,1.72-.51,2.29l-3.62,3.12c-1.38,1.19-2.21,2.92-2.28,4.74-.07,1.82.63,3.6,1.92,4.89l14.64,14.64c1.29,1.29,3.07,2,4.89,1.92,1.82-.07,3.55-.9,4.74-2.28l3.12-3.62c.57-.66,1.49-.86,2.29-.51.69.31,1.4.6,2.11.88.81.32,1.32,1.11,1.25,1.97l-.35,4.76c-.14,1.82.5,3.62,1.74,4.96s2.99,2.1,4.82,2.1h20.71c1.82,0,3.58-.77,4.82-2.1s1.87-3.14,1.74-4.96l-.35-4.76c-.06-.86.44-1.66,1.25-1.97.71-.28,1.41-.57,2.1-.88.81-.36,1.72-.15,2.29.51l3.12,3.62c1.19,1.38,2.92,2.21,4.74,2.28,1.81.08,3.6-.63,4.89-1.92l14.64-14.64c1.29-1.29,1.99-3.07,1.92-4.89-.07-1.82-.9-3.55-2.28-4.74l-3.62-3.12c-.66-.57-.86-1.49-.51-2.29.31-.69.6-1.4.88-2.11.32-.81,1.1-1.32,1.97-1.25l4.76.35c1.82.14,3.62-.5,4.96-1.74,1.33-1.24,2.1-2.99,2.1-4.82v-20.71c0-1.82-.77-3.58-2.1-4.82Z"/><path class="cls-1" d="m44.71,50.92c2.25,0,4.5-.3,6.74-.82,2.38,3.88,4.07,8.27,4.27,13.03-.1,8.22.38,17.67,1.72,28.6.15,1.27,1.32,2.16,2.56,2,1.26-.15,2.16-1.3,2-2.56-1.01-8.21-1.51-15.54-1.65-22.12.71-6.46,3.46-11.35,6.99-15.04,4.64,2.77,9.89,4.2,15.16,4.2,4.56,0,9.12-1.05,13.29-3.17,9.32-4.74,15.46-14.19,16.03-24.66.04-.82-.35-1.61-1.05-2.05-8.8-5.71-20.06-6.31-29.37-1.57-8.74,4.44-14.68,13.03-15.86,22.72-1.79,1.63-3.46,3.5-4.9,5.63.79-11.53,2.88-19.86,5.16-25.74,6.27-.12,12.2-3.24,15.78-8.45,3.95-5.73,4.54-13.22,1.55-19.53-.35-.74-1.08-1.24-1.9-1.31-6.99-.55-13.75,2.68-17.69,8.41-3.78,5.48-4.45,12.56-1.88,18.69-2.17,5.43-4.13,12.73-5.18,22.41-.64-1.2-1.34-2.36-2.09-3.47,1.76-9.49-1.23-19.35-8.09-26.21-7.39-7.39-18.28-10.31-28.41-7.6-.8.21-1.42.83-1.63,1.63-2.7,10.14.21,21.02,7.6,28.41,5.57,5.57,13.12,8.59,20.84,8.59h0Z"/></g></svg>