<?xml version="1.0" encoding="UTF-8"?><svg id="Layer_2" xmlns="http://www.w3.org/2000/svg" viewBox="0 0 126.77 126.76"><defs><style>.cls-1{fill:#099749;}</style></defs><g id="Layer_1-2"><path class="cls-1" d="m4.04,11.43h7.39v-7.39c0-2.23,1.81-4.04,4.04-4.04,1.07,0,2.1.43,2.86,1.18l17.14,17.14c1.08,1.08,1.46,2.68.97,4.14l-.74,2.23c25.01-18.93,60.62-14,79.55,11.01,18.93,25.01,14,60.62-11.01,79.55-25.01,18.93-60.62,14-79.55-11.01-15.34-20.27-15.34-48.27,0-68.54l-2.23.74c-.41.14-.84.21-1.28.21-1.07,0-2.1-.43-2.86-1.19L1.18,18.33c-1.58-1.58-1.58-4.14,0-5.71.76-.76,1.78-1.18,2.86-1.18h0Zm65.71,106.8c26.78.04,48.51-21.63,48.55-48.41.04-26.78-21.63-48.51-48.41-48.55-11.5-.02-22.64,4.06-31.41,11.49l8.6,8.6c15.73-12.57,38.67-10.01,51.23,5.71,12.57,15.72,10.01,38.67-5.71,51.23-15.73,12.57-38.67,10.01-51.24-5.71-10.64-13.31-10.64-32.21,0-45.52l-8.6-8.61c-17.3,20.4-14.78,50.97,5.62,68.26,8.76,7.43,19.88,11.5,31.37,11.49h0Zm-28.28-48.48c-.06,15.68,12.61,28.44,28.29,28.5,15.68.06,28.44-12.61,28.5-28.29.06-15.68-12.61-28.44-28.29-28.5-6.17-.02-12.18,1.96-17.12,5.66l8.75,8.75c2.46-1.48,5.28-2.27,8.16-2.28,8.93,0,16.16,7.24,16.16,16.16s-7.23,16.16-16.16,16.16-16.16-7.23-16.16-16.16c.01-2.88.8-5.69,2.29-8.16l-8.75-8.75c-3.67,4.87-5.66,10.8-5.66,16.9h0Z"/></g></svg>