<?xml version="1.0" encoding="UTF-8"?><svg id="Layer_2" xmlns="http://www.w3.org/2000/svg" viewBox="0 0 183.99 215.25"><defs><style>.cls-1{fill:#005ea7;}.cls-2{fill:#f05624;}.cls-3{fill:#fdb615;}.cls-4{fill:#01954b;}</style></defs><g id="Layer_1-2"><path class="cls-1" d="m26.83,214.96c-1.13.61-2.57.22-3.2-.87-.63-1.08-.23-2.46.91-3.06,1.13-.61,2.57-.22,3.2.87.63,1.09.23,2.46-.91,3.06"/><path class="cls-2" d="m61.05,79.48c-.26,0-.73-.01-1.27,0h-6.96s0,0,0,0c-2.38-.05-5.05,1.48-5.41,4.63-.17,1.47.37,2.79.59,3.23,2.64,5.23,4.11,8.16,4.11,8.16l8.94-16.02Z"/><path class="cls-2" d="m15.95,165.43c-.11-.14-.3-.39-.53-.68l-2.91-3.73h0c-.97-1.29-2.88-2.1-4.68-1-.84.51-1.3,1.34-1.44,1.64-1.63,3.55-2.54,5.53-2.54,5.53l12.11-1.76Z"/><path class="cls-4" d="m28.55,127.75h0c6.19-1.29,11.49-5.81,13.33-12.31l4.79-16.87-16.87-4.79c-9.32-2.64-19.01,2.77-21.66,12.08L0,134.56l28.55-6.81Z"/><path class="cls-4" d="m169.64,25.89h0c4.9-.96,9.1-4.34,10.56-9.2l3.79-12.61-13.37-3.58c-7.38-1.98-15.06,2.07-17.16,9.03l-6.45,21.45,22.62-5.09Z"/><path class="cls-4" d="m78.2,56.76h0c-1.12-.6-2.61-.51-3.91.38l-3.37,2.32,1.74,3.08c.96,1.7,3.25,2.05,5.11.77l5.73-3.94-5.3-2.61Z"/><polygon class="cls-3" points="114.86 41.81 99.08 37.58 101.11 45.05 103.11 52.53 114.86 41.81"/></g></svg>