<?xml version="1.0" encoding="UTF-8"?><svg id="Layer_2" xmlns="http://www.w3.org/2000/svg" xmlns:xlink="http://www.w3.org/1999/xlink" viewBox="0 0 932.66 1022.1"><defs><style>.cls-1{fill:#fff;}.cls-2{fill:#005ea7;}.cls-3{fill:#f05624;}.cls-4{fill:#fdb714;}.cls-5{fill:#fdb615;}.cls-6{fill:#01954b;}.cls-7{clip-path:url(#clippath);}.cls-8{fill:none;stroke:#fdb714;stroke-miterlimit:10;stroke-width:2.06px;}</style><clipPath id="clippath"><path class="cls-1" d="m0,0h900.86C918.41,0,932.66,14.25,932.66,31.79v958.51c0,17.55-14.25,31.79-31.79,31.79H0V0h0Z"/></clipPath></defs><g id="Layer_1-2"><path class="cls-1" d="m0,0h900.86C918.41,0,932.66,14.25,932.66,31.79v958.51c0,17.55-14.25,31.79-31.79,31.79H0V0h0Z"/><g class="cls-7"><polygon class="cls-4" points="143.49 310.14 139.26 941.27 175.32 941.27 159.78 310.14 143.49 310.14"/><path class="cls-4" d="m163.37,294.29h18.77c1.9,0,3.46,1.64,3.56,3.72l.74,16.23c.1,2.22-1.49,4.08-3.51,4.11l-19.43.27-.12-24.33Z"/><path class="cls-4" d="m182.13,294.29h-3.4l.7,3.04s.06,0,.1,0c.1-.02.21-.03.32-.03.16,0,.33.02.49.03.55.06,1.13.22,1.68.47h.03s.02.02.02.02c2.02.92,3.65,3.31,3.82,6.03.09,1.25-.09,2.48-.51,3.58l.14.14c.16.16.37.37.63.64l-.46-10.19c-.1-2.08-1.66-3.72-3.56-3.72m-12.67,0h-6.09l.09,19.14c.26-.43.51-.85.75-1.25,1.4-2.3,2.56-4.19,3.4-5.56.76-1.23,1.24-1.98,1.29-1.98,0,0,0,0,0,0,0,0,0,0,0,0,.02,0-.12.27-.38.76l.88.75c-.69-2.61.23-5.08,1.25-6.42.03-.03.05-.07.08-.1l-1.27-5.33Zm5.77,17.22l-4.26,7,11.94-.17c.07,0,.14,0,.21,0-2.44-2.62-3.86-4.18-3.82-4.22,0,0,0,0,0,0l-2.36-2.53c-.16,0-.31,0-.46,0-.07,0-.17.01-.29.01-.09,0-.2,0-.33-.01-.17,0-.36-.03-.58-.07-.02,0-.04,0-.06,0"/><path class="cls-4" d="m122.82,299.02v16.82c0,1.54,1.25,2.79,2.79,2.79h37.75v-24.33l-37.89,1.93c-1.48.08-2.65,1.3-2.65,2.79"/><path class="cls-4" d="m159.7,306.37c-3.67,0-9.74.07-16.61.2-11.2.21-20.27.5-20.27.65,0,.06,1.36.09,3.66.09,3.67,0,9.74-.07,16.61-.2,11.19-.21,20.27-.5,20.26-.65,0-.06-1.35-.08-3.66-.08"/><path class="cls-4" d="m185.38,307.42s0,0,0,0c.04.04.09.08.14.13l-.13-.14Z"/><path class="cls-4" d="m186.16,308.36l.27,5.88c0,.07,0,.14,0,.21,0,1.91-1.26,3.51-2.93,3.84,4,4.1,10.48,10.82,17.76,18.46,12.02,12.6,21.68,22.9,21.57,23h0s51.29,53.5,51.29,53.5l4.22,4.53c2.28,1.08,4.34,1.44,6.09,1.44,3.57,0,5.81-1.52,5.81-1.52h0c-.2,0-23.78-24.61-52.74-55.05-25.43-26.74-46.57-49.1-51.34-54.29"/><path class="cls-4" d="m185.36,307.48c-.35.9-.84,1.7-1.46,2.34-1.15,1.25-2.68,1.86-3.97,1.86-.22,0-.44-.02-.64-.05h.03c-.91-.01-1.7-.03-2.38-.04l2.36,2.53s0,0,0,0c.08,0,1.62,1.54,4.19,4.17,1.67-.33,2.93-1.93,2.93-3.84,0-.07,0-.14,0-.21l-.27-5.88c-.36-.4-.63-.69-.8-.88"/><path class="cls-4" d="m187.37,332.7c0,1.74.22,3.33.84,4.29,2.05,3.16,78.94,72.82,86.66,78.67.32.24.63.47.94.68-.31-.22-.63-.44-.94-.68-7.73-5.85-84.61-75.51-86.66-78.67-.62-.96-.84-2.55-.84-4.29"/><path class="cls-4" d="m275.82,416.33c.95.66,1.88,1.24,2.79,1.74l-.27-.29c-.81-.39-1.65-.86-2.52-1.45"/><path class="cls-4" d="m188.47,324.05c-.17.73-1.11,5.02-1.11,8.65,0,1.74.22,3.33.84,4.29,2.05,3.16,78.94,72.82,86.66,78.67.32.24.63.46.94.68.86.58,1.7,1.06,2.52,1.45l-4.22-4.53-51.29-53.5s0,0,0,0c-.2,0-9.99-10.09-21.96-22.63-4.62-4.85-8.89-9.35-12.4-13.07"/><path class="cls-4" d="m183.5,318.29c-.12.02-.25.04-.38.05,1.45,1.56,3.27,3.49,5.35,5.71,3.5,3.72,7.78,8.22,12.4,13.07,11.96,12.54,21.75,22.63,21.96,22.63h0s0,0,0,0c.11-.1-9.55-10.4-21.57-23-7.28-7.64-13.76-14.37-17.76-18.46"/><path class="cls-4" d="m179.31,314.12h0s1.37,1.6,3.81,4.22c.13-.01.26-.03.38-.05-2.57-2.63-4.11-4.17-4.19-4.17"/><path class="cls-4" d="m135.1,148.84c-.15,0-.23,0-.23,0l34.59,145.45h9.03c-.37-1.57-.86-3.65-1.45-6.15-1.3-5.49-3.18-13.04-5.28-21.39-2.09-8.34-3.92-15.92-5.12-21.43-.6-2.76-1.07-4.99-1.37-6.54-.14-.73-.25-1.32-.33-1.79-.07-.41-.1-.63-.08-.63h0l-18.3-75.56-1.37-6.04c-3.84-5.6-8.96-5.93-10.1-5.93m43.58,145.25c.01.07.03.14.04.21h0l-.05-.21Z"/><path class="cls-4" d="m178.73,294.29h0c.02.11.04.21.06.31.14.73.25,1.32.33,1.79.07.41.1.62.08.63h0s-.08-.21-.19-.61c-.11-.46-.25-1.05-.43-1.76-.03-.11-.05-.23-.08-.35h-9.03l1.27,5.33c.49-.64.98-1.08,1.36-1.35.36-.25.59-.36.64-.36,0,0,0,0,.01,0,.05.07-.56.44-1.28,1.33.85-.88,1.91-1.47,3.08-1.66-.28-.02-.43-.04-.43-.06,0-.05.79-.1,2.17-.13.73-.02,1.56-.03,2.49-.05.21,0,.43,0,.65-.01l-.7-3.04Z"/><path class="cls-4" d="m146.69,157.36c.15.32.29.64.44.98-.14-.34-.29-.66-.44-.98m20.22,87.4c.04.16.07.31.11.47.55,2.33,1.21,5.04,1.95,8.01l-2.06-8.48Z"/><path class="cls-4" d="m145.11,154.37l.09.39c.52.76,1.03,1.63,1.49,2.6-.5-1.08-1.03-2.08-1.58-2.99"/><path class="cls-4" d="m145.2,154.76l1.37,6.04,18.3,75.56s.08.21.19.61c.11.46.25,1.05.43,1.76.36,1.51.84,3.55,1.42,6.03l2.05,8.48c.99,4.03,2.13,8.57,3.33,13.37,1.29,5.17,2.49,10.04,3.49,14.31.83-.89,6.74-7.36,6.72-10.89,0-.05,0-.09,0-.13-.19-3.76-31.63-102.63-35.37-111.57-.14-.33-.29-.66-.44-.98-.46-.97-.96-1.84-1.49-2.6"/><path class="cls-4" d="m163.46,314.22c-.03.05-.06.11-.1.16v4.23h-2.49c-.28.47-.56.95-.85,1.44l.39,15.79,10.55-17.33-7.48.1-.02-4.4Zm-20.23,33.34c-.35.55-.69,1.08-1.01,1.58-1.49,2.32-2.72,4.17-3.59,5.44-.35.5-.65.93-.9,1.28l-42.86,71.05-3.28,5.25c-1.37,7.56,3.17,11.47,3.17,11.47l48.35-79.41.11-16.68Z"/><path class="cls-4" d="m160.03,320.06c-1.96,3.3-4.14,6.96-6.47,10.81-3.87,6.41-7.48,12.23-10.32,16.7l-.11,16.67,17.29-28.4-.39-15.79Z"/><path class="cls-4" d="m168.52,305.41c-.19.34-.43.79-.73,1.32-.8,1.4-1.9,3.31-3.25,5.65-.34.59-.7,1.21-1.08,1.85l.02,4.4,7.48-.1,4.26-7c-2.09-.05-3.92-1.39-4.93-3.38-.36-.56-.67-1.2-.87-1.91,0-.02-.01-.05-.02-.07l-.88-.75Z"/><path class="cls-4" d="m163.37,314.39c-.77,1.31-1.6,2.73-2.49,4.23h2.49v-4.23Z"/><path class="cls-4" d="m160.33,318.62h-.08l-.24.39v.14c.11-.18.22-.35.32-.53m-17.08,28.12l-.83,1.37c.27-.43.54-.88.83-1.34v-.03Z"/><path class="cls-4" d="m160,319.01l-1.23,1.98-15.53,25.75v.03c2.72-4.43,6.15-10.05,9.86-16.19,2.48-4.1,4.82-7.98,6.91-11.44v-.14Z"/><path class="cls-4" d="m163.29,313.72l-3.04,4.9h.08c1.06-1.76,2.05-3.4,2.96-4.9"/><path class="cls-4" d="m92.75,428.28c-.14.35-.27.69-.38,1.02.12-.34.25-.68.38-1.02"/><path class="cls-4" d="m92.37,429.3c-.4,1.12-.72,2.18-.98,3.21l.21-.34c.17-.91.41-1.87.77-2.88"/><path class="cls-4" d="m143.36,328.8c-10.62,19.37-47.42,91.59-50.61,99.48-.13.35-.26.69-.38,1.02-.35,1.01-.6,1.97-.77,2.88l3.28-5.25,42.86-71.05c-.04.06-.08.12-.12.17-.23.32-.37.49-.39.49h0s.09-.2.3-.54c.24-.39.55-.89.93-1.51.85-1.37,2.02-3.24,3.44-5.53.17-.27.34-.54.51-.83l.83-1.37.12-17.94Z"/><path class="cls-4" d="m158.77,320.99s-10.15.31-12.67,3.12c-.31.34-1.27,2.01-2.75,4.7l-.12,17.94,15.53-25.75Z"/><path class="cls-4" d="m174.55,297.59c-1.17.19-2.23.79-3.08,1.66-.17.2-.34.43-.51.69-.91,1.35-1.7,3.7-1.02,6.13.7,2.42,2.61,4.01,4.09,4.68.85.4,1.56.56,2.02.65.11,0,.24-.02.38-.02.53-.02,1.14-.05,1.83-.08-1.87-.55-3.38-2.15-4.07-4.23-.24-.57-.42-1.2-.51-1.87-.31-2.48.71-4.66,1.74-5.84.51-.61,1.01-1.02,1.39-1.26.33-.21.54-.31.6-.31,0,0,.01,0,.01,0,.04.05-.27.25-.72.69.5-.35,1.04-.61,1.61-.77-.74-.02-1.41-.03-2.02-.05-.78-.02-1.37-.05-1.74-.08m-4.26,10.54c1.01,1.99,2.84,3.33,4.93,3.38.02,0,.04,0,.06,0-.4-.07-.88-.2-1.41-.41-1.16-.45-2.6-1.44-3.58-2.97"/><path class="cls-4" d="m179.78,297.71c-.08,0-.17,0-.25.02-.05,0-.11,0-.16,0-.2,0-.39,0-.58,0-.16,0-.32,0-.47-.01-.57.16-1.12.43-1.61.77-.29.27-.63.64-.98,1.12-.9,1.19-1.79,3.24-1.5,5.54.31,2.29,1.69,4.05,2.87,4.97.85.68,1.58,1.01,1.91,1.17.1,0,.19,0,.29-.01h.02s0,0,0,0c.15.02.31.03.47.03,1.22,0,2.67-.6,3.76-1.81,1.25-1.34,1.97-3.44,1.81-5.6-.17-2.54-1.65-4.75-3.48-5.64h-.02s-.03-.02-.03-.02c-.51-.25-1.03-.41-1.54-.47-.17-.02-.34-.04-.5-.04m-5.59,9.36c.69,2.09,2.21,3.68,4.07,4.23.1,0,.21,0,.32-.01-.02,0-.05-.01-.07-.02-.42-.14-1.01-.41-1.66-.86-.94-.65-2.02-1.8-2.66-3.34"/><path class="cls-4" d="m179.84,297.29c-.11,0-.22,0-.32.03-.03,0-.06,0-.1,0-.22.01-.43,0-.65.01-.93.02-1.76.03-2.49.05-1.38.04-2.17.08-2.17.13,0,.02.15.04.43.06.37.03.96.05,1.74.08.61.01,1.28.03,2.02.05.16,0,.31,0,.48.01.19,0,.38,0,.58,0,.05,0,.11,0,.17,0,.08-.02.17-.02.25-.02.17,0,.33.02.5.04.51.07,1.03.23,1.54.47h.03s.02.02.02.02c1.82.89,3.31,3.1,3.47,5.64.16,2.16-.55,4.26-1.81,5.6-1.08,1.21-2.54,1.81-3.76,1.81-.16,0-.32-.01-.47-.03h0s-.02,0-.02,0c-.1,0-.19,0-.29.01.13.07.2.11.19.13,0,0-.02.01-.04.01-.08,0-.28-.04-.56-.13-.11,0-.22,0-.32.01-.69.03-1.3.05-1.83.08-.14,0-.27.02-.38.02.36.07.56.09.56.14,0,.01-.04.03-.13.04.15,0,.3,0,.46,0,.68.01,1.47.02,2.38.04h-.03c.2.04.42.05.64.05,1.29,0,2.82-.61,3.97-1.86.61-.64,1.11-1.44,1.46-2.34-.14-.16-.21-.25-.21-.26t0,0s.09.07.23.21c0,0,0,0,0,0,.41-1.09.6-2.33.51-3.58-.18-2.72-1.8-5.1-3.82-6.03h-.02s-.03-.02-.03-.02c-.55-.26-1.13-.41-1.68-.47-.16-.01-.33-.03-.49-.03"/><path class="cls-4" d="m177.41,297.8c-.06,0-.27.1-.6.31-.37.24-.87.65-1.39,1.26-1.03,1.18-2.05,3.36-1.74,5.84.09.67.27,1.3.51,1.87.64,1.54,1.72,2.69,2.67,3.34.65.46,1.24.73,1.66.86.02,0,.05.02.07.02.28.09.48.13.56.13.03,0,.04,0,.04-.01.01-.03-.06-.07-.19-.13-.33-.17-1.06-.49-1.91-1.17-1.18-.92-2.56-2.68-2.87-4.97-.29-2.29.6-4.35,1.5-5.54.35-.48.7-.84.98-1.12.45-.43.76-.64.72-.69,0,0,0,0-.01,0"/><path class="cls-4" d="m172.73,297.92c-.05,0-.29.11-.64.36-.38.26-.87.7-1.36,1.34-.03.03-.05.07-.08.1-1.02,1.34-1.94,3.81-1.25,6.43,0,.02.01.05.02.07.21.71.51,1.35.87,1.91.99,1.53,2.42,2.53,3.58,2.97.53.21,1.01.34,1.41.41.22.04.41.06.58.07.12,0,.23.01.33.01.12,0,.22,0,.29-.01.08-.01.13-.02.13-.04,0-.05-.2-.07-.56-.14-.46-.09-1.17-.25-2.02-.65-1.48-.67-3.39-2.26-4.09-4.68-.68-2.43.12-4.79,1.02-6.13.17-.26.34-.49.5-.69.72-.89,1.33-1.27,1.28-1.33,0,0,0,0-.01,0"/><path class="cls-4" d="m163.46,313.43c-.03.05-.06.1-.09.15v.8c.03-.05.06-.11.09-.16v-.79Z"/><path class="cls-4" d="m168.9,304.64s-.52.75-1.29,1.98c-.84,1.38-1.99,3.26-3.4,5.56-.24.4-.5.82-.75,1.25v.79c.38-.64.74-1.26,1.08-1.85,1.35-2.34,2.45-4.25,3.25-5.65.3-.53.55-.98.73-1.32.27-.49.4-.76.38-.76,0,0,0,0,0,0,0,0,0,0,0,0"/><path class="cls-4" d="m163.37,313.58s-.05.09-.08.14c-.91,1.5-1.9,3.15-2.96,4.9h.55c.89-1.5,1.72-2.92,2.49-4.23v-.8Z"/><path class="cls-4" d="m160.88,318.62h-.55c-.11.17-.21.35-.32.53l.02.91c.29-.49.57-.97.85-1.44m-17.64,28.15c-.28.46-.56.91-.83,1.34-.17.28-.34.56-.51.83-1.43,2.29-2.59,4.16-3.44,5.53-.38.61-.69,1.11-.93,1.51-.21.35-.31.53-.3.54h0s.15-.17.39-.49c.04-.06.08-.11.12-.17.25-.35.54-.77.9-1.28.87-1.27,2.1-3.13,3.59-5.44.32-.51.66-1.03,1.01-1.58v-.79Z"/><path class="cls-4" d="m160.01,319.15c-2.09,3.46-4.43,7.34-6.91,11.44-3.71,6.14-7.13,11.76-9.86,16.19v.79c2.84-4.47,6.45-10.3,10.32-16.7,2.32-3.84,4.51-7.5,6.47-10.81l-.02-.91Z"/><path class="cls-4" d="m164.87,236.36h0s.01.22.08.63c.08.47.19,1.06.33,1.79.29,1.55.76,3.79,1.37,6.54,1.21,5.51,3.03,13.09,5.12,21.43,2.09,8.35,3.98,15.91,5.28,21.39.59,2.5,1.08,4.58,1.45,6.15h.23c-.01-.07-.03-.14-.04-.21-.3-1.51-.73-3.56-1.27-6.03-.46-2.1-1.01-4.5-1.63-7.13-1.01-4.27-2.2-9.14-3.49-14.31-1.2-4.8-2.34-9.34-3.33-13.37-.73-2.98-1.39-5.68-1.94-8.02-.04-.16-.07-.31-.11-.47-.58-2.48-1.06-4.52-1.42-6.03-.18-.72-.32-1.31-.43-1.76-.1-.4-.17-.6-.19-.61"/><path class="cls-4" d="m178.72,294.29h-.23c.03.12.06.24.08.35.18.72.32,1.3.43,1.76.1.4.17.61.19.61h0s-.01-.22-.08-.63c-.09-.47-.2-1.06-.33-1.79-.02-.1-.04-.2-.06-.31"/><path class="cls-4" d="m186.15,308.2v.16c4.78,5.19,25.92,27.55,51.35,54.29,28.96,30.44,52.53,55.05,52.74,55.05h0c.11-.1-23.33-24.92-52.35-55.42-25.58-26.89-46.95-49.23-51.74-54.08"/><path class="cls-4" d="m185.15,307.22h0s.06.09.21.26c.17.19.44.49.8.88v-.16c-.27-.27-.48-.48-.64-.64-.05-.05-.1-.1-.14-.14-.14-.14-.22-.21-.23-.21"/><polygon class="cls-4" points="368.24 308.25 367 494.02 377.59 494.02 373.02 308.25 368.24 308.25"/><path class="cls-4" d="m374.07,303.61h5.5c.56,0,1.01.48,1.04,1.09l.21,4.75c.03.65-.44,1.2-1.03,1.2l-5.69.08-.03-7.13Z"/><path class="cls-4" d="m379.56,303.61h-1l.2.89s.02,0,.03,0c.03,0,.06,0,.09,0,.05,0,.1,0,.14,0,.16.02.33.06.49.14h0s0,0,0,0c.59.27,1.07.97,1.12,1.77.03.37-.03.73-.15,1.05l.04.04s.11.11.19.19l-.14-2.98c-.03-.61-.49-1.09-1.04-1.09m-3.71,0h-1.79l.03,5.61c.08-.13.15-.25.22-.37.41-.68.75-1.23.99-1.63.22-.36.36-.58.38-.58t0,0h0s-.03.08-.11.22l.26.22c-.2-.77.07-1.49.37-1.88,0-.01.01-.02.02-.03l-.37-1.56Zm1.69,5.05l-1.25,2.05,3.5-.05s.04,0,.06,0c-.72-.77-1.13-1.23-1.12-1.24h0l-.69-.74s-.09,0-.13,0c-.02,0-.05,0-.09,0-.03,0-.06,0-.1,0-.05,0-.11,0-.17-.02h-.02"/><path class="cls-4" d="m362.19,305v4.93c0,.45.37.82.82.82h11.06v-7.13l-11.1.57c-.43.02-.78.38-.78.82"/><path class="cls-4" d="m372.99,307.15c-1.08,0-2.85.02-4.87.06-3.28.06-5.94.15-5.94.19,0,.02.4.02,1.07.02,1.07,0,2.85-.02,4.87-.06,3.28-.06,5.94-.15,5.94-.19,0-.02-.4-.02-1.07-.02"/><path class="cls-4" d="m380.52,307.46h0s.02.03.04.04l-.04-.04Z"/><path class="cls-4" d="m380.74,307.73l.08,1.72s0,.04,0,.06c0,.56-.37,1.03-.86,1.13,1.17,1.2,3.07,3.17,5.2,5.41,3.52,3.69,6.35,6.71,6.32,6.74l15.02,15.67,1.23,1.33c.67.32,1.27.42,1.79.42,1.05,0,1.7-.45,1.7-.45-.06,0-6.97-7.21-15.45-16.13-7.45-7.83-13.64-14.38-15.04-15.9"/><path class="cls-4" d="m380.51,307.48c-.1.26-.25.5-.43.69-.34.37-.79.54-1.16.54-.06,0-.13,0-.19-.02h0c-.27,0-.5,0-.7-.01l.69.74h0s.48.45,1.23,1.22c.49-.1.86-.57.86-1.13,0-.02,0-.04,0-.06l-.08-1.72c-.11-.12-.19-.2-.23-.26"/><path class="cls-4" d="m381.1,314.86c0,.51.06.97.25,1.26.6.92,23.12,21.33,25.39,23.05.09.07.19.14.28.2-.09-.06-.18-.13-.28-.2-2.26-1.71-24.79-22.12-25.39-23.05-.18-.28-.25-.75-.25-1.26"/><path class="cls-4" d="m407.01,339.36c.28.19.55.36.82.51l-.08-.09c-.24-.11-.48-.25-.74-.42"/><path class="cls-4" d="m381.42,312.33c-.05.21-.32,1.47-.32,2.53,0,.51.06.97.25,1.26.6.93,23.12,21.33,25.39,23.05.09.07.19.13.28.2.25.17.5.31.74.42l-1.24-1.33-15.02-15.67c-.06,0-2.93-2.96-6.43-6.63-1.35-1.42-2.61-2.74-3.63-3.83"/><path class="cls-4" d="m379.96,310.64s-.07.01-.11.02c.43.46.96,1.02,1.57,1.67,1.03,1.09,2.28,2.41,3.63,3.83,3.5,3.67,6.37,6.63,6.43,6.63.03-.03-2.8-3.05-6.32-6.74-2.13-2.24-4.03-4.21-5.2-5.41"/><path class="cls-4" d="m378.74,309.42h0s.4.47,1.12,1.24c.04,0,.08,0,.11-.02-.75-.77-1.21-1.22-1.23-1.22"/><path class="cls-4" d="m365.79,261s-.07,0-.07,0l10.13,42.61h2.65c-.11-.46-.25-1.07-.42-1.8-.38-1.61-.93-3.82-1.55-6.27-.61-2.44-1.15-4.66-1.5-6.28-.18-.81-.31-1.46-.4-1.92-.04-.21-.07-.39-.1-.52-.02-.12-.03-.18-.02-.18l-5.36-22.14-.4-1.77c-1.13-1.64-2.63-1.74-2.96-1.74m12.77,42.55s0,.04.01.06h0v-.06Z"/><path class="cls-4" d="m378.57,303.61h0s.01.06.02.09c.04.21.07.39.1.52.02.12.03.18.02.18h0s-.02-.06-.05-.18c-.03-.13-.07-.31-.13-.52,0-.03-.02-.07-.02-.1h-2.65l.37,1.56c.14-.19.29-.32.4-.39.1-.07.17-.11.19-.11,0,0,0,0,0,0,.02.02-.16.13-.37.39.25-.26.56-.43.9-.49-.08,0-.13-.01-.13-.02,0-.02.23-.03.64-.04.21,0,.46,0,.73-.01.06,0,.12,0,.19,0l-.2-.89Z"/><path class="cls-4" d="m369.18,263.5c.04.09.09.19.13.29-.04-.1-.08-.19-.13-.29m5.92,25.6s.02.09.03.14c.16.68.35,1.47.57,2.35l-.6-2.49Z"/><path class="cls-4" d="m368.72,262.62l.03.11c.15.22.3.48.44.76-.15-.32-.3-.61-.46-.88"/><path class="cls-4" d="m368.74,262.74l.4,1.77,5.36,22.14s.02.06.05.18c.03.13.07.31.13.52.1.44.25,1.04.42,1.77l.6,2.49c.29,1.18.62,2.51.98,3.92.38,1.51.73,2.94,1.02,4.19.24-.26,1.97-2.16,1.97-3.19,0-.01,0-.03,0-.04-.06-1.1-9.27-30.06-10.36-32.68-.04-.1-.08-.19-.13-.29-.14-.29-.28-.54-.44-.76"/><path class="cls-4" d="m374.09,309.45s-.02.03-.03.05v1.24h-.73c-.08.14-.16.28-.25.42l.11,4.62,3.09-5.08-2.19.03v-1.29Zm-5.93,9.77c-.1.16-.2.31-.3.46-.44.68-.8,1.22-1.05,1.6-.1.15-.19.27-.26.38l-12.56,20.81-.96,1.54c-.4,2.21.93,3.36.93,3.36l14.16-23.26.03-4.89Z"/><path class="cls-4" d="m373.09,311.16c-.57.97-1.21,2.04-1.9,3.17-1.13,1.88-2.19,3.58-3.02,4.89l-.03,4.89,5.06-8.32-.11-4.62Z"/><path class="cls-4" d="m375.58,306.87c-.05.1-.13.23-.21.39-.24.41-.56.97-.95,1.66-.1.17-.21.35-.32.54v1.29s2.2-.03,2.2-.03l1.25-2.05c-.61-.02-1.15-.41-1.45-.99-.11-.17-.2-.35-.26-.56,0,0,0-.01,0-.02l-.26-.22Z"/><path class="cls-4" d="m374.07,309.5c-.23.38-.47.8-.73,1.24h.73v-1.24Z"/><path class="cls-4" d="m373.18,310.74h-.02l-.07.12v.04c.03-.05.06-.1.1-.16m-5.01,8.24l-.24.4c.08-.13.16-.26.24-.39h0Z"/><path class="cls-4" d="m373.08,310.85l-.36.58-4.55,7.54h0c.8-1.29,1.8-2.94,2.89-4.73.72-1.2,1.41-2.34,2.02-3.35v-.04Z"/><path class="cls-4" d="m374.04,309.3l-.89,1.44h.02c.31-.51.6-.99.87-1.44"/><path class="cls-4" d="m353.38,342.86c-.04.1-.08.2-.11.3.04-.1.07-.2.11-.3"/><path class="cls-4" d="m353.27,343.16c-.12.33-.21.64-.29.94l.06-.1c.05-.27.12-.55.22-.84"/><path class="cls-4" d="m368.21,313.72c-3.11,5.67-13.89,26.83-14.83,29.14-.04.1-.08.2-.11.3-.1.3-.18.58-.22.84l.96-1.54,12.56-20.81s-.02.03-.03.05c-.07.09-.11.14-.11.14h0s.03-.06.09-.16c.07-.12.16-.26.27-.44.25-.4.59-.95,1.01-1.62.05-.08.1-.16.15-.24l.24-.4.04-5.26Z"/><path class="cls-4" d="m372.72,311.43s-2.98.09-3.71.91c-.09.1-.37.59-.8,1.38l-.04,5.25,4.55-7.54Z"/><path class="cls-4" d="m377.34,304.58c-.34.06-.65.23-.9.49-.05.06-.1.13-.15.2-.27.39-.5,1.08-.3,1.8.21.71.77,1.18,1.2,1.37.25.12.46.17.59.19.03,0,.07,0,.11,0,.16,0,.33-.01.54-.02-.55-.16-.99-.63-1.19-1.24-.07-.17-.12-.35-.15-.55-.09-.73.21-1.36.51-1.71.15-.18.3-.3.41-.37.1-.06.16-.09.18-.09,0,0,0,0,0,0,.01.01-.08.07-.21.2.14-.1.3-.18.47-.23-.22,0-.41-.01-.59-.01-.23,0-.4-.02-.51-.02m-1.25,3.09c.3.58.83.98,1.45.99h.02c-.12-.02-.26-.06-.41-.12-.34-.13-.76-.42-1.05-.87"/><path class="cls-4" d="m378.88,304.62s-.05,0-.07,0c-.02,0-.03,0-.05,0-.06,0-.11,0-.17,0-.05,0-.09,0-.14,0-.17.05-.33.12-.47.23-.08.08-.18.19-.29.33-.26.35-.52.95-.44,1.62.09.67.5,1.19.84,1.46.25.2.46.29.56.34.03,0,.06,0,.09,0h0s0,0,0,0c.05,0,.09,0,.14,0,.36,0,.78-.17,1.1-.53.37-.39.58-1.01.53-1.64-.05-.75-.49-1.39-1.02-1.65h0s0,0,0,0c-.15-.07-.3-.12-.45-.14-.05,0-.1-.01-.15-.01m-1.64,2.74c.2.61.65,1.08,1.19,1.24.03,0,.06,0,.09,0,0,0-.01,0-.02,0-.12-.04-.29-.12-.49-.25-.28-.19-.59-.53-.78-.98"/><path class="cls-4" d="m378.89,304.49s-.06,0-.09,0c0,0-.02,0-.03,0-.06,0-.13,0-.19,0-.27,0-.51.01-.73.01-.4.01-.64.02-.64.04,0,0,.04.01.13.02.11,0,.28.02.51.02.18,0,.38,0,.59.01.05,0,.09,0,.14,0,.05,0,.11,0,.17,0h.05s.05,0,.07,0c.05,0,.1,0,.15.01.15.02.3.07.45.14h0s0,0,0,0c.53.26.97.91,1.02,1.65.05.63-.16,1.25-.53,1.64-.32.36-.74.53-1.1.53-.05,0-.09,0-.14,0h0s0,0,0,0c-.03,0-.06,0-.09,0,.04.02.06.03.06.04,0,0,0,0-.01,0-.02,0-.08-.01-.16-.04-.03,0-.06,0-.09,0-.2,0-.38.02-.54.02-.04,0-.08,0-.11,0,.1.02.17.03.16.04,0,0-.01,0-.04.01.04,0,.09,0,.13,0,.2,0,.43,0,.7.01h0c.06.01.12.02.19.02.38,0,.83-.18,1.16-.54.18-.19.33-.42.43-.69-.04-.05-.06-.07-.06-.08,0,0,.03.02.07.06,0,0,0,0,0,0,.12-.32.18-.68.15-1.05-.05-.8-.53-1.5-1.12-1.77h0s0,0,0,0c-.16-.08-.33-.12-.49-.14-.05,0-.1,0-.14,0"/><path class="cls-4" d="m378.18,304.64s-.08.03-.18.09c-.11.07-.25.19-.41.37-.3.35-.6.98-.51,1.71.03.2.08.38.15.55.19.45.5.79.78.98.19.13.36.21.49.25,0,0,.01,0,.02,0,.08.03.14.04.17.04,0,0,.01,0,.01,0,0,0-.02-.02-.06-.04-.1-.05-.31-.14-.56-.34-.35-.27-.75-.79-.84-1.46-.09-.67.17-1.27.44-1.62.1-.14.2-.25.29-.33.13-.13.22-.19.21-.2,0,0,0,0,0,0"/><path class="cls-4" d="m376.81,304.67s-.08.03-.19.11c-.11.08-.25.21-.4.39,0,.01-.02.02-.02.03-.3.39-.57,1.12-.37,1.88,0,0,0,.01,0,.02.06.21.15.39.26.56.29.45.71.74,1.05.87.16.06.29.1.41.12.06.01.12.02.17.02.04,0,.07,0,.1,0,.04,0,.06,0,.08,0,.02,0,.04,0,.04-.01,0-.01-.06-.02-.16-.04-.13-.03-.34-.08-.59-.19-.43-.2-.99-.66-1.2-1.37-.2-.71.03-1.4.3-1.8.05-.08.1-.14.15-.2.21-.26.39-.37.37-.39,0,0,0,0,0,0"/><path class="cls-4" d="m374.09,309.22s-.02.03-.03.04v.24s.02-.03.03-.05v-.23Z"/><path class="cls-4" d="m375.69,306.64s-.15.22-.38.58c-.25.4-.58.95-.99,1.63-.07.12-.15.24-.22.37v.23c.11-.19.22-.37.32-.54.39-.69.72-1.25.95-1.66.09-.16.16-.29.21-.39.08-.14.12-.22.11-.22,0,0,0,0,0,0,0,0,0,0,0,0"/><path class="cls-4" d="m374.07,309.26s-.02.03-.02.04c-.27.44-.56.92-.87,1.44h.16c.26-.44.5-.86.73-1.24v-.24Z"/><path class="cls-4" d="m373.34,310.74h-.16c-.03.05-.06.1-.09.16v.27c.09-.14.17-.28.26-.42m-5.17,8.25c-.08.14-.16.27-.24.39-.05.08-.1.16-.15.24-.42.67-.76,1.22-1.01,1.62-.11.18-.2.33-.27.44-.06.1-.09.16-.09.16h0s.05-.05.11-.14c.01-.02.02-.03.03-.05.07-.1.16-.23.26-.38.25-.37.62-.92,1.05-1.6.1-.15.19-.3.3-.46v-.23Z"/><path class="cls-4" d="m373.08,310.89c-.61,1.01-1.3,2.15-2.02,3.35-1.09,1.8-2.09,3.45-2.89,4.74v.23c.83-1.31,1.89-3.02,3.02-4.89.68-1.13,1.32-2.2,1.9-3.17v-.27Z"/><path class="cls-4" d="m374.51,286.64h0s0,.06.02.19c.02.14.06.31.1.52.09.45.22,1.11.4,1.92.35,1.61.89,3.83,1.5,6.28.61,2.45,1.17,4.66,1.55,6.27.17.73.32,1.34.42,1.8h.07s0-.04-.01-.06c-.09-.44-.21-1.04-.37-1.76-.13-.62-.29-1.32-.48-2.09-.29-1.25-.64-2.68-1.02-4.19-.35-1.41-.69-2.74-.98-3.92-.21-.87-.41-1.66-.57-2.35-.01-.05-.02-.09-.03-.14-.17-.73-.31-1.32-.42-1.77-.05-.21-.09-.38-.13-.52-.03-.12-.05-.18-.05-.18Z"/><path class="cls-4" d="m378.57,303.61h-.07s.02.07.02.1c.05.21.09.38.13.52.03.12.05.18.05.18,0,0,0-.06-.02-.18-.02-.14-.06-.31-.1-.52,0-.03-.01-.06-.02-.09"/><path class="cls-4" d="m380.74,307.69v.05c1.4,1.52,7.59,8.07,15.04,15.9,8.48,8.92,15.39,16.13,15.45,16.13h0s-6.84-7.3-15.34-16.24c-7.49-7.88-13.76-14.42-15.16-15.84"/><path class="cls-4" d="m380.45,307.4h0s.02.03.06.08c.05.06.13.14.23.26v-.05c-.08-.08-.14-.14-.19-.19-.02-.01-.03-.03-.04-.04-.04-.04-.06-.06-.07-.06"/><polygon class="cls-4" points="225.22 546.3 223.17 852.81 240.65 852.81 233.1 546.3 225.22 546.3"/><path class="cls-4" d="m234.83,538.64h9.07c.92,0,1.67.79,1.72,1.8l.35,7.84c.05,1.07-.72,1.97-1.7,1.99l-9.39.13-.06-11.76Z"/><path class="cls-4" d="m243.9,538.64h-1.64l.34,1.47s.03,0,.05,0c.05,0,.1-.01.15-.01.08,0,.16,0,.24.01.27.03.55.1.81.23h.01s0,0,0,0c.98.45,1.76,1.6,1.85,2.91.05.6-.05,1.2-.24,1.73l.06.07c.08.08.18.18.31.31l-.22-4.93c-.05-1.01-.8-1.8-1.72-1.8m-6.12,0h-2.95l.05,9.25c.12-.21.25-.41.36-.6.68-1.11,1.24-2.02,1.64-2.69.37-.59.6-.96.62-.96,0,0,0,0,0,0,0,0,0,0,0,0,.01,0-.06.13-.18.37l.43.36c-.34-1.26.11-2.46.6-3.11.01-.02.03-.03.04-.05l-.61-2.58Zm2.79,8.32l-2.06,3.38,5.77-.08s.07,0,.1,0c-1.18-1.27-1.86-2.02-1.84-2.04l-1.14-1.22c-.08,0-.15,0-.22,0-.03,0-.08,0-.14,0-.05,0-.1,0-.16,0-.08,0-.18-.01-.28-.03,0,0-.02,0-.03,0"/><path class="cls-4" d="m215.23,540.93v8.13c0,.75.6,1.35,1.35,1.35h18.25v-11.76l-18.32.93c-.72.04-1.28.63-1.28,1.35"/><path class="cls-4" d="m233.06,544.48c-1.77,0-4.71.03-8.03.1-5.41.1-9.8.24-9.8.31,0,.03.65.04,1.77.04,1.77,0,4.71-.03,8.03-.1,5.41-.1,9.8-.24,9.8-.32,0-.03-.66-.04-1.77-.04"/><path class="cls-4" d="m245.47,544.99s0,0,0,0c.02.02.04.04.07.07l-.06-.07Z"/><path class="cls-4" d="m245.85,545.44l.13,2.84s0,.07,0,.1c0,.92-.61,1.7-1.42,1.86,1.93,1.98,5.06,5.23,8.58,8.92,5.81,6.09,10.48,11.07,10.43,11.12l24.79,25.86,2.04,2.19c1.1.52,2.1.7,2.94.7,1.73,0,2.81-.73,2.81-.73-.1,0-11.49-11.9-25.49-26.61-12.29-12.93-22.51-23.73-24.82-26.24"/><path class="cls-4" d="m245.46,545.02c-.17.43-.41.82-.71,1.13-.55.6-1.3.9-1.92.9-.11,0-.21,0-.31-.03h.01c-.44,0-.82-.01-1.15-.02l1.14,1.22h0s.79.75,2.03,2.02c.81-.16,1.41-.94,1.42-1.86,0-.03,0-.07,0-.1l-.13-2.84c-.17-.19-.3-.33-.39-.43"/><path class="cls-4" d="m246.43,557.21c0,.84.1,1.61.41,2.07.99,1.53,38.16,35.2,41.89,38.03.15.12.31.23.46.33-.15-.1-.3-.21-.46-.33-3.73-2.83-40.9-36.5-41.89-38.03-.3-.46-.41-1.23-.41-2.07"/><path class="cls-4" d="m289.19,597.63c.46.32.91.6,1.35.84l-.13-.14c-.39-.19-.8-.42-1.22-.7"/><path class="cls-4" d="m246.97,553.03c-.08.35-.54,2.43-.54,4.18,0,.84.1,1.61.41,2.07.99,1.53,38.15,35.2,41.89,38.03.15.11.31.22.46.33.42.28.82.51,1.22.7l-2.04-2.19-24.79-25.86h0c-.1,0-4.83-4.88-10.61-10.94-2.23-2.34-4.3-4.52-5.99-6.32"/><path class="cls-4" d="m244.56,550.24c-.06.01-.12.02-.18.02.7.75,1.58,1.69,2.59,2.76,1.69,1.8,3.76,3.97,5.99,6.32,5.78,6.06,10.52,10.94,10.61,10.94h0c.05-.05-4.61-5.03-10.43-11.12-3.52-3.69-6.65-6.94-8.58-8.92"/><path class="cls-4" d="m242.54,548.23h0s.66.77,1.84,2.04c.06,0,.12-.01.18-.02-1.24-1.27-1.99-2.02-2.03-2.02"/><path class="cls-4" d="m221.17,468.33c-.07,0-.11,0-.11,0l16.72,70.31h4.37c-.18-.76-.42-1.76-.7-2.97-.63-2.65-1.54-6.3-2.55-10.34-1.01-4.03-1.89-7.7-2.48-10.36-.29-1.33-.52-2.41-.66-3.16-.07-.35-.12-.64-.16-.86-.03-.2-.05-.3-.04-.31l-8.85-36.52-.66-2.92c-1.86-2.71-4.33-2.86-4.88-2.86m21.07,70.21s.01.07.02.1h0l-.02-.1Z"/><path class="cls-4" d="m242.26,538.64h0c0,.05.02.1.03.15.07.35.12.64.16.86.03.2.05.3.04.3,0,0-.04-.1-.09-.29-.05-.22-.12-.51-.21-.85-.01-.06-.03-.11-.04-.17h-4.37l.61,2.58c.24-.31.48-.52.66-.65.17-.12.29-.18.31-.18,0,0,0,0,0,0,.02.03-.27.21-.62.64.41-.42.92-.71,1.49-.8-.14-.01-.21-.02-.21-.03,0-.02.38-.05,1.05-.06.35,0,.75-.02,1.2-.02.1,0,.21,0,.31,0l-.34-1.47Z"/><path class="cls-4" d="m226.77,472.46c.07.15.14.31.21.47-.07-.16-.14-.32-.21-.47m9.77,42.25c.02.08.03.15.05.23.27,1.13.58,2.43.94,3.87l-.99-4.1Z"/><path class="cls-4" d="m226.01,471.01l.04.19c.25.37.49.79.72,1.26-.24-.52-.5-1-.76-1.45"/><path class="cls-4" d="m226.05,471.2l.66,2.92,8.85,36.52s.04.1.09.29c.05.22.12.51.21.85.17.73.4,1.72.69,2.91l.99,4.1c.48,1.95,1.03,4.15,1.61,6.46.63,2.5,1.2,4.85,1.69,6.92.4-.43,3.25-3.56,3.25-5.27,0-.02,0-.04,0-.06-.09-1.82-15.29-49.61-17.1-53.93-.07-.16-.14-.32-.21-.47-.22-.47-.47-.89-.72-1.26"/><path class="cls-4" d="m234.88,548.28s-.03.05-.05.08v2.05h-1.2c-.13.23-.27.46-.41.69l.19,7.63,5.1-8.38-3.62.05v-2.13Zm-9.78,16.12c-.17.27-.33.52-.49.76-.72,1.12-1.31,2.02-1.74,2.63-.17.24-.31.45-.43.62l-20.72,34.34-1.58,2.54c-.66,3.65,1.54,5.54,1.54,5.54l23.37-38.38.05-8.06Z"/><path class="cls-4" d="m233.22,551.1c-.95,1.6-2,3.37-3.13,5.22-1.87,3.1-3.61,5.91-4.99,8.07l-.05,8.06,8.36-13.73-.19-7.63Z"/><path class="cls-4" d="m237.32,544.02c-.09.17-.21.38-.35.64-.39.68-.92,1.6-1.57,2.73-.17.28-.34.58-.52.89v2.13s3.63-.05,3.63-.05l2.06-3.38c-1.01-.03-1.9-.67-2.39-1.63-.18-.27-.32-.58-.42-.92,0-.01,0-.02,0-.03l-.43-.36Z"/><path class="cls-4" d="m234.83,548.36c-.37.64-.77,1.32-1.2,2.05h1.2v-2.05Z"/><path class="cls-4" d="m233.36,550.4h-.04l-.12.19v.07c.05-.09.1-.17.16-.26m-8.26,13.59l-.4.66c.13-.21.26-.43.4-.65h0Z"/><path class="cls-4" d="m233.2,550.59l-.59.96-7.51,12.45h0c1.32-2.12,2.97-4.84,4.76-7.81,1.2-1.98,2.33-3.86,3.34-5.53v-.07Z"/><path class="cls-4" d="m234.79,548.03l-1.47,2.37h.04c.51-.85.99-1.64,1.43-2.37"/><path class="cls-4" d="m200.7,603.41c-.07.17-.13.33-.19.49.06-.16.12-.33.19-.49"/><path class="cls-4" d="m200.51,603.9c-.19.54-.35,1.06-.47,1.55l.1-.16c.08-.44.2-.9.37-1.39"/><path class="cls-4" d="m225.16,555.33c-5.13,9.36-22.92,44.27-24.46,48.08-.07.17-.13.33-.19.49-.17.49-.29.95-.37,1.39l1.58-2.54,20.72-34.34s-.04.06-.06.08c-.11.15-.18.23-.19.23h0s.04-.1.14-.26c.12-.19.27-.43.45-.73.41-.66.98-1.57,1.66-2.67.08-.13.16-.26.25-.4l.4-.66.06-8.67Z"/><path class="cls-4" d="m232.61,551.55s-4.91.15-6.12,1.51c-.15.16-.62.97-1.33,2.27l-.06,8.67,7.51-12.45Z"/><path class="cls-4" d="m240.24,540.24c-.57.09-1.08.38-1.49.8-.08.1-.16.21-.24.33-.44.65-.82,1.79-.49,2.97.34,1.17,1.26,1.94,1.98,2.26.41.19.76.27.98.31.05,0,.12,0,.18-.01.26-.01.55-.02.89-.04-.9-.27-1.64-1.04-1.97-2.05-.12-.28-.2-.58-.25-.9-.15-1.2.34-2.25.84-2.82.25-.29.49-.49.67-.61.16-.1.26-.15.29-.15,0,0,0,0,0,0,.02.02-.13.12-.35.33.24-.17.5-.29.78-.37-.36,0-.68-.02-.98-.02-.38-.01-.66-.02-.84-.04m-2.06,5.1c.49.96,1.37,1.61,2.39,1.63,0,0,.02,0,.03,0-.2-.03-.43-.1-.68-.2-.56-.22-1.25-.7-1.73-1.44"/><path class="cls-4" d="m242.77,540.3s-.08,0-.12.01c-.03,0-.05,0-.08,0-.1,0-.19,0-.28,0-.08,0-.16,0-.23,0-.28.08-.54.21-.78.37-.14.13-.31.31-.48.54-.44.57-.87,1.57-.73,2.68.15,1.11.82,1.96,1.39,2.4.41.33.76.49.93.57.05,0,.09,0,.14,0h.01c.07.01.15.02.23.02.59,0,1.29-.29,1.82-.88.61-.65.95-1.66.87-2.71-.08-1.23-.8-2.3-1.68-2.73h0s-.01,0-.01,0c-.25-.12-.5-.2-.75-.23-.08,0-.16-.02-.24-.02m-2.7,4.53c.34,1.01,1.07,1.78,1.97,2.05.05,0,.1,0,.15,0-.01,0-.02,0-.03-.01-.2-.07-.49-.2-.8-.42-.46-.31-.98-.87-1.29-1.61"/><path class="cls-4" d="m242.79,540.1c-.05,0-.1,0-.15.01-.02,0-.03,0-.05,0-.11,0-.21,0-.31,0-.45,0-.85.02-1.2.02-.67.02-1.05.04-1.05.06,0,.01.07.02.21.03.18.01.46.03.84.04.29,0,.62.02.98.02.08,0,.15,0,.23,0,.09,0,.18,0,.28,0,.03,0,.05,0,.08,0,.04,0,.08,0,.12,0,.08,0,.16.01.24.02.25.03.5.11.75.23h.01s0,0,0,0c.88.43,1.6,1.5,1.68,2.73.08,1.04-.27,2.06-.87,2.71-.52.59-1.23.88-1.82.88-.08,0-.15,0-.23-.01h0s0,0,0,0c-.05,0-.09,0-.14,0,.06.03.1.05.09.06,0,0,0,0-.02,0-.04,0-.13-.02-.27-.06-.05,0-.1,0-.16,0-.34.01-.63.03-.89.04-.07,0-.13,0-.18.01.17.03.27.04.27.07,0,0-.02.01-.06.02.07,0,.14,0,.22,0,.33,0,.71.01,1.15.02h-.01c.1.02.2.03.31.03.62,0,1.37-.29,1.92-.9.3-.31.54-.7.71-1.13-.07-.08-.1-.12-.1-.12h0s.04.03.11.1c0,0,0,0,0,0,.2-.53.29-1.12.24-1.73-.09-1.31-.87-2.47-1.85-2.91h0s-.01,0-.01,0c-.27-.12-.54-.2-.81-.23-.08,0-.16-.01-.24-.01"/><path class="cls-4" d="m241.62,540.34s-.13.05-.29.15c-.18.12-.42.31-.67.61-.5.57-.99,1.62-.84,2.82.04.32.13.63.25.9.31.74.83,1.3,1.29,1.61.32.22.6.35.8.42.01,0,.02,0,.03.01.14.04.23.06.27.06.01,0,.02,0,.02,0,0-.01-.03-.03-.09-.06-.16-.08-.51-.24-.93-.57-.57-.45-1.24-1.29-1.39-2.4-.14-1.11.29-2.1.73-2.68.17-.23.34-.41.47-.54.22-.21.37-.31.35-.33,0,0,0,0,0,0"/><path class="cls-4" d="m239.36,540.39s-.14.05-.31.18c-.18.13-.42.34-.66.65-.01.02-.03.03-.04.05-.5.65-.94,1.84-.6,3.11,0,.01,0,.02,0,.03.1.34.25.65.42.92.48.74,1.17,1.22,1.73,1.44.25.1.49.16.68.2.1.02.2.03.28.03.06,0,.11,0,.16,0,.06,0,.11,0,.14,0,.04,0,.06-.01.06-.02,0-.02-.1-.03-.27-.07-.22-.04-.57-.12-.98-.31-.71-.32-1.64-1.09-1.98-2.26-.33-1.18.06-2.31.49-2.97.08-.12.16-.24.24-.33.35-.43.64-.61.62-.64,0,0,0,0,0,0"/><path class="cls-4" d="m234.88,547.9s-.03.05-.04.07v.39s.03-.05.05-.08v-.38Z"/><path class="cls-4" d="m237.5,543.65s-.25.36-.62.96c-.41.66-.96,1.58-1.64,2.69-.12.2-.24.4-.36.6v.38c.18-.31.36-.61.52-.89.65-1.13,1.18-2.06,1.57-2.73.14-.26.26-.47.35-.64.13-.24.19-.37.18-.37,0,0,0,0,0,0,0,0,0,0,0,0"/><path class="cls-4" d="m234.83,547.97s-.03.04-.04.07c-.44.73-.92,1.52-1.43,2.37h.27c.43-.73.83-1.41,1.2-2.05v-.39Z"/><path class="cls-4" d="m233.63,550.4h-.27c-.05.09-.1.17-.16.26v.44c.15-.24.29-.47.42-.69m-8.52,13.61c-.14.22-.27.44-.4.65-.08.14-.17.27-.25.4-.69,1.11-1.25,2.01-1.66,2.67-.18.3-.33.54-.45.73-.1.17-.15.26-.14.26t0,0s.07-.08.19-.23c.02-.03.04-.05.06-.08.12-.17.26-.37.43-.62.42-.61,1.02-1.51,1.74-2.63.16-.24.32-.5.49-.76v-.38Z"/><path class="cls-4" d="m233.21,550.66c-1.01,1.67-2.14,3.55-3.34,5.53-1.79,2.97-3.45,5.68-4.76,7.82v.38c1.37-2.16,3.12-4.98,4.99-8.07,1.12-1.86,2.18-3.63,3.13-5.22v-.44Z"/><path class="cls-4" d="m235.56,510.64h0s0,.11.04.31c.04.23.09.51.16.86.14.75.37,1.83.66,3.16.58,2.67,1.47,6.33,2.48,10.36,1.01,4.04,1.92,7.69,2.55,10.34.28,1.21.52,2.21.7,2.97h.11s-.01-.07-.02-.1c-.14-.73-.35-1.72-.61-2.91-.22-1.02-.49-2.18-.79-3.45-.49-2.06-1.06-4.42-1.69-6.92-.58-2.32-1.13-4.51-1.61-6.46-.35-1.44-.67-2.75-.94-3.87-.02-.08-.04-.15-.05-.23-.28-1.2-.51-2.19-.69-2.91-.08-.35-.15-.63-.21-.85-.05-.19-.08-.29-.09-.29Z"/><path class="cls-4" d="m242.25,538.64h-.11c.01.06.03.12.04.17.09.35.15.63.21.85.05.19.08.29.09.29,0,0,0-.11-.04-.3-.04-.23-.09-.51-.16-.86,0-.05-.02-.1-.03-.15"/><path class="cls-4" d="m245.84,545.37v.08c2.31,2.51,12.53,13.32,24.82,26.24,14,14.71,25.39,26.61,25.49,26.61h0c.05-.05-11.28-12.04-25.3-26.79-12.37-13-22.7-23.79-25.01-26.14"/><path class="cls-4" d="m245.36,544.89h0s.03.05.1.12c.08.09.21.23.39.43v-.08c-.13-.13-.23-.23-.31-.31-.03-.02-.05-.05-.07-.06-.07-.07-.1-.1-.11-.1"/><line class="cls-8" y1="492.61" x2="413.18" y2="492.61"/><line class="cls-8" y1="852.3" x2="337.43" y2="852.3"/><path class="cls-2" d="m310.92,452.43c-4.79,2.67-10.83.96-13.5-3.83-2.67-4.79-.96-10.83,3.83-13.5,4.79-2.67,10.83-.96,13.5,3.83,2.67,4.79.95,10.83-3.83,13.5"/><path class="cls-2" d="m191.8,180.49c-7.73,4.55-17.49,1.63-21.8-6.52-4.31-8.15-1.54-18.44,6.18-22.99,7.73-4.55,17.48-1.63,21.8,6.52,4.31,8.15,1.54,18.44-6.18,22.99"/><path class="cls-2" d="m837.32,294.89c-4.79,2.67-10.83.96-13.5-3.83-2.67-4.79-.96-10.83,3.83-13.5,4.79-2.67,10.83-.96,13.5,3.83,2.67,4.79.95,10.83-3.83,13.5"/><path class="cls-2" d="m673.16,429.75c-4.79,2.67-10.83.96-13.5-3.83-2.67-4.79-.96-10.83,3.83-13.5,4.79-2.67,10.83-.96,13.5,3.83,2.67,4.79.95,10.83-3.83,13.5"/><path class="cls-2" d="m450.1,504.93c-4.79,2.67-10.83.96-13.5-3.83-2.67-4.79-.96-10.83,3.83-13.5,4.79-2.67,10.83-.96,13.5,3.83,2.67,4.79.95,10.83-3.83,13.5"/><path class="cls-2" d="m457.45,337.48c-2.24,1.2-5.06.43-6.31-1.71-1.25-2.14-.45-4.85,1.79-6.04,2.24-1.2,5.06-.43,6.31,1.71,1.25,2.14.45,4.85-1.79,6.04"/><path class="cls-2" d="m801.97,310.6c-2.24,1.2-5.06.43-6.31-1.71-1.25-2.14-.45-4.85,1.79-6.04,2.24-1.2,5.06-.43,6.31,1.71,1.25,2.14.45,4.85-1.79,6.04"/><path class="cls-2" d="m631.32,391.44c-3.78,2.02-8.55.72-10.66-2.9-2.11-3.62-.75-8.19,3.02-10.2,3.78-2.02,8.55-.72,10.66,2.9,2.11,3.62.76,8.19-3.02,10.2"/><path class="cls-2" d="m840.03,361.85c-2.24,1.2-5.06.43-6.31-1.71-1.25-2.14-.45-4.85,1.79-6.04,2.24-1.2,5.06-.43,6.31,1.71,1.25,2.14.45,4.85-1.79,6.04"/><path class="cls-2" d="m669.04,472.81c-2.24,1.2-5.06.43-6.31-1.71-1.25-2.14-.45-4.85,1.79-6.04,2.24-1.2,5.06-.43,6.31,1.71,1.25,2.14.45,4.85-1.79,6.04"/><path class="cls-2" d="m554.93,529.46c-4.08,2.18-9.24.78-11.52-3.13-2.28-3.91-.82-8.84,3.27-11.03,4.08-2.18,9.24-.78,11.52,3.13,2.28,3.91.82,8.85-3.27,11.03"/><path class="cls-2" d="m742.15,371.12c-1.13.61-2.57.22-3.2-.87-.63-1.08-.23-2.46.91-3.06,1.13-.61,2.57-.22,3.2.87.63,1.09.23,2.46-.91,3.06"/><path class="cls-2" d="m588.15,495.98c-1.13.61-2.57.22-3.2-.87-.63-1.08-.23-2.46.91-3.06,1.13-.61,2.57-.22,3.2.87.63,1.09.23,2.46-.91,3.06"/><path class="cls-2" d="m528.29,550.75c-1.13.61-2.57.22-3.2-.87-.63-1.08-.23-2.46.91-3.06,1.13-.61,2.57-.22,3.2.87.63,1.09.23,2.46-.91,3.06"/><path class="cls-2" d="m451.69,424.05c-1.13.61-2.57.22-3.2-.87-.63-1.08-.23-2.46.91-3.06,1.13-.61,2.57-.22,3.2.87.63,1.09.23,2.46-.91,3.06"/><path class="cls-2" d="m831.28,328.87c-1.13.61-2.57.22-3.2-.87-.63-1.08-.23-2.46.91-3.06,1.13-.61,2.57-.22,3.2.87.63,1.09.23,2.46-.91,3.06"/><path class="cls-3" d="m560.53,408.67c-.4,0-1.12-.02-1.95,0h-10.75s-.01,0-.01,0c-3.67-.07-7.79,2.06-8.35,6.46-.26,2.06.57,3.89.91,4.5,4.07,7.29,6.35,11.38,6.35,11.38l13.79-22.34Z"/><path class="cls-3" d="m437.98,452.08c-.1-.59-.27-1.68-.51-2.91l-2.81-16.01h-.01c-.86-5.5-5.11-11.07-11.82-10.75-3.13.15-5.64,1.87-6.46,2.54-9.79,7.97-15.28,12.44-15.28,12.44l36.9,14.68Z"/><path class="cls-3" d="m767.79,413.32c.45.4,1.24,1.16,2.19,1.98l12.07,10.88h.02c4.05,3.8,10.84,5.57,15.92,1.19,2.38-2.05,3.29-4.94,3.53-5.98,2.81-12.31,4.38-19.21,4.38-19.21l-38.11,11.15Z"/><path class="cls-3" d="m218.95,250.3c.45.4,1.24,1.16,2.19,1.98l12.07,10.88h.02c4.05,3.8,10.84,5.57,15.92,1.19,2.38-2.05,3.29-4.94,3.53-5.98,2.81-12.31,4.38-19.21,4.38-19.21l-38.11,11.15Z"/><path class="cls-3" d="m578.31,342.82c-.26,0-.73-.01-1.27,0h-6.96s0,0,0,0c-2.38-.05-5.05,1.4-5.41,4.38-.17,1.39.37,2.63.59,3.05,2.64,4.94,4.11,7.71,4.11,7.71l8.94-15.15Z"/><path class="cls-3" d="m516.2,480.97c-.26,0-.73-.01-1.27,0h-6.96s0,0,0,0c-2.38-.05-5.05,1.4-5.41,4.38-.17,1.39.37,2.63.59,3.05,2.64,4.94,4.11,7.71,4.11,7.71l8.94-15.15Z"/><path class="cls-3" d="m395.78,513.72c-.26,0-.73-.01-1.27,0h-6.96s0,0,0,0c-2.38-.05-5.05,1.4-5.41,4.38-.17,1.39.37,2.63.59,3.05,2.64,4.94,4.11,7.71,4.11,7.71l8.94-15.15Z"/><path class="cls-3" d="m626.51,484.01c-.26,0-.73-.01-1.27,0h-6.96s0,0,0,0c-2.38-.05-5.05,1.4-5.41,4.38-.17,1.39.37,2.63.59,3.05,2.64,4.94,4.11,7.71,4.11,7.71l8.94-15.15Z"/><path class="cls-3" d="m335.28,268.72c-.26,0-.73-.01-1.27,0h-6.96s0,0,0,0c-2.38-.05-5.05,1.4-5.41,4.38-.17,1.39.37,2.63.59,3.05,2.64,4.94,4.11,7.71,4.11,7.71l8.94-15.15Z"/><path class="cls-3" d="m295.01,345.47c.09-.24.26-.68.43-1.19l2.39-6.54h0c.86-2.23.41-5.23-2.27-6.59-1.25-.64-2.6-.55-3.07-.49-5.55.79-8.65,1.23-8.65,1.23l11.18,13.58Z"/><path class="cls-3" d="m726.46,448.01c.06-.16.18-.46.29-.81l1.62-4.44h0c.58-1.51.25-3.56-1.63-4.51-.88-.44-1.82-.4-2.15-.35-3.87.49-6.04.77-6.04.77l7.91,9.34Z"/><path class="cls-6" d="m618.06,554.07h0c3.22-.67,5.99-3.03,6.95-6.42l2.49-8.79-8.79-2.49c-4.86-1.38-9.91,1.44-11.28,6.3l-4.24,14.95,14.88-3.55Z"/><path class="cls-6" d="m482.16,414.76h0c-5.79,2.55-10.03,8.07-10.48,14.81l-1.17,17.5,17.5,1.17c9.66.65,18.02-6.66,18.67-16.32l2-29.76-26.51,12.6Z"/><path class="cls-6" d="m441.39,378.09h0c-3.01,1.35-5.21,4.3-5.42,7.93l-.55,9.4,9.14.69c5.05.38,9.38-3.52,9.69-8.71l.94-15.99-13.79,6.68Z"/><path class="cls-6" d="m684.68,388.42h0c2.01,1.7,4.85,2.28,7.46,1.22l6.77-2.76-2.76-6.77c-1.52-3.74-5.79-5.53-9.52-4.01l-11.51,4.69,9.56,7.62Z"/><path class="cls-6" d="m494.91,368.38h0c1,.78,2.49.96,3.92.3l3.72-1.7-1.18-3.34c-.65-1.84-2.84-2.58-4.9-1.64l-6.33,2.89,4.76,3.49Z"/><path class="cls-6" d="m798.27,384.17h0c1,.78,2.49.96,3.92.3l3.72-1.7-1.18-3.34c-.65-1.84-2.84-2.58-4.9-1.64l-6.33,2.89,4.76,3.49Z"/><path class="cls-6" d="m333.84,395.43h0c1,.78,2.49.96,3.92.3l3.72-1.7-1.18-3.34c-.65-1.84-2.84-2.58-4.9-1.64l-6.33,2.89,4.76,3.49Z"/><path class="cls-6" d="m225.73,321.29h0c1.98,1.53,4.97,1.84,7.87.49l7.52-3.49-2.27-6.63c-1.25-3.66-5.64-5.07-9.8-3.14l-12.8,5.94,9.47,6.82Z"/><path class="cls-6" d="m607.99,434.95h0c-1.12-.6-2.61-.51-3.91.38l-3.37,2.32,1.74,3.08c.96,1.7,3.25,2.05,5.11.77l5.73-3.94-5.3-2.61Z"/><path class="cls-6" d="m191.27,204.57h0c-1.12-.6-2.61-.51-3.91.38l-3.37,2.32,1.74,3.08c.96,1.7,3.25,2.05,5.11.77l5.73-3.94-5.3-2.61Z"/><path class="cls-6" d="m401.08,362.44h0c-.88-1.65-2.82-2.77-5.2-2.73l-6.16.09-.46,5.21c-.25,2.88,2.3,5.17,5.71,5.12l10.48-.15-4.38-7.53Z"/><path class="cls-6" d="m767.72,330.86h0c-1.86-.19-3.87.79-5.17,2.78l-3.37,5.16,4.06,3.29c2.24,1.82,5.57.98,7.43-1.87l5.73-8.78-8.69-.58Z"/><path class="cls-6" d="m750.01,388.67h0c-1.86-.19-3.87.79-5.17,2.78l-3.37,5.16,4.06,3.29c2.24,1.82,5.57.98,7.43-1.87l5.73-8.78-8.69-.58Z"/><path class="cls-6" d="m481.46,536.6h0c-1.86-.19-3.87.79-5.17,2.78l-3.37,5.16,4.06,3.29c2.24,1.82,5.57.98,7.43-1.87l5.73-8.78-8.69-.58Z"/><polygon class="cls-5" points="258.37 165.59 226.35 184.08 241.84 193.28 257.28 202.55 258.37 165.59"/><polygon class="cls-5" points="331.51 320.5 318.99 317.14 320.6 323.07 322.18 329 331.51 320.5"/><polygon class="cls-5" points="291.03 273.72 278.51 270.37 280.12 276.29 281.7 282.23 291.03 273.72"/><polygon class="cls-5" points="703.24 339.72 684.65 334.75 687.04 343.54 689.39 352.35 703.24 339.72"/><polygon class="cls-5" points="581.51 461.44 565.72 457.21 567.75 464.68 569.75 472.16 581.51 461.44"/><polygon class="cls-5" points="230.61 452.76 214.82 448.53 216.85 456 218.85 463.48 230.61 452.76"/><path class="cls-4" d="m108.06,934.14h-35.92c-.34,0-.61-.27-.61-.61s.27-.61.61-.61h35.92c.34,0,.61.27.61.61s-.27.61-.61.61"/><path class="cls-4" d="m107.13,885.38v.56l-1.88-1.31,1.88.75Zm-.31.71h-2.22v-1.55l2.22,1.55Zm-2.66,0h-2.39v-2.64s2.39,2.64,2.39,2.64Zm-2.05-2.73l2.18.88v1.55l-2.18-2.43Zm-4.21,2.54l-2.18-2.56,3.13-1.12-.95,3.68Zm2.22-8.61l-1.18,4.58-3.06,1.09,4.24-5.67Zm-.95,4.89l2.05.83-2.97,2.72.92-3.54Zm2.29,3.91h-3.16l3.18-2.91v1.45s-.01,1.45-.01,1.45Zm-6.09,9.59l-.15.6-.16-.48.31-.12Zm-10.6,0l.31.12-.16.48-.15-.6Zm-12.04-10.18v.59h-1.46l1.46-.59Zm2.18-.87l-1.88,1.31v-.56l1.88-.75Zm.65-.09v1.55h-2.22l2.22-1.55Zm2.83,1.55h-2.39l2.38-2.64v2.64Zm-2.53-.3v-1.55l2.18-.88-2.18,2.43Zm5.35-3.92l-1.18-4.58,4.24,5.67-3.06-1.09Zm-2.28,1.14l2.05-.83.91,3.54-2.97-2.72Zm-.24,1.79v-1.61s3.17,2.91,3.17,2.91h-3.16v-1.29Zm3.57,1.1l-.95-3.68,3.13,1.12-2.18,2.56Zm14.25,5.39l-.39,1.51-.69-1.75.42-.43.66.67Zm-.61,2.35l-.43,1.68-.5.18-.17-.5,1.1-1.36Zm-.87,3.36l-.26,1-.37-.82c.19-.06.4-.12.63-.18m-1.42,1.77l1.01-.17-.33,1.28-.67-1.12Zm1.01,17.78l.82-1.68.52,3.27-1.34-1.59Zm-9.1,0l-1.35,1.59.52-3.27.82,1.68Zm1.92-11.04l-1.5,1.61.6-3.72.9,2.11Zm-1.7-8.32l-.37.82-.26-1c.23.07.44.13.63.18m-.4-2.19l-.17.5-.5-.18-.43-1.68,1.1,1.36Zm-2.86-8.91l2.2-2.58,1.93,2.58h-4.13Zm1.82,4.1l-1.16-1.19,1.24-.86,1.09.86-1.17,1.19Zm2.14-3.48l-.81,2.04-1-.79,1.81-1.25Zm-.06-.32l-2,1.38-1.74-1.38h3.74Zm-1.09,3.22l-.45,1.14-.33-.34.79-.8Zm8.85,6.2l.43-.53.11.33-.53.2Zm.63.09l.26.79c-.24.07-.5.14-.76.22l-.32-.71.82-.3Zm-2.07,9.61l.9-2.11.6,3.72-1.5-1.61Zm-2.63,6.13l5.8,6.84h-11.59l5.8-6.84Zm-3.02-14.1l.2.05-.54.9-1.14-.19.47-1.04.41.12c.25.07.45.12.6.16m-.86-1.35l-.32.71c-.26-.08-.53-.15-.76-.22l.26-.79.82.3Zm-.19-.39l-.54-.2.11-.33.43.53Zm1.57,10l1.07,2.51-.9.76-1.74-1.58,1.57-1.69Zm4.62,3.48l-1.78,1.61.98-2.29.8.68Zm.17-3.72l-1.16,2.71-.02.04-1.1,2.59-1.1-2.59-.02-.04-1.16-2.71,2.28-2.45,2.28,2.45Zm-3.59,3.04l.98,2.29-1.78-1.61.8-.68Zm3.65.47l-.9-.76,1.07-2.51,1.57,1.69-1.74,1.58Zm.07-3.82l-2.1-2.26h3.06l-.96,2.26Zm.66-2.56h-6.15l3.07-1.91,3.07,1.91Zm-5.17-2.12l1.66.13-2.61,1.62.95-1.75Zm.16-.29l.6-1.1.99,1.22-1.59-.12Zm-.61-2.6l.86,1.06-1.37-.23.51-.84Zm-1.37-.72l.28-.62.73.9c-.28-.07-.68-.19-1.01-.28m2.3,2.1l-.65,1.19-1.75-.14.8-1.32,1.6.27Zm1.3,3.92l-2.1,2.26-.96-2.26h3.06Zm-4.15,8.26l2.12-1.79,1.97,1.79h-4.09Zm4.13.3l-2.11,2.48-2.11-2.48h4.21Zm.7-.3l1.97-1.79,2.12,1.79h-4.09Zm4.18.3l-2.11,2.48-2.11-2.48h4.21Zm-4.2-11.15l.99-1.22.6,1.1-1.59.12Zm2.7-1.88l-1.37.23.86-1.06.51.84Zm-.79,1.73l-.65-1.19,1.6-.27.8,1.32-1.75.14Zm-.17.31l.95,1.75-2.61-1.62,1.66-.13Zm1.42,1.99l-1.1-2.02,1.65-.13-.55,2.15Zm.11-6.22l.28.62c-.33.09-.74.21-1.01.28l.73-.9Zm-.26,2.13l-.54-.9.2-.05c.23-.06.56-.15,1.01-.28l.47,1.04-1.14.19Zm-.25-12.44l-.02.03h-6.19l-.02-.03-1.98-2.65h10.19l-1.98,2.65Zm-6.05.34h5.97l-.54,1.02-.74,1.39h-.07s-.01.01-.01.01l-.05.05-1.54,2.97-1.59-2.97h0l-.05-.05h-.01s-.07-.01-.07-.01l-1.06-2-.22-.41Zm2.94,14l-5.85-7.25.81-2.03.02-.04,1.86-4.67h.11l.55,1.03.77,1.45v.03s-.01.03-.01.03l.02.09,1.7,3.17.11.07h0l.11-.07,1.65-3.17h0v-.09s0-.03,0-.03v-.03s1.31-2.47,1.31-2.47h.02l1.85,4.66v.04s.83,2.04.83,2.04l-5.85,7.25Zm-2.42.18l-1.1,2.02-.55-2.15,1.65.13Zm-2.35,10.58l.54-3.38,1.67,1.51-2.21,1.87Zm1.94,3.38l-1.5,1.77-.87-1.77h2.37Zm-2.43-.3l.41-2.56,2.17,2.56h-2.58Zm10.48.3l-.87,1.77-1.5-1.77h2.37Zm.06-.3h-2.58l2.17-2.56.41,2.56Zm-2.7-4.95l1.67-1.51.54,3.38-2.21-1.87Zm1.12-22.89h3.74l-1.74,1.38-1.99-1.38Zm1.75,1.57l-1,.79-.81-2.04,1.81,1.25Zm1.5,1.04l-.44.45-.73.74-1.17-1.19,1.09-.86,1.24.86Zm-1.37,1.41l-.34.34-.45-1.14.79.8Zm-2.1-4.32l1.93-2.58,2.2,2.58h-4.13Zm-9.4,1.86l-1.15.8-.55-2.15,1.71,1.35Zm-.58,3.01l-.21-.82-.18-.68.93.95-.54.55Zm.75-.33l.42.43-.69,1.75-.39-1.51.66-.67Zm2.23,8.15l-.67,1.12-.33-1.28,1.01.17Zm-.08,22.06l3.18-1.78-1.85,3.06-1.33-1.28Zm1.02,1.4h-3.53l2.23-1.25,1.3,1.25Zm-1.25-1.62l-1.14-1.1-.76-.73h5.18l-3.28,1.83Zm1.11,2.23l-1.36,2.24-.85-.94,2.21-1.3Zm-1.8,2.97l-.99,1.64-.43-.64,1.43-1Zm-1.16,1.92l-.89,1.47-.84-1.37,1.22-.86.51.75Zm1.39-2.44l-1.82,1.28-.83-1.22,1.76-1.04.9.99Zm1.52-2.76l-2.35,1.39-1.26-1.39h3.61Zm-3.23-3.6l.43.41,1.48,1.42-2.42,1.35.51-3.19Zm-.98,6.09l.37-2.3,1.23,1.35-1.59.94Zm-.39,2.43l.28-1.78.73,1.07-1.01.71Zm-.67,4.19l.54-3.37.76,1.23-1.3,2.15Zm8.06-12.73l2.01,3.31h-4.01l2.01-3.31Zm5.69,8.82l.51-.75,1.22.86-.84,1.37-.89-1.47Zm.27-.92l-.44.64-.99-1.64,1.43,1Zm-1.65-1.52l.9-.99,1.76,1.04-.83,1.22-1.82-1.28Zm.63-1.14l-.85.94-1.36-2.24,2.21,1.3Zm1.46-1.62l-1.26,1.39-2.35-1.39h3.61Zm-3.8-.3l1.3-1.25,2.23,1.25h-3.53Zm-2.16-3.18l3.18,1.78-1.33,1.28-1.85-3.06Zm.13-.27h5.18l-1.9,1.83-3.28-1.83Zm6.19,10.71l.76-1.23.54,3.37-1.3-2.15Zm-.39-2.76l.73-1.07.28,1.78-1.01-.71Zm-.97-2.66l1.23-1.35.37,2.3-1.59-.94Zm.62-5.15l.51,3.19-2.42-1.35,1.9-1.84Zm.88-29.47l-.39,1.5-.54-.55.92-.95Zm.74-2.86l-.56,2.15-1.15-.8,1.71-1.35Zm11.16-.51h-1.46v-.59l1.46.59Zm-30.45,2.71h-.07s-.01.01-.01.01l-.05.05-1.54,2.97-1.59-2.97-.05-.05h-.02s-.07-.01-.07-.01l-1.1-2.07-.18-.34h5.97l-.74,1.38-.55,1.02Zm28.07-2.4l-1.28,2.4h-.07s-.01.01-.01.01l-.05.05-1.54,2.97-1.59-2.97-.05-.05h-.02s-.07-.01-.07-.01l-1.27-2.39v-.02s5.96,0,5.96,0h0Zm3.21-.29l-10.46-4.21,1.36-5.26-.08-.17-.18.05-4.94,6.6h-10.64l-4.94-6.6-.08-.06h-.1s-.08.18-.08.18l1.36,5.26-10.46,4.21-.09.17.14.12h3.13l1.32,2.48v.03s-.01.03-.01.03v.09s1.71,3.17,1.71,3.17l.11.07h0l.11-.07,1.65-3.17.02-.09v-.03s-.01-.03-.01-.03l.59-1.11.73-1.37h2.23l4.25,16.48-1.84,11.46v.03s-2.89,17.99-2.89,17.99l.1.16h.1l.08-.06,6.01-9.92h4.38l6.01,9.92.13.07h.05s.1-.17.1-.17l-2.88-17.98v-.03s-1.84-11.47-1.84-11.47l4.25-16.48h2.33l1.32,2.48v.03s-.01.03-.01.03v.09s1.72,3.17,1.72,3.17l.11.07h0l.06-.02.05-.05,1.65-3.17v-.09s.01-.03.01-.03v-.03s1.31-2.47,1.31-2.47h3.03l.15-.12-.09-.17Z"/></g></g></svg>