<?xml version="1.0" encoding="UTF-8"?><svg id="Layer_2" xmlns="http://www.w3.org/2000/svg" viewBox="0 0 83.43 90.96"><defs><style>.cls-1{fill:#fdb714;}</style></defs><g id="Layer_1-2"><path class="cls-1" d="m34.24,7.62c-.89-.28-1.33-1.55-.44-2.26.59-.42,1.18-.42,1.62-.28.89.28,1.33,1.41.44,2.26-.44.42-1.18.56-1.62.28m-4.72.14h-7.38c-.74,0-1.48-.56-1.48-1.41,0-.7.74-1.41,1.48-1.41h7.38c.89,0,1.48.71,1.48,1.41,0,.85-.74,1.41-1.48,1.41m3.99,56.27h-10.04v-15.65h10.04v15.65Zm-5.02,18.9c-2.51,0-4.72-1.97-4.72-4.51s2.07-4.51,4.72-4.51c2.51,0,4.72,1.97,4.72,4.51s-2.21,4.51-4.72,4.51m-11.37-18.9H7.08v-24.54h10.04v24.54ZM51.81,10.44c1.77,0,3.4.14,5.02.56v-5.92c0-2.82-2.36-5.08-5.31-5.08H5.31C2.36,0,0,2.25,0,5.08v80.8c0,2.82,2.36,5.08,5.31,5.08h46.2c2.95,0,5.31-2.26,5.31-5.08v-33.14c-1.62.42-3.4.56-5.02.56-.74,0-1.33,0-2.07-.14v10.86h-10.04v-14.1c-6.2-3.81-10.33-10.44-10.33-18.05,0-11.84,10.04-21.43,22.44-21.43"/><path class="cls-1" d="m71.29,31.87c0,10.29-8.71,18.62-19.48,18.62s-19.48-8.32-19.48-18.62,8.71-18.62,19.48-18.62,19.48,8.32,19.48,18.62"/><path class="cls-1" d="m82.21,60.92c-.74.71-1.92,1.13-2.95,1.13s-2.07-.42-2.8-1.13l-11.96-11.42c2.21-1.55,4.28-3.38,5.76-5.5l11.96,11.56c1.62,1.41,1.62,3.95,0,5.36"/></g></svg>