<?xml version="1.0" encoding="UTF-8"?><svg id="Layer_2" xmlns="http://www.w3.org/2000/svg" viewBox="0 0 88.82 87.56"><defs><style>.cls-1{fill:#005da6;}</style></defs><g id="Layer_1-2"><path class="cls-1" d="m10.37,87.56c-.83,0-1.5-.67-1.5-1.51s.67-1.51,1.5-1.51h2.8v-22.4c0-.83.67-1.51,1.5-1.51h8.25c.83,0,1.5.67,1.5,1.51v22.41h3.68v-34.95c0-.83.67-1.51,1.5-1.51h8.25c.83,0,1.5.68,1.5,1.51v34.95h3.68v-29.24c0-.83.67-1.51,1.5-1.51h8.25c.83,0,1.5.68,1.5,1.51v29.25h3.67v-18.77c0-.83.67-1.51,1.5-1.51h8.25c.83,0,1.5.68,1.5,1.51v18.77h3.68v-38.46c0-.83.67-1.51,1.5-1.51h8.25c.83,0,1.5.67,1.5,1.51v38.47h2.8c.83,0,1.5.67,1.5,1.51s-.67,1.51-1.5,1.51H10.37Z"/><path class="cls-1" d="m29.55,16.21v5.87c0,.83-.67,1.51-1.5,1.51h-6.57c-.19.43-.35.86-.49,1.3-1.43,4.51-.39,9.44,2.75,12.97l-1.69,1.89c-3.25-1.81-7.34-.62-9.14,2.64-1.8,3.27-.62,7.38,2.63,9.18,3.25,1.81,7.34.62,9.14-2.64,1.25-2.27,1.09-5.06-.4-7.18l1.69-1.89c5.31,3.8,12.57,3.19,17.18-1.44.06-.06.12-.12.18-.18l14.12,10.88c-1.54,3.39-.06,7.4,3.31,8.95,3.38,1.55,7.37.06,8.91-3.33,1.05-2.31.73-5.02-.85-7.01l6.73-8.43c3.34,1.63,7.37.23,8.99-3.12,1.62-3.36.23-7.4-3.11-9.04-3.34-1.63-7.37-.23-8.99,3.12-1.13,2.34-.83,5.11.77,7.15l-6.73,8.43c-2.37-1.15-5.19-.81-7.22.88l-14.12-10.87c3.8-6.34,1.77-14.58-4.55-18.4-3.05-1.85-6.72-2.39-10.17-1.51-.3.07-.58.16-.87.25"/><rect class="cls-1" y="13.86" width="26.55" height="6.71"/><path class="cls-1" d="m78.47,8.89h0c2.32,0,4.19,1.89,4.19,4.21,0,1.74-1.07,3.3-2.69,3.93v.59c0,.83-.67,1.51-1.5,1.51s-1.5-.67-1.5-1.51v-.59c-1.62-.62-2.69-2.19-2.69-3.93,0-.83.67-1.51,1.5-1.51s1.5.67,1.5,1.51c0,.66.53,1.2,1.19,1.2s1.19-.53,1.19-1.2c0-.66-.53-1.2-1.19-1.2h0c-2.31,0-4.19-1.89-4.19-4.21,0-1.74,1.07-3.3,2.69-3.93v-.58c0-.83.67-1.51,1.5-1.51s1.5.67,1.5,1.51v.58c1.62.63,2.69,2.19,2.69,3.93,0,.83-.67,1.51-1.5,1.51s-1.5-.67-1.5-1.51c0-.66-.53-1.2-1.19-1.2-.66,0-1.19.54-1.19,1.2s.53,1.2,1.19,1.2m7.32-5.85C83.85,1.09,81.22,0,78.47,0,75.73,0,73.1,1.09,71.15,3.05c-4.04,4.06-4.04,10.64,0,14.7,4.04,4.06,10.59,4.06,14.63,0,4.04-4.06,4.04-10.64,0-14.7"/></g></svg>