<?xml version="1.0" encoding="UTF-8"?><svg id="Layer_2" xmlns="http://www.w3.org/2000/svg" viewBox="0 0 83.04 83.07"><defs><style>.cls-1{fill:#00954c;}</style></defs><g id="Layer_1-2"><path class="cls-1" d="m59.32,77.11c-9.83,0-17.8-7.97-17.8-17.79,0-2.02.35-4.03,1.04-5.93,3.28-9.27,13.44-14.12,22.71-10.85,9.26,3.28,14.12,13.44,10.85,22.71-2.52,7.12-9.25,11.87-16.8,11.86m-23.73-34.1c-1.64,0-2.97-1.33-2.97-2.97v-1.48h-2.97c-1.64,0-2.96-1.33-2.96-2.97s1.33-2.97,2.96-2.97h7.41c.82,0,1.48-.66,1.48-1.48s-.66-1.48-1.48-1.48h-2.96c-4.09,0-7.42-3.31-7.42-7.41,0-3.53,2.48-6.57,5.94-7.27v-1.63c0-1.64,1.33-2.96,2.97-2.96s2.96,1.33,2.96,2.96v1.48h2.96c1.64,0,2.97,1.33,2.97,2.97s-1.33,2.97-2.97,2.97h-7.41c-.82,0-1.48.66-1.48,1.48s.66,1.48,1.48,1.48h2.96c4.1,0,7.42,3.31,7.42,7.41,0,3.53-2.48,6.57-5.94,7.27v1.63c0,1.64-1.33,2.97-2.96,2.97m-17.79-11.86c-2.46,0-4.45-1.99-4.45-4.45s1.99-4.45,4.45-4.45,4.45,1.99,4.45,4.45-1.99,4.45-4.45,4.45m35.59-8.9c2.46,0,4.45,1.99,4.45,4.45s-1.99,4.45-4.45,4.45-4.45-1.99-4.45-4.45,1.99-4.45,4.45-4.45m17.79,16.55V8.9c-.02-4.91-3.99-8.88-8.9-8.9H8.9C3.99.02.02,3.99,0,8.9v35.59c.02,4.91,3.99,8.88,8.9,8.9h27.43c-.49,1.94-.74,3.93-.74,5.93-.01,13.1,10.6,23.74,23.7,23.75,13.1.01,23.74-10.6,23.75-23.7,0-8.49-4.51-16.33-11.86-20.57"/><path class="cls-1" d="m62.28,47.45h-10.38c-1.64,0-2.96,1.33-2.96,2.97s1.33,2.97,2.96,2.97h10.38c2.46,0,4.45,1.99,4.45,4.45s-1.99,4.45-4.45,4.45h-6.19l.87-.87c1.14-1.18,1.11-3.06-.07-4.19-1.15-1.11-2.97-1.11-4.12,0l-5.93,5.93c-1.16,1.16-1.16,3.03,0,4.19l5.93,5.93c1.18,1.14,3.06,1.11,4.19-.07,1.11-1.15,1.11-2.97,0-4.12l-.87-.87h6.19c5.73,0,10.38-4.65,10.38-10.38s-4.65-10.38-10.38-10.38"/></g></svg>