<?xml version="1.0" encoding="UTF-8"?><svg id="Layer_2" xmlns="http://www.w3.org/2000/svg" viewBox="0 0 88.59 90.49"><defs><style>.cls-1{fill:#f15623;}</style></defs><g id="Layer_1-2"><path class="cls-1" d="m39.05,36.34v4.88c-1.58-.57-2.73-1.01-2.73-2.58,0-1.44,1.29-2.15,2.73-2.3"/><path class="cls-1" d="m43.79,47.83c0,1.58-1.44,2.3-2.87,2.44v-5.03c1.72.43,2.87,1.01,2.87,2.58"/><polygon class="cls-1" points="86.58 11.49 77.24 11.49 77.24 2.16 86.58 11.49"/><path class="cls-1" d="m40.92,53.29v2.01h-1.87v-2.01c-2.58-.29-4.88-1.29-7.03-3.01l2.01-2.44c1.58,1.44,3.16,2.15,4.88,2.44v-5.46c-3.73-.86-6.17-2.15-6.17-5.75s2.73-5.6,6.17-5.75v-1.44h1.87v1.44c2.01.14,4.02.86,5.89,2.15l-1.72,2.58c-1.29-.86-2.58-1.44-4.02-1.58v5.31h.14c3.59.86,6.32,2.15,6.32,5.89,0,3.45-2.87,5.46-6.46,5.6m-1.15-26.86c-9.48,0-17.23,7.76-17.23,17.24s7.75,17.24,17.23,17.24,17.23-7.76,17.23-17.24-7.75-17.24-17.23-17.24"/><path class="cls-1" d="m80.4,22.98h-21.97c-.86,0-1.44-.72-1.44-1.44,0-.86.72-1.58,1.44-1.58h21.97c.86,0,1.58.72,1.58,1.58,0,.72-.72,1.44-1.58,1.44m0,11.78h-16.08c-.86,0-1.44-.72-1.44-1.44,0-.86.72-1.58,1.44-1.58h16.08c.86,0,1.58.72,1.58,1.58,0,.72-.72,1.44-1.58,1.44m0,11.63h-8.76c-.86,0-1.44-.72-1.44-1.44,0-.86.72-1.44,1.44-1.44h8.76c.86,0,1.58.72,1.58,1.44,0,.86-.72,1.44-1.58,1.44M48.24,11.2c-.86,0-1.44-.72-1.44-1.44,0-.86.72-1.44,1.44-1.44h17.66c.86,0,1.44.72,1.44,1.44,0,.86-.72,1.44-1.44,1.44h-17.66Zm27.42,3.3c-.86,0-1.44-.72-1.44-1.58V0h-33.02c-.86,0-1.44.72-1.44,1.44v21.98c11.06,0,20.1,9.05,20.1,20.25,0,4.02-1.15,7.9-3.3,11.06h30.58c.86,0,1.44-.72,1.44-1.44V14.51h-12.92Z"/><path class="cls-1" d="m45.8,71.1l9.62-5.32c1.72-.86,3.45-.57,4.45.72l.86,1.15-10.19,6.03c-.86-1.15-2.15-2.01-3.73-2.3-.29-.14-.72-.14-1.01-.29"/><path class="cls-1" d="m69.2,69.66c.29.57.43,1.29.29,2.01-.14.57-.43,1.44-1.44,2.15l-26.13,15.22c-2.73,1.72-6.17,1.87-9.19.57-4.31-1.72-7.75-3.45-10.48-4.88-5.31-2.73-9.04-4.88-13.64-2.15l-2.15,1.29-6.46-13.79c4.45-2.01,7.47-3.59,9.47-4.6,8.76-4.31,11.06-3.45,16.37.29,3.73,2.58,8.9,6.18,20.24,8.47,1.87.43,2.73,2.15,2.3,3.73-.43,1.44-1.72,2.73-3.45,2.3l-20.67-4.31c-.86-.15-1.58.29-1.72,1.15-.14.86.29,1.58,1.15,1.72l20.82,4.45c3.01.57,6.03-1.29,6.89-4.45.29-.72.29-1.58.14-2.3l13.21-7.76c1.44-1.01,3.45-.57,4.45.86"/></g></svg>