<?xml version="1.0" encoding="UTF-8"?><svg id="Layer_2" xmlns="http://www.w3.org/2000/svg" viewBox="0 0 162.48 177.81"><defs><style>.cls-1{fill:#fff;}.cls-2{fill:#008645;}</style></defs><g id="Layer_1-2"><path class="cls-2" d="m119.34,177.81H8.91c-4.92,0-8.91-3.99-8.91-8.92V39.51c0-4.92,3.99-8.91,8.91-8.91h110.43c4.92,0,8.92,3.99,8.92,8.91v129.39c0,4.92-3.99,8.92-8.92,8.92"/><path class="cls-1" d="m117.03,41.6c-.48-.03-.96-.02-1.44-.02-33.67,0-67.34,0-101.01,0-5.24,0-6.83,1.58-6.83,6.73,0,38.89,0,77.78,0,116.67,0,4.77,1.5,6.24,6.31,6.24h102.25c4.76,0,6.18-1.4,6.18-6.12v-58.54c0-19.72,0-39.44,0-59.16,0-3.73-1.75-5.57-5.45-5.81m3.72,124.26c-.02,2.85-1,3.85-3.85,3.85-34.49.01-68.97.02-103.46,0-2.96,0-3.93-1.03-3.94-3.99-.01-5.08.08-10.17-.04-15.25-.05-2.07.76-2.53,2.65-2.53,17.66.05,35.31.03,52.97.03,17.59,0,35.17,0,52.75,0,2.89,0,2.92.04,2.93,2.83,0,5.02.02,10.03,0,15.05m-6.2-37.88h0c0-3.64.04-7.28-.02-10.92-.02-1.5.58-2.04,2.08-2.08,4.13-.1,4.13-.15,4.14,3.91,0,6.53-.05,13.05.03,19.58.02,1.88-.61,2.7-2.5,2.46-.4-.05-.83-.05-1.24,0-1.85.22-2.59-.52-2.53-2.44.11-3.5.03-7.01.03-10.51m3.53-14.66c-5.27-.09-5.27,0-5.27,5.18v20.83q0,3.34,3.45,3.35c.69,0,1.38.02,2.06,0,1.32-.04,2.47-.01,2.45,1.87-.02,1.79-1.15,1.72-2.36,1.72-5.29,0-10.59,0-15.88,0h-37.53c-17.59,0-35.19,0-52.79,0-2.71,0-2.72-.02-2.72-2.77,0-31.89,0-63.78,0-95.68,0-3.62.88-4.49,4.49-4.5,34.16,0,68.32,0,102.48,0,3.48,0,4.28.77,4.28,4.22,0,21.03-.02,42.07.04,63.09,0,2.1-.64,2.73-2.72,2.69"/><path class="cls-1" d="m109.4,51.48c-14.7,0-29.4,0-44.1,0-14.98,0-29.96-.01-44.93,0-3.66,0-4.49.86-4.49,4.5,0,16.42,0,32.83,0,49.25,0,3.96.8,4.8,4.85,4.8,29.61.01,59.21.01,88.82,0,3.96,0,4.99-1.04,4.99-5.06.02-16.14.02-32.29,0-48.43,0-4.12-.99-5.07-5.14-5.07m3.4,53.89c0,2.67-.27,2.93-2.98,2.93-14.92,0-29.83,0-44.75,0-14.77,0-29.55,0-44.33,0-3.12,0-3.36-.21-3.36-3.21-.01-16.29-.01-32.58,0-48.87,0-2.64.36-3.01,2.95-3.01,29.9,0,59.8,0,89.69,0,2.58,0,2.77.22,2.78,2.88,0,16.42,0,32.85,0,49.28"/><path class="cls-1" d="m96.35,113.29c-20.81,0-41.62,0-62.44,0-3.71,0-4.69.94-4.71,4.58-.03,6.73-.03,13.46,0,20.19.02,3.68.98,4.61,4.69,4.61,10.37,0,20.74,0,31.12,0s20.88,0,31.32,0c3.75,0,4.66-.91,4.67-4.59.01-6.73.01-13.46,0-20.2,0-3.69-.92-4.6-4.65-4.6m2.93,24.92c0,2.5-.21,2.71-2.72,2.71-10.52.01-21.04,0-31.55,0s-20.76,0-31.14,0c-2.83,0-2.94-.11-2.94-2.88,0-6.8.05-13.61-.04-20.41-.03-1.97.66-2.66,2.63-2.65,21.03.05,42.07.03,63.1.03,2.43,0,2.66.25,2.66,2.79.01,6.8.01,13.61,0,20.41"/><path class="cls-1" d="m109.73,73.81c.03-1.84-.51-2.57-2.44-2.56-28.16.04-56.33.04-84.49,0-1.76,0-2.42.57-2.4,2.39.09,5.97.03,11.95.03,17.93,0,2.9.01,2.91,3.02,2.91,13.88,0,27.75,0,41.63,0s28.03-.03,42.04.04c1.96,0,2.65-.58,2.62-2.58-.1-6.04-.09-12.09,0-18.13m-4.25,19.21c-13.54-.06-27.08-.03-40.62-.03s-26.94-.04-40.42.04c-1.96.01-2.63-.52-2.58-2.54.13-5.09.1-10.17,0-15.26-.03-1.72.56-2.24,2.25-2.24,27.15.04,54.3.04,81.45,0,1.77,0,2.45.5,2.41,2.34-.09,5.09-.1,10.17,0,15.26.04,1.93-.66,2.45-2.52,2.44"/><path class="cls-1" d="m88.96,98.04c-15.39,0-30.77-.01-46.16,0-5.07,0-4.5-.61-4.62,4.67-.04,1.78.67,2.16,2.31,2.15,8.1-.07,16.21-.03,24.31-.03s15.52,0,23.28,0c4.24,0,3.89.36,3.9-3.87,0-2.9,0-2.92-3.03-2.92m-47.2,5.65c-1.9.36-2.21-.63-2.25-2.2-.04-1.8.8-2.13,2.36-2.15,1.75-.03,2.19.73,2.2,2.33,0,1.78-.75,2.35-2.31,2.02m5.82.02c-1.77.34-2.23-.5-2.27-2.17-.03-1.79.73-2.2,2.34-2.2,1.6,0,2.19.57,2.19,2.17s-.46,2.53-2.26,2.2m5.88,0c-1.67.29-2.33-.3-2.36-2.09-.03-1.9.75-2.31,2.46-2.29,1.6.02,2.33.39,2.34,2.19,0,1.88-.71,2.5-2.44,2.18m5.71,0c-1.69.31-2.25-.39-2.28-2.1-.04-1.88.73-2.27,2.42-2.29,1.73,0,2.39.48,2.4,2.32.02,1.99-.94,2.3-2.54,2.07m5.75,0c-1.8.36-2.16-.54-2.22-2.18-.08-2.04.96-2.16,2.54-2.19,1.71-.03,2.21.61,2.26,2.29.05,2.02-.96,2.32-2.57,2.08m6.15,0c-1.69.3-2.34-.39-2.35-2.12,0-1.75.71-2.25,2.35-2.25,1.57,0,2.22.49,2.2,2.14-.02,1.6-.34,2.59-2.2,2.23m5.78-.02c-1.85.35-2.29-.53-2.32-2.15-.03-1.73.7-2.2,2.31-2.2,1.7,0,2.26.62,2.24,2.29-.02,1.68-.58,2.46-2.23,2.07m5.67.02c-1.82.34-2.15-.63-2.19-2.21-.04-1.79.79-2.14,2.36-2.16,1.75-.03,2.19.72,2.21,2.32.03,1.79-.77,2.31-2.37,2.05m5.87,0c-1.78.35-2.24-.52-2.25-2.18,0-1.59.5-2.2,2.14-2.19,1.59,0,2.42.38,2.39,2.18-.03,1.66-.5,2.52-2.29,2.19"/><path class="cls-1" d="m30.47,67.9c.84.09,1.07-.56,1.09-1.19.06-1.35.02-2.71.02-4.06.88.88,1.26,1.88,1.78,2.81.7,1.26,1.54,1.25,2.23-.04.56-1.03.99-2.13,1.47-3.19.29,1.48.27,2.85.29,4.22.01.61.02,1.37.85,1.41,1.01.04.95-.82.96-1.49.03-1.92.03-3.85,0-5.77,0-.75.04-1.57-1-1.76-.95-.16-1.57.25-1.97,1.1-.52,1.1-1.07,2.19-1.76,3.6-.71-1.47-1.27-2.63-1.81-3.79-.38-.83-1.04-1.01-1.87-.94-.92.08-1.12.72-1.13,1.45-.03,2.13-.03,4.26,0,6.39,0,.54.1,1.17.82,1.24"/><path class="cls-1" d="m69.15,67.86c.84-.01.89-.75.9-1.36.03-1.31,0-2.62,0-3.92.84.93,1.22,1.89,1.71,2.78.78,1.42,1.54,1.41,2.33-.02.49-.89.89-1.84,1.33-2.76.36,1.44.33,2.75.36,4.05.02.64.18,1.32,1.02,1.24.72-.07.75-.71.76-1.27.02-1.99.03-3.99.02-5.98,0-.74.09-1.58-.98-1.76-.96-.16-1.57.24-1.97,1.1-.49,1.04-1,2.06-1.69,3.46-.79-1.55-1.34-2.66-1.9-3.75-.41-.8-1.12-.95-1.93-.78-.8.17-.84.81-.85,1.44-.01,2.06-.02,4.12,0,6.18,0,.61.02,1.36.89,1.35"/><path class="cls-1" d="m49.84,67.87c1.17.08.82-.99.96-1.67.13-.61-.34-1.53.63-1.72.88-.17,1.32.56,1.73,1.2.18.29.33.6.49.9.45.9,1.06,1.95,2.13,1.24.95-.62-.28-1.39-.43-2.12-.17-.85-1.67-1.29-.47-2.6,1.61-1.75.78-3.71-1.56-4.22-3.61-.78-4.38-.17-4.38,3.49v1.03c0,.89-.04,1.78,0,2.67.04.71-.15,1.72.89,1.78"/><path class="cls-1" d="m101.74,66.92c.01.52.25.95.84.97.6.02.83-.39.9-.91.04-.34.03-.68.06-1.02.04-.53-.12-1.2.56-1.4.68-.19,1.19.26,1.55.77.46.68.79,1.44,1.24,2.13.34.51.89.7,1.44.43.72-.36.34-.94.12-1.41-.26-.55-.57-1.09-.93-1.59-.47-.65-.44-1.08.12-1.76,1.49-1.85.73-3.73-1.6-4.22-3.61-.77-4.35-.17-4.35,3.51v1.03h.04c0,1.16-.02,2.33.01,3.49"/><path class="cls-1" d="m40.52,67.91c.52.16.97-.04,1.23-.5.5-.87.78-1.82,2.16-1.83,1.39-.02,1.93.72,2.4,1.79.25.57.8.76,1.39.49.61-.29.38-.81.21-1.25-.84-2.25-1.68-4.49-2.56-6.72-.23-.6-.61-1.09-1.37-1.03-.56,0-.91.33-1.09.79-.93,2.36-1.85,4.72-2.76,7.09-.18.48-.25.97.39,1.17"/><path class="cls-1" d="m79.03,66.6c0,.77.31,1.38,1.17,1.41,1.43.04,2.87.03,4.31,0,.52,0,.95-.23.96-.84,0-.62-.45-.81-.96-.84-.82-.06-1.64-.05-2.47-.09-.6-.03-1.08-.25-1.12-.94-.05-.73.31-1.09,1.03-1.27.92-.22,2.58.53,2.59-.77,0-1.32-1.66-.55-2.57-.77-.49-.12-.96-.19-1.03-.79-.07-.68.31-1.03.94-1.09.75-.08,1.51-.06,2.25-.13.48-.05,1.02-.14,1.06-.75.06-.77-.56-.82-1.1-.91-4.44-.75-5.1-.19-5.11,4.29v.21h.03c0,1.09-.01,2.19,0,3.29"/><path class="cls-1" d="m96.03,68.06c.96-.03,1.93.02,2.88-.02.66-.03,1.55.07,1.52-.93-.02-.84-.82-.77-1.42-.82-.61-.05-1.24-.03-1.85-.08-.77-.05-1.08-.53-1.03-1.25.05-.68.52-.83,1.12-.97.83-.19,2.35.66,2.36-.71.01-1.29-1.53-.62-2.38-.8-.6-.12-1.09-.27-1.04-.99.05-.69.56-.88,1.15-.93.69-.05,1.37-.05,2.06-.13.49-.06.97-.24.94-.87-.03-.64-.55-.68-1.03-.77-4.29-.78-5.09-.13-5.09,4.11v.41h0c0,.96.04,1.93,0,2.88-.07,1.32.52,1.9,1.83,1.85"/><path class="cls-1" d="m23.91,66.3c-.69-.26-1.62-1.26-2.03,0-.35,1.09.89,1.35,1.7,1.67.44.17.94.17,1.23.22,1.73-.03,3.14-.37,3.57-2.09.43-1.74-.64-2.69-2.09-3.32-.37-.16-.78-.28-1.14-.46-.55-.27-1.25-.51-1.07-1.3.21-.91,1.01-.79,1.68-.71.4.04.78.24,1.17.36.37.11.68.04.88-.3.2-.35.15-.7-.14-.93-1.1-.87-2.36-1.04-3.7-.69-1.18.32-1.94,1.09-2.08,2.29-.17,1.4.76,2.11,1.9,2.61.38.17.78.29,1.14.49.67.4,1.78.7,1.33,1.72-.45,1.03-1.46.76-2.35.43"/><path class="cls-1" d="m86.94,60.52c1.39.04,1.67.88,1.65,2.06-.03,1.16-.04,2.32.03,3.48.05.77-.1,1.86,1.09,1.83,1.05-.03.88-1.04.92-1.75.05-.96.04-1.91,0-2.87-.04-1.44-.06-2.83,1.99-2.81.42,0,.79-.28.77-.78-.02-.6-.45-.82-.96-.83-.96-.03-1.91,0-2.87,0v-.02c-.82,0-1.64-.02-2.46,0-.55.02-1.17.04-1.25.77-.08.74.51.92,1.07.94"/><path class="cls-1" d="m57.5,60.49c1.52.03,1.77.94,1.72,2.2-.05,1.23-.03,2.47,0,3.7.02.67-.02,1.52.98,1.48.84-.03.82-.79.83-1.4.03-1.1.07-2.2.01-3.29-.08-1.5.02-2.78,2.04-2.71.5,0,.94-.27.9-.9-.04-.64-.54-.74-1.03-.75-.89-.02-1.78,0-2.68,0-.89,0-1.78-.01-2.67,0-.49.01-1.03.09-1.13.67-.12.73.45.98,1.02,1"/><path class="cls-1" d="m52.45,134.26c.86-.45,2.09-.2,1.94-1.59-.12-1.1-1.68-.65-1.78-1.76.56-.27,1.6,1.12,1.73-.28.18-1.84,0-3.72-.04-5.58,0-.31-.22-.57-.51-.53-2.03.25-4.17-.93-6.23.82.26-1.58.73-2.95-.07-4.06-.65-.9-1.05-1.51-.03-2.36.42-.35.49-.89-.34-.94-1.34-.08-2.68-.23-4.01-.19-.9.02-2.29-.52-2.57.55-.3,1.13,1.57.34,2,1.55-2.15-1.11-2.37.08-2.39,1.7-.03,1.37.1,2.71.58,4.07-1.41-1.57-3.12-1.55-4.82-1.12-1.24.31-.26,1.5-.49,2.26-1.25-.3-.16-1.8-1.51-2.21-.59,2.01-.18,4.03-.29,6.01-.07,1.24.54,1.76,1.72,1.76,1.35-.01,2.71,0,4.06,0-.55.27-1.09.27-1.63.27-4.4,0-4.7.38-4.16,4.86.12.92.49,1.4,1.39,1.44.76.03,1.51-.01,2.26.05,1.72.15,2.61-.46,2.4-2.33-.1-.94-.02-1.9-.02-2.86.14-.01.28-.03.42-.04.1,1.38.25,2.76.28,4.15,0,.48.31,1.04.48.83,1.18-1.52,2.01-.1,3.03.15.8.2,1.88.41,2.35-.67.4-.92.62-.25.97,0,2.06,1.45,4.34.67,6.54.56.55-.03.59-.63.73-1.11.5-1.76-.88-2.47-2-3.38"/><path class="cls-1" d="m51.83,124.06q2.67-.03,2.64-3.69c-.03-2.64-.03-2.48-3.9-2.66-2.67-.13-2.19,1.49-2.15,2.34q.04,4.05,3.42,4.01"/><path class="cls-1" d="m36.36,124.07q3.29,0,3.29-3.26,0-3.03-2.86-3.04-3.18,0-3.18,3.12c0,3.14.03,3.17,2.75,3.18"/><polygon class="cls-1" points="28.09 78.03 28.09 80.9 30.45 79.94 30.45 88.56 33.35 88.56 33.35 76.58 31.67 76.58 28.09 78.03"/><polygon class="cls-1" points="91.62 79.27 96.27 79.27 92.33 88.56 95.65 88.56 100.08 77.67 100.08 76.58 91.62 76.58 91.62 79.27"/><path class="cls-1" d="m44.8,84.57c1.78-1.93,2.38-3.09,2.38-4.48,0-2.09-1.29-3.69-4.54-3.69-1.49,0-2.6.38-3.25.8v2.63c.66-.45,1.76-.84,2.85-.84,1.33,0,1.94.47,1.94,1.43s-.6,1.74-1.6,2.87l-3.74,4.18v1.09h8.46v-2.69h-3.72l1.21-1.3Z"/><path class="cls-1" d="m56.11,80.76c-.2,0-.4.02-.6.04l.02-1.52h4.57v-2.68h-7.08l-.33,6.98c.95-.44,1.89-.6,2.6-.6,1.74,0,2.51.63,2.51,1.56,0,1.02-.87,1.63-2.45,1.63-1.16,0-2.16-.35-2.74-.74v2.52c.6.38,1.56.8,3.02.8,3.32,0,5.01-1.76,5.01-4.17,0-2.2-1.72-3.81-4.52-3.81"/><path class="cls-1" d="m70.55,80.57c-.34,0-.67.04-1,.11l2.54-4.1h-3.29l-2.27,3.81c-1.02,1.69-1.45,2.96-1.45,4.17,0,2.32,1.76,4.18,4.59,4.18s4.75-1.85,4.75-4.36c0-2.01-1.51-3.81-3.88-3.81m-.87,5.48c-1.07,0-1.76-.67-1.76-1.62,0-.38.07-.82.29-1.36.45-.22.96-.36,1.47-.36,1.07,0,1.76.67,1.76,1.67s-.69,1.67-1.76,1.67"/><path class="cls-1" d="m84.06,81.16l2.78-3.49v-1.09h-7.91v2.68h3.68l-1.94,2.32v1.8c.44-.15.91-.24,1.4-.24,1.43,0,2.2.6,2.2,1.51s-.87,1.51-2.56,1.51c-1.05,0-2.05-.35-2.63-.75v2.52c.6.38,1.56.8,3.02.8,3.32,0,5.01-1.72,5.01-4.09,0-1.67-1.05-3.01-3.03-3.5"/><path class="cls-2" d="m162.36,31.41c-1.41-12.44-7.65-21.69-18.68-27.62C139.27,1.41,134.51.16,129.47,0c-1.38-.04-2.09.42-1.98,1.88.05.61.06,1.24,0,1.85-.18,1.71.61,2.23,2.26,2.33,13.52.79,24.79,11.65,26.3,25.21q.35,3.16,3.45,3.17c3.04.02,3.21,0,2.87-3.03"/><path class="cls-2" d="m131.21,11.6c-3.72-.5-3.67-.5-3.73,3.35-.03,1.69.3,2.5,2.27,2.78,7.97,1.11,13.41,6.37,14.72,14.19.37,2.21,1.32,2.98,3.08,2.58,3.73,0,3.74-.02,3.24-3.53-1.39-9.71-9.82-18.05-19.58-19.35"/><path class="cls-2" d="m132.08,23.68c-4.05-1.67-4.58-1.25-4.58,3.05,0,1.4.27,2.31,1.82,2.67,1.55.35,2.79,1.47,3.26,2.89.65,1.98,1.8,2.57,3.36,2.22,3.8,0,4.15-.51,2.9-3.79-1.25-3.31-3.5-5.7-6.76-7.04"/></g></svg>