<?xml version="1.0" encoding="UTF-8"?><svg id="Layer_2" xmlns="http://www.w3.org/2000/svg" xmlns:xlink="http://www.w3.org/1999/xlink" viewBox="0 0 83.96 74.79"><defs><style>.cls-1{fill:#f05624;}.cls-2{clip-path:url(#clippath);}.cls-3{fill:none;}</style><clipPath id="clippath"><rect class="cls-3" y="0" width="83.96" height="74.79"/></clipPath></defs><g id="Layer_1-2"><g class="cls-2"><path class="cls-1" d="m83.96,74.79h-13.16l-.56-1.35c-9.32-22.32-13.56-39-15.47-49.9h15.05c.61,12.65,3.2,38.75,14.13,51.24"/><path class="cls-1" d="m71.33,13.93v4.27c0,.98-.72,1.8-1.63,1.86h-15.5c-.03-.18-.07-.35-.09-.51-.38-2.64-.66-5.18-.82-7.49h16.31c.96,0,1.73.84,1.73,1.87"/><path class="cls-1" d="m53.29,12.05h-.35c.12-.07.23-.18.33-.28v.07c0,.07.02.14.02.21"/><path class="cls-1" d="m51.73,2.28v5.14c0,1.24-.93,2.26-2.07,2.26H17.34c-1.15-.02-2.06-1.01-2.06-2.28V2.28c0-1.26.93-2.28,2.08-2.28h32.3c1.16,0,2.08,1.01,2.08,2.28"/><path class="cls-1" d="m32.05,59.64c-5.92-.83-9.03-4.09-9.83-9.85,5.99.84,9.04,4.21,9.83,9.85"/><path class="cls-1" d="m44.79,47.15c-.81,5.85-4,9.04-9.85,9.85.84-5.97,4.14-9,9.85-9.85"/><path class="cls-1" d="m50.7,51.65c0,9.04-7.02,16.46-15.89,17.14v-9.13c7.67-.86,12.17-5.35,12.74-13.94,0-.35-.14-.68-.38-.93-.26-.25-.61-.46-.95-.39-5.7,0-11.24,2.89-13.26,9.45-2.36-4.56-7.55-6.81-12.19-6.81-.35-.02-.68.14-.93.39-.24.24-.39.58-.39.93,0,7.42,4.49,13.02,12.74,13.94v6.49c-8.87-.68-15.89-8.1-15.89-17.14s7.71-17.2,17.2-17.2,17.2,7.71,17.2,17.2"/><path class="cls-1" d="m33.5,71.47c-10.93,0-19.82-8.89-19.82-19.82s8.89-19.82,19.82-19.82,19.82,8.89,19.82,19.82-8.89,19.82-19.82,19.82M49.86,13.16c-.19.05,1.15.02-32.52.02-.07,0-.12,0-.19-.02C16.32,23.43,12.93,43.77,0,74.79h67.02c-8.15-19.58-15.12-40.8-17.16-61.63"/></g></g></svg>