<?xml version="1.0" encoding="UTF-8"?><svg id="Layer_2" xmlns="http://www.w3.org/2000/svg" xmlns:xlink="http://www.w3.org/1999/xlink" viewBox="0 0 96.78 99.58"><defs><style>.cls-1{clip-path:url(#clippath-2);}.cls-2{clip-path:url(#clippath-1);}.cls-3{fill:#fdb615;}.cls-4{clip-path:url(#clippath);}.cls-5{fill:none;}</style><clipPath id="clippath"><rect class="cls-5" x="0" width="96.78" height="99.58"/></clipPath><clipPath id="clippath-1"><rect class="cls-5" x="0" width="96.78" height="99.58"/></clipPath><clipPath id="clippath-2"><rect class="cls-5" x="0" width="96.78" height="99.58"/></clipPath></defs><g id="Layer_1-2"><g class="cls-4"><path class="cls-3" d="m62.74,41.05h-14.15l1.32,14.14h19.01l-4.34-12.8c-.27-.8-1.01-1.33-1.85-1.33"/><path class="cls-3" d="m1.94,80.22h22.47l1.96-21.05H6.35L.11,77.57c-.22.6-.12,1.28.25,1.81.35.52.95.84,1.57.84"/></g><polygon class="cls-3" points="44.68 57.05 31.95 57.05 30.65 71.19 45.99 71.19 44.68 57.05"/><polygon class="cls-3" points="44.68 40.93 31.95 40.93 30.65 55.07 45.99 55.07 44.68 40.93"/><g class="cls-2"><path class="cls-3" d="m74.7,80.22c.62,0,1.23-.32,1.58-.84.37-.54.47-1.21.25-1.81l-6.24-18.4h-20l1.94,21.05h22.47Z"/><path class="cls-3" d="m28.04,41.05h-14.15c-.84,0-1.57.54-1.85,1.33l-4.33,12.8h19.03l1.3-14.14Z"/></g><polygon class="cls-3" points="46.35 75.17 30.28 75.17 28.32 96.23 48.32 96.23 46.35 75.17"/><g class="cls-1"><path class="cls-3" d="m84.24,14.84c.5,0,.99-.2,1.38-.58l4-4.1c.76-.78.76-2.03,0-2.81-.78-.78-2-.78-2.76,0l-3.98,4.08c-.78.8-.78,2.05,0,2.83.37.38.87.58,1.36.58"/><path class="cls-3" d="m59.01,14.26c.39.38.89.58,1.38.58s.99-.2,1.38-.58c.76-.78.76-2.05,0-2.83l-4-4.08c-.76-.78-1.98-.78-2.74,0-.76.78-.76,2.03,0,2.81l3.98,4.1Z"/><path class="cls-3" d="m87.23,25.08c0,1.1.87,1.99,1.94,1.99h5.66c1.07,0,1.94-.89,1.94-1.99s-.87-1.99-1.94-1.99h-5.66c-1.07,0-1.94.89-1.94,1.99"/><path class="cls-3" d="m72.32,37.2c6.53,0,11.84-5.44,11.84-12.13s-5.31-12.15-11.84-12.15-11.86,5.46-11.86,12.15,5.33,12.13,11.86,12.13"/><path class="cls-3" d="m88.24,43.38c.49,0,.99-.2,1.38-.58.76-.78.76-2.05,0-2.83l-4-4.08c-.76-.78-1.98-.78-2.74,0-.78.78-.78,2.03,0,2.81l3.98,4.1c.39.38.87.58,1.38.58"/><path class="cls-3" d="m72.32,9.78c1.07,0,1.94-.9,1.94-1.99V1.99C74.27.9,73.39,0,72.32,0s-1.94.9-1.94,1.99v5.8c0,1.09.86,1.99,1.94,1.99"/><path class="cls-3" d="m49.8,27.07h5.66c1.07,0,1.94-.9,1.94-1.99s-.87-1.99-1.94-1.99h-5.66c-1.07,0-1.94.89-1.94,1.99s.87,1.99,1.94,1.99"/><path class="cls-3" d="m29.93,84.21v11.39h-5.36c-1.07,0-1.94.9-1.94,1.99s.87,1.99,1.94,1.99h27.51c1.07,0,1.94-.9,1.94-1.99s-.87-1.99-1.94-1.99h-5.36v-11.39h-16.78Z"/></g></g></svg>