<?xml version="1.0" encoding="UTF-8"?><svg id="Layer_2" xmlns="http://www.w3.org/2000/svg" xmlns:xlink="http://www.w3.org/1999/xlink" viewBox="0 0 92.61 89.37"><defs><style>.cls-1{fill:#005ea7;}.cls-2{clip-path:url(#clippath-1);}.cls-3{clip-path:url(#clippath);}.cls-4{fill:none;}</style><clipPath id="clippath"><rect class="cls-4" x="0" y="0" width="92.61" height="89.37"/></clipPath><clipPath id="clippath-1"><rect class="cls-4" x="0" y="0" width="92.61" height="89.37"/></clipPath></defs><g id="Layer_1-2"><g class="cls-3"><path class="cls-1" d="m92.56,56.98l-3.33-10.41c-.14-.58-.72-1.01-1.45-1.01h-5.2v-4.77c0-.87-.73-1.45-1.45-1.45h-1.16v-5.2c0-.87-.58-1.45-1.45-1.45h-6.36c-.87,0-1.45.58-1.45,1.45v5.2h-1.3c-.87,0-1.45.58-1.45,1.45v4.77h-28.64c-.58,0-1.16.43-1.45,1.01l-3.33,10.41c-.14.43,0,.87.15,1.3.29.43.72.58,1.16.58h55.24c.43,0,.87-.29,1.16-.58.29-.43.43-.87.29-1.3"/><path class="cls-1" d="m18.08,57.99l10.41,10.27-15.47,15.33,5.06-25.6Zm-8.82-9.69h6.36v4.05l-6.36-4.05Zm0-24.73h6.36v4.05l-6.36-4.05Zm9.4,9.4l9.11,5.64-9.11,5.79v-11.43Zm0-9.4h23.86v5.21h-23.86v-5.21Zm3.47-20.68h16.92l3.18,17.64h-23.29l3.18-17.64Zm8.39,33.99l-8.24-5.21h16.63l-8.39,5.21Zm14.75-13.31h6.36l-6.36,4.05v-4.05Zm-10.27,62.91H14.17l16.34-16.05,4.48,4.48v-4.19l-2.46-2.46,2.46-2.46v-4.05l-4.48,4.48-9.83-9.69h10.99c0-.14.14-.43.14-.58l.72-2.32h-14.03v-5.35h15.76l.87-2.75v-.15h-13.02l8.24-5.2,5.79,3.61c.87-.87,1.88-1.3,3.18-1.3h.29l-6.36-3.91,9.11-5.64v9.69h2.89v-11.57l12.15-7.81.14-.14.14-.14c0-.14.14-.14.14-.29v-.14c0-.14.14-.29.14-.58v-3.04h1.45c.87,0,1.45-.58,1.45-1.45,0-.72-.58-1.45-1.45-1.45h-1.45v-2.02h1.45c.87,0,1.45-.58,1.45-1.45s-.58-1.45-1.45-1.45h-1.45v-1.16c0-.72-.72-1.45-1.45-1.45-.87,0-1.45.72-1.45,1.45v1.16h-1.45c-.87,0-1.45.58-1.45,1.45s.58,1.45,1.45,1.45h1.45v2.02h-1.45c-.87,0-1.45.72-1.45,1.45,0,.87.58,1.45,1.45,1.45h1.45v1.59h-10.12l-3.04-17.64h4.77v3.33c0,.87.72,1.45,1.45,1.45s1.45-.58,1.45-1.45V1.45c0-.87-.72-1.45-1.45-1.45H12.87c-.72,0-1.45.58-1.45,1.45v4.77c0,.87.72,1.45,1.45,1.45.87,0,1.45-.58,1.45-1.45v-3.33h4.77l-3.18,17.79H5.79v-1.59h1.45c.72,0,1.45-.58,1.45-1.45,0-.72-.72-1.45-1.45-1.45h-1.45v-2.02h1.45c.72,0,1.45-.58,1.45-1.45s-.72-1.45-1.45-1.45h-1.45v-1.3c0-.72-.73-1.45-1.45-1.45s-1.45.72-1.45,1.45v1.16h-1.45c-.87,0-1.45.58-1.45,1.45s.58,1.45,1.45,1.45h1.45v2.02h-1.45c-.87,0-1.45.72-1.45,1.45,0,.87.58,1.45,1.45,1.45h1.45v3.04c0,.14,0,.29.14.58v.14c0,.15.15.15.29.29l.14.14.14.14,12.15,7.81v14.46H5.79v-1.59h1.45c.72,0,1.45-.58,1.45-1.45s-.72-1.45-1.45-1.45h-1.45v-2.17h1.45c.72,0,1.45-.58,1.45-1.45s-.72-1.45-1.45-1.45h-1.45v-1.16c0-.87-.73-1.45-1.45-1.45s-1.45.58-1.45,1.45v1.16h-1.45c-.87,0-1.45.58-1.45,1.45s.58,1.45,1.45,1.45h1.45v2.02h-1.45c-.87,0-1.45.58-1.45,1.45s.58,1.45,1.45,1.45h1.45v3.04c0,.15,0,.29.14.58v.14c0,.15.15.29.29.29l.14.14.14.14,12,7.66-6.07,30.66H2.6c-.72,0-1.45.58-1.45,1.45s.72,1.45,1.45,1.45h32.68c-.14-.43-.29-.87-.29-1.45v-1.45Z"/></g><rect class="cls-1" x="68.55" y="71.73" width="9.11" height="4.92"/><rect class="cls-1" x="50.47" y="71.73" width="7.38" height="17.5"/><g class="cls-2"><path class="cls-1" d="m65.8,70.43c0-.73.58-1.45,1.45-1.45h12c.87,0,1.45.72,1.45,1.45v7.81c0,.72-.58,1.45-1.45,1.45h-12c-.87,0-1.45-.72-1.45-1.45v-7.81Zm-27.91,17.5c0,.87.58,1.45,1.45,1.45h8.24v-18.94c0-.73.72-1.45,1.45-1.45h10.12c.72,0,1.45.72,1.45,1.45v18.94h27.04c.72,0,1.45-.58,1.45-1.45v-26.18h-51.19v26.18Z"/></g></g></svg>