<?xml version="1.0" encoding="UTF-8"?><svg id="Layer_2" xmlns="http://www.w3.org/2000/svg" xmlns:xlink="http://www.w3.org/1999/xlink" viewBox="0 0 98.01 91.15"><defs><style>.cls-1{clip-path:url(#clippath-2);}.cls-2{clip-path:url(#clippath-1);}.cls-3{fill:#01954b;}.cls-4{clip-path:url(#clippath);}.cls-5{fill:none;}.cls-6{clip-path:url(#clippath-3);}</style><clipPath id="clippath"><rect class="cls-5" y="0" width="98.01" height="91.15"/></clipPath><clipPath id="clippath-1"><rect class="cls-5" y="0" width="98.01" height="91.15"/></clipPath><clipPath id="clippath-2"><rect class="cls-5" y="0" width="98.01" height="91.15"/></clipPath><clipPath id="clippath-3"><rect class="cls-5" y="0" width="98.01" height="91.15"/></clipPath></defs><g id="Layer_1-2"><g class="cls-4"><path class="cls-3" d="m47.62,26.89c2.09.98,4.58.08,5.56-2.01.98-2.09.08-4.58-2.01-5.56-2.09-.98-4.58-.08-5.56,2.01-.01.03-.02.05-.04.08-.92,2.08-.01,4.51,2.05,5.48"/></g><polygon class="cls-3" points="47.79 31.15 44.99 90.94 45.07 91.11 45.2 91.15 53.48 91.15 53.6 91.11 53.69 90.94 51.05 36.04 51.05 35.96 48.21 31.07 47.96 30.94 47.79 31.15"/><g class="cls-2"><path class="cls-3" d="m48.42,17.31c.42-.04.84-.04,1.26,0,.72.04,1.43.21,2.09.5,1.03.48,1.9,1.25,2.51,2.22h.21c1.5-2,2.78-4.16,3.81-6.44,1.4-2.96,2.28-6.15,2.59-9.41,0-2.01-.25-3.47-1.34-4.18h-.59c-2.42,0-5.94,4.18-8.61,9.95-1.05,2.28-1.82,4.68-2.3,7.15l.38.21Z"/><path class="cls-3" d="m43.44,22.79c.04-.72.21-1.43.5-2.09v-.63h-3.85c-1.21-.06-2.42-.06-3.64,0-2.94.25-5.83.93-8.57,2.01-2.17.92-3.47,2.17-3.47,3.3v.25c0,.96,1,1.67,2.38,2.21,1.75.61,3.59.94,5.43.96h1.63c1.21.06,2.43.06,3.64,0,2.5-.23,4.97-.75,7.36-1.55-1.08-1.23-1.59-2.85-1.42-4.47"/><path class="cls-3" d="m23.46,40.6c2.15.85,4.58-.21,5.42-2.36.85-2.15-.21-4.58-2.36-5.42-2.15-.85-4.58.21-5.42,2.36,0,.02-.02.05-.03.07-.8,2.14.26,4.52,2.38,5.35"/></g><polygon class="cls-3" points="23.41 44.03 20.61 90.94 20.7 91.11 20.82 91.15 29.1 91.15 29.23 91.11 29.31 90.94 26.67 48.92 26.67 48.84 23.83 43.95 23.58 43.86 23.41 44.03"/><g class="cls-1"><path class="cls-3" d="m35.37,18.69v-1.55c0-2.05-.46-3.55-1.59-4.18h-.59c-1.26,0-2.63,1.13-4.18,3.01-1.2,1.61-2.2,3.35-3.01,5.19l1.04-.54c2.68-1.01,5.47-1.66,8.32-1.92"/><path class="cls-3" d="m23.96,27.97c0,.96-.42,1.92-.54,2.8h1.25c.71,0,1.42.13,2.09.38v-.21.21c1.08.4,2.01,1.11,2.68,2.05.65-.96,1.24-1.97,1.75-3.01-1.95-.08-3.88-.43-5.73-1.05-.55-.33-1.05-.72-1.51-1.17"/><path class="cls-3" d="m30.82,38.43h0v.29c-.77,2.07-2.66,3.51-4.85,3.72.87,2.43,2.04,4.75,3.47,6.9,2.42,3.62,6.03,6.28,10.2,7.53.44.02.87-.13,1.21-.42.51-.47.77-1.15.71-1.84-.71-4.04-2.59-7.79-5.39-10.79-1.57-2-3.37-3.81-5.35-5.39"/><path class="cls-3" d="m20.57,40.68c-.96-1.07-1.51-2.45-1.55-3.89,0-.7.13-1.39.38-2.05v-.58c-.67-.05-1.34-.05-2.01,0-1.84-.06-3.69.04-5.52.29-2.89.34-5.71,1.13-8.36,2.34-2.13,1.04-3.47,2.26-3.51,3.51v.67c0,.92,1.05,1.59,2.42,2.05,1.72.4,3.5.56,5.27.46,1.85-.02,3.69-.17,5.52-.46,2.5-.4,4.94-1.09,7.28-2.05l.08-.29Z"/><path class="cls-3" d="m60.17,30.73c-1.45-2.04-3.13-3.91-5.02-5.56v.29c-.96,2.24-3.21,3.64-5.64,3.51.97,2.33,2.2,4.53,3.68,6.56,2.19,3.77,5.64,6.64,9.74,8.11.39.03.78-.09,1.09-.33.56-.44.87-1.13.84-1.84-.53-3.95-2.15-7.67-4.68-10.75"/><path class="cls-3" d="m72.5,32.61c-2.24.57-3.59,2.85-3.02,5.08.57,2.24,2.85,3.59,5.08,3.02,2.24-.57,3.59-2.85,3.02-5.08,0-.03-.02-.06-.03-.09-.61-2.19-2.86-3.49-5.06-2.93"/></g><polygon class="cls-3" points="74.68 44.78 71.92 48.96 71.88 49.09 69.2 90.94 69.24 91.11 69.41 91.15 77.69 91.15 77.81 91.11 77.9 90.94 75.09 44.87 74.93 44.7 74.68 44.78"/><g class="cls-6"><path class="cls-3" d="m66.23,25.76c.63,2.37,1.51,4.67,2.63,6.86.76-.86,1.77-1.48,2.88-1.76.49-.15,1-.22,1.51-.21.62,0,1.25.09,1.84.29.12-2.48-.05-4.96-.5-7.4-.7-2.8-1.79-5.5-3.26-7.98-1.25-2.01-2.55-3.26-3.8-3.26h-.42c-1.46.42-2.05,2.59-2.05,5.52.06,2.69.45,5.35,1.17,7.94"/><path class="cls-3" d="m72.5,42.61h0c-2.15-.45-3.88-2.06-4.48-4.18v-.29h-.21l-1.59,1.13c.29.95.43,1.94.42,2.93,0,1.15-.52,2.25-1.42,2.97-.58.39-1.26.6-1.96.59h-.21c-1.01-.1-1.98-.43-2.84-.96-2.4,2.33-4.05,5.34-4.72,8.61-.03.55.15,1.08.5,1.51.42.38.98.57,1.55.54,4.12-.95,7.82-3.21,10.54-6.44,1.81-1.77,3.39-3.75,4.72-5.9l-.29-.5Z"/><path class="cls-3" d="m94.75,39.1c-2.48-1.47-5.15-2.59-7.94-3.3-2.43-.66-4.93-1.04-7.44-1.13v.29c.13.49.2,1,.21,1.51-.06,1.61-.79,3.13-2.01,4.18v.21c2.23,1.18,4.59,2.1,7.03,2.76,2.59.71,5.26,1.1,7.94,1.17,2.93,0,5.06-.63,5.48-2.05v-.46c0-.63-1.25-1.92-3.26-3.18"/></g></g></svg>