<?xml version="1.0" encoding="UTF-8"?><svg id="Layer_2" xmlns="http://www.w3.org/2000/svg" viewBox="0 0 142.45 161.11"><defs><style>.cls-1{fill:#feb515;}</style></defs><g id="Layer_1-2"><path class="cls-1" d="m12.52,71.96H1.95c-1.08,0-1.95-.87-1.95-1.95s.87-1.95,1.95-1.95h10.57c1.08,0,1.95.87,1.95,1.95s-.87,1.95-1.95,1.95Zm6.88,25.72l-9.7,5.6c-.93.54-1.25,1.73-.71,2.66.54.93,1.73,1.25,2.66.71l9.7-5.6c.92-.56,1.22-1.76.66-2.68-.54-.89-1.69-1.2-2.61-.7Zm102.67-55.08c.34,0,.68-.09.97-.26l8.62-4.98c.93-.54,1.25-1.73.71-2.66-.54-.93-1.73-1.25-2.66-.71h0l-8.62,4.98c-.93.54-1.25,1.73-.72,2.66.35.61.99.98,1.69.98h0Zm-50.85-29.35c1.08,0,1.95-.87,1.95-1.95V1.95c0-1.08-.87-1.95-1.95-1.95s-1.95.87-1.95,1.95v9.35c0,1.08.87,1.95,1.95,1.95Zm28.38,7.6c.93.54,2.12.22,2.66-.71h0s4.76-8.24,4.76-8.24c.54-.93.22-2.12-.71-2.66s-2.12-.22-2.66.71l-4.76,8.25c-.53.93-.21,2.12.71,2.65Zm-59.42-.71c.61.89,1.82,1.12,2.71.51.8-.54,1.08-1.58.66-2.45l-4.76-8.25c-.54-.93-1.73-1.25-2.66-.71-.93.54-1.25,1.73-.71,2.66l4.76,8.24Zm100.32,47.92h-10.57c-1.08,0-1.95.87-1.95,1.95s.87,1.95,1.95,1.95h10.57c1.08,0,1.95-.87,1.95-1.95s-.87-1.95-1.95-1.95ZM21.35,38.96l-8.62-4.98c-.93-.54-2.12-.22-2.66.71-.54.93-.22,2.12.71,2.66l8.62,4.98c.29.17.63.26.97.26,1.08,0,1.95-.87,1.95-1.94,0-.7-.37-1.35-.98-1.69h0Zm111.39,64.31l-9.7-5.6c-.93-.54-2.12-.22-2.66.71-.54.93-.22,2.12.71,2.66l9.7,5.6c.93.54,2.12.22,2.66-.71.54-.93.22-2.12-.71-2.66Zm-62.83,57.84h2.64c2.52-.25,4.55-2.17,4.93-4.68h-12.5c.38,2.5,2.41,4.43,4.93,4.68Zm11.43-15.37h-20.23c-1.39,0-2.57,1.56-2.57,3.39s1.18,3.39,2.57,3.39h20.24c1.39,0,2.57-1.56,2.57-3.39s-1.18-3.39-2.57-3.39h0Zm-25.12-15.6c0,2.43,1.19,5.27,4.56,5.27h20.89c3.36,0,4.56-2.84,4.56-5.27,0-1.17.06-2.34.19-3.5h-30.37c.12,1.16.19,2.33.19,3.5h0Zm21.87-70.53c3.79-3.8,3.79-9.95,0-13.74l-6.87-6.87-6.88,6.87c-3.79,3.8-3.79,9.95,0,13.74l4.92,4.92v-15.18c0-1.08.87-1.95,1.95-1.95s1.95.87,1.95,1.95v15.18l4.92-4.92Zm-2.17,36.54h6.96c5.36,0,9.71-4.35,9.72-9.72v-9.72h-9.72c-5.37,0-9.71,4.35-9.72,9.72v6.96l10.74-10.74c.76-.76,2-.76,2.76,0s.76,2,0,2.76l-10.74,10.74Zm-17.39-8.49l10.74,10.74v-6.95c0-5.37-4.35-9.71-9.72-9.72h-9.72v9.72c0,5.36,4.35,9.71,9.72,9.72h6.96l-10.74-10.74c-.76-.76-.76-2,0-2.76s2-.76,2.76,0h0Zm12.69-61.56c-24.47,0-44.3,19.84-44.3,44.31,0,13.71,6.35,26.65,17.2,35.04,5.64,4.29,9.62,10.4,11.26,17.29h13.89v-17.67h-9.72c-7.52,0-13.61-6.1-13.62-13.62v-11.68c0-1.08.87-1.95,1.95-1.95h11.67c3.66,0,7.16,1.47,9.72,4.09v-11.88l-7.68-7.68c-5.31-5.32-5.31-13.93,0-19.26l8.25-8.25c.76-.76,1.99-.76,2.76,0l8.25,8.25c5.31,5.32,5.31,13.93,0,19.26l-7.68,7.68v6.87c2.56-2.62,6.06-4.09,9.72-4.09h11.67c1.08,0,1.95.87,1.95,1.95v11.67c0,7.52-6.1,13.61-13.62,13.62h-9.72v22.69h13.91c1.64-6.89,5.62-13.01,11.26-17.29,19.36-14.96,22.93-42.79,7.97-62.15-8.39-10.86-21.35-17.22-35.08-17.22Z"/></g></svg>