<?xml version="1.0" encoding="UTF-8"?><svg id="Layer_2" xmlns="http://www.w3.org/2000/svg" viewBox="0 0 125.65 125.65"><defs><style>.cls-1{fill:#005ea7;}</style></defs><g id="Layer_1-2"><path class="cls-1" d="m10.47,81.67c-.45,0-.89-.15-1.26-.42l-8.38-6.28,2.51-3.35,4.2,3.15c-.84-3.91-1.26-7.9-1.26-11.94,0-12.2,3.82-23.81,11.05-33.59,7.09-9.58,16.8-16.58,28.09-20.22l1.29,3.99c-10.45,3.38-19.44,9.85-26.01,18.73-6.7,9.05-10.23,19.81-10.23,31.1,0,5.5.85,10.92,2.52,16.11.2.63.1,1.33-.3,1.87-.39.54-1.02.86-1.68.87h-.53s-.01,0-.02,0Z"/><path class="cls-1" d="m80.22,116.64l-1.29-3.99c10.45-3.38,19.44-9.85,26.01-18.73,6.7-9.05,10.23-19.81,10.23-31.1,0-5.5-.85-10.92-2.52-16.11-.2-.63-.1-1.33.3-1.87.39-.54,1.02-.86,1.68-.87h.53c.46,0,.91.14,1.27.41l8.38,6.28-2.51,3.35-4.2-3.15c.84,3.91,1.26,7.9,1.26,11.94,0,12.2-3.82,23.81-11.05,33.59-7.09,9.58-16.8,16.58-28.09,20.22Z"/><path class="cls-1" d="m62.82,52.35v-17.89l-19.24,30.46h17.14c1.16,0,2.09.94,2.09,2.09v23.2l19.51-35.76h-17.41c-1.16,0-2.09-.94-2.09-2.09Z"/><rect class="cls-1" x="87.95" y="75.39" width="4.19" height="4.19"/><path class="cls-1" d="m104.37,42.88l-1.4.13c-.53.05-1.07.08-1.6.09h-.11s-.11,0-.11,0c-6.31-.16-12.34-2.94-16.55-7.62l-6.51-7.24c-2.4-2.67-3.19-6.34-2.33-9.66-4.1-1.2-8.43-1.84-12.92-1.84-25.44,0-46.07,20.63-46.07,46.07,0,7.14,1.63,13.91,4.53,19.94l1.4-.13c.53-.05,1.07-.08,1.6-.09h.11s.11,0,.11,0c6.31.16,12.34,2.94,16.55,7.62l6.51,7.24c2.4,2.67,3.19,6.34,2.33,9.66,4.1,1.2,8.43,1.84,12.92,1.84,25.44,0,46.07-20.63,46.07-46.07,0-7.14-1.63-13.91-4.53-19.94Zm-70.86-1v-4.19h4.19v-4.19h4.19v4.19h4.19v4.19h-4.19v4.19h-4.19v-4.19h-4.19Zm29.06,57.54c-.37.68-1.09,1.09-1.84,1.09-.17,0-.35-.02-.52-.07-.93-.24-1.58-1.07-1.58-2.03v-29.32h-18.85c-.76,0-1.47-.41-1.83-1.08s-.34-1.48.06-2.13l25.13-39.79c.5-.79,1.46-1.15,2.35-.89.9.26,1.51,1.08,1.51,2.01v23.04h18.85c.74,0,1.42.39,1.8,1.03.38.64.39,1.42.04,2.07l-25.13,46.07Zm33.76-19.85h-4.19v4.19h-4.19v-4.19h-4.19v-4.19h4.19v-4.19h4.19v4.19h4.19v4.19Z"/><rect class="cls-1" x="37.69" y="37.69" width="4.19" height="4.19"/><path class="cls-1" d="m37.94,92.96l6.51,7.24c2.1,2.33,2.14,5.82.18,8.2l-14.34-7.63-1.97,3.7,15.64,8.62h25.13c6.91,0,12.49,5.65,12.39,12.56h-39.44l-31.59-16.75H0v-20.94h10.47l12.59-1.14c.45-.04.89-.07,1.34-.08,5.13.13,10.08,2.38,13.55,6.23Z"/><path class="cls-1" d="m87.7,32.69l-6.51-7.24c-2.1-2.33-2.14-5.82-.18-8.2l14.34,7.63,1.97-3.7-15.64-8.62h-25.13c-6.91,0-12.49-5.65-12.39-12.56h39.44l31.59,16.75h10.47v20.94h-10.47l-12.59,1.14c-.45.04-.89.07-1.34.08-5.13-.13-10.08-2.38-13.55-6.23Z"/></g></svg>