<?xml version="1.0" encoding="UTF-8"?><svg id="Layer_2" xmlns="http://www.w3.org/2000/svg" viewBox="0 0 261.69 64.34"><defs><style>.cls-1{fill:#e95a22;}.cls-2{fill:#00924e;}.cls-3{fill:#f5b113;}.cls-4{fill:#0060a0;}.cls-5{fill:#231f20;}</style></defs><g id="Layer_1-2"><polygon class="cls-5" points="19.15 0 0 34.34 12.72 34.34 25.52 11.42 19.15 0"/><path class="cls-1" d="m28.36,16.51c-.15.27-.46.79-.76,1.36l-4.07,7.28h0c-1.43,2.47-1.55,6.06,1.23,8.11,1.29.96,2.85,1.08,3.39,1.08h10.15l-9.94-17.82Z"/><path class="cls-4" d="m190.04,27.62c0,4.37-3.54,7.92-7.92,7.92s-7.92-3.54-7.92-7.92,3.54-7.92,7.92-7.92,7.92,3.55,7.92,7.92"/><polygon class="cls-5" points="165.47 34.34 152.75 34.34 171.9 0 178.27 11.42 165.47 34.34"/><path class="cls-5" d="m74.06,12.72c0,7.81-5.89,12.67-15.27,12.67h-5.99v8.96h-9.72V0h15.71C68.17,0,74.06,4.86,74.06,12.72m-9.82,0c0-3.19-2.01-5.06-6.04-5.06h-5.4v10.07h5.4c4.03,0,6.04-1.87,6.04-5.01"/><path class="cls-5" d="m110.43,34.34l-7.39-10.77c4.27-2.06,6.73-5.79,6.73-10.85C109.76,4.86,103.87,0,94.49,0h-15.71v34.34h9.72v-9.1h5.3l6.21,9.1h10.41Zm-16.53-16.61h-5.4V7.66h5.4c4.03,0,6.04,1.87,6.04,5.06s-2.01,5.01-6.04,5.01"/><polygon class="cls-5" points="236.11 34.34 223.38 34.34 242.54 0 248.91 11.42 236.11 34.34"/><path class="cls-2" d="m257,25.93h0c-.96-1.84-2.87-3.11-5.09-3.11h-5.76v5.76c0,3.18,2.58,5.76,5.76,5.76h9.77l-4.69-8.41Z"/><polygon class="cls-5" points="125.05 34.34 112.33 34.34 131.48 0 137.85 11.42 125.05 34.34"/><polygon class="cls-5" points="231.18 0 219.22 0 207.52 22.39 195.11 0 183.21 0 202.36 34.34 212.03 34.34 231.18 0"/><polygon class="cls-3" points="138.56 34.34 132.56 34.34 141.6 18.14 150.63 34.34 138.56 34.34"/><polygon class="cls-5" points="43.08 54.24 49.38 54.24 49.38 55.85 44.81 55.85 44.81 58.38 49.23 58.38 49.23 59.98 44.81 59.98 44.81 62.6 49.53 62.6 49.53 64.19 43.08 64.19 43.08 54.24"/><polygon class="cls-5" points="77.35 57.83 77.35 64.19 75.66 64.19 75.66 54.24 76.41 54.24 82.22 60.61 82.22 54.24 83.91 54.24 83.91 64.19 83.17 64.19 77.35 57.83"/><polygon class="cls-5" points="110.63 54.24 116.94 54.24 116.94 55.85 112.37 55.85 112.37 58.38 116.78 58.38 116.78 59.98 112.37 59.98 112.37 62.6 117.09 62.6 117.09 64.19 110.63 64.19 110.63 54.24"/><path class="cls-5" d="m150.45,57.33c0,1.36-.75,2.49-2.02,2.94l2.38,3.92h-1.99l-2.08-3.71h-1.78v3.71h-1.73v-9.95h3.92c2.01,0,3.3,1.31,3.3,3.09m-5.49-1.57v3.21h2.19c.92,0,1.51-.65,1.51-1.6s-.59-1.61-1.51-1.61h-2.19Z"/><path class="cls-5" d="m181.06,64.34c-3.03,0-5.04-2.1-5.04-5.12s2.02-5.13,5.19-5.13c1.19,0,2.29.32,3.06.71v1.66c-.74-.44-1.98-.74-3-.74-2.19,0-3.44,1.4-3.44,3.5s1.25,3.53,3.36,3.53c.54,0,1.11-.1,1.66-.36v-2.26h-1.87v-1.58h3.62v4.52c-.81.81-2.16,1.28-3.54,1.28"/><polygon class="cls-5" points="213.38 64.19 213.38 60.09 209.96 54.24 211.91 54.24 214.29 58.46 216.66 54.24 218.56 54.24 215.13 60.04 215.13 64.19 213.38 64.19"/></g></svg>