<?xml version="1.0" encoding="UTF-8"?><svg id="Layer_2" xmlns="http://www.w3.org/2000/svg" viewBox="0 0 463.33 61.63"><defs><style>.cls-1{fill:#fff;}.cls-2{fill:#005ea7;}.cls-3{fill:#f05624;}.cls-4{fill:#fdb615;}.cls-5{fill:#01954b;}.cls-6{fill:#00853d;}</style></defs><g id="Layer_1-2"><path class="cls-5" d="m32.2,18.18c1.41.66,3.1.05,3.76-1.36.66-1.41.05-3.1-1.36-3.76s-3.1-.05-3.76,1.36c-.01.02-.02.04-.03.06-.62,1.41,0,3.05,1.39,3.7"/><polygon class="cls-5" points="34.52 24.31 32.59 21 32.42 20.92 32.31 21.06 30.42 61.48 30.47 61.6 30.56 61.62 36.16 61.62 36.24 61.6 36.3 61.48 34.52 24.37 34.52 24.31"/><path class="cls-5" d="m32.74,11.7c.28-.03.57-.03.85,0,.49.03.97.14,1.42.34.7.32,1.29.84,1.69,1.5h.14c1.02-1.35,1.88-2.81,2.57-4.35.95-2,1.54-4.15,1.75-6.36,0-1.36-.17-2.35-.9-2.83h-.4c-1.64,0-4.01,2.83-5.82,6.73-.71,1.55-1.23,3.17-1.55,4.84l.25.14Z"/><path class="cls-5" d="m29.37,15.41c.03-.49.14-.97.34-1.41v-.42h-2.6c-.82-.04-1.64-.04-2.46,0-1.99.17-3.94.63-5.8,1.36-1.47.62-2.35,1.47-2.35,2.23v.17c0,.65.68,1.13,1.61,1.5,1.18.42,2.42.63,3.67.65h1.1c.82.04,1.64.04,2.46,0,1.69-.16,3.36-.51,4.97-1.05-.73-.83-1.08-1.93-.96-3.02"/><path class="cls-5" d="m15.86,27.45c1.45.57,3.09-.14,3.67-1.59.57-1.45-.14-3.09-1.59-3.67s-3.09.14-3.67,1.59c0,.02-.01.03-.02.05-.54,1.45.18,3.05,1.61,3.62"/><polygon class="cls-5" points="18.04 33.02 16.11 29.71 15.94 29.65 15.83 29.77 13.94 61.48 13.99 61.6 14.08 61.63 19.68 61.63 19.76 61.6 19.82 61.48 18.04 33.07 18.04 33.02"/><path class="cls-5" d="m23.92,12.64v-1.05c0-1.38-.31-2.4-1.07-2.83h-.4c-.85,0-1.78.76-2.83,2.04-.81,1.09-1.49,2.26-2.04,3.5l.71-.37c1.81-.68,3.7-1.12,5.63-1.3"/><path class="cls-5" d="m16.2,18.91c0,.65-.28,1.3-.37,1.89h.85c.48,0,.96.09,1.41.26v-.14.14c.73.27,1.36.75,1.81,1.38.44-.65.84-1.33,1.19-2.03-1.32-.05-2.62-.29-3.87-.71-.37-.22-.71-.49-1.02-.79"/><path class="cls-5" d="m20.83,25.98h0v.2c-.52,1.4-1.8,2.37-3.28,2.52.59,1.65,1.38,3.21,2.35,4.67,1.64,2.45,4.08,4.25,6.9,5.09.3.01.59-.09.82-.28.35-.32.52-.78.48-1.24-.48-2.73-1.75-5.27-3.65-7.29-1.06-1.35-2.28-2.57-3.62-3.65"/><path class="cls-5" d="m13.91,27.5c-.65-.73-1.02-1.66-1.05-2.63,0-.47.09-.94.26-1.38v-.4c-.45-.03-.91-.03-1.36,0-1.25-.04-2.49.02-3.73.2-1.96.23-3.86.77-5.65,1.58-1.44.71-2.35,1.53-2.38,2.38v.45c0,.62.71,1.08,1.64,1.39,1.17.28,2.37.38,3.56.31,1.25-.01,2.5-.12,3.73-.31,1.69-.27,3.34-.73,4.92-1.39l.06-.2Z"/><path class="cls-5" d="m40.68,20.78c-.98-1.38-2.12-2.65-3.39-3.76v.2c-.65,1.51-2.17,2.46-3.82,2.38.65,1.57,1.49,3.06,2.49,4.44,1.48,2.55,3.81,4.49,6.59,5.49.26.02.53-.06.73-.23.38-.3.59-.76.57-1.24-.36-2.67-1.46-5.19-3.17-7.27"/><path class="cls-5" d="m49.02,22.05c-1.51.39-2.43,1.93-2.04,3.44.39,1.51,1.93,2.43,3.44,2.04,1.51-.39,2.42-1.92,2.04-3.44,0-.02,0-.04-.02-.06-.41-1.48-1.93-2.36-3.42-1.98"/><polygon class="cls-5" points="50.66 30.22 50.49 30.28 48.62 33.1 48.6 33.19 46.79 61.48 46.81 61.6 46.93 61.63 52.52 61.63 52.61 61.6 52.67 61.48 50.77 30.33 50.66 30.22"/><path class="cls-5" d="m44.78,17.41c.42,1.6,1.02,3.16,1.78,4.64.52-.59,1.2-1,1.95-1.19.33-.1.67-.15,1.02-.14.42,0,.84.06,1.24.2.08-1.68-.03-3.36-.34-5.01-.47-1.9-1.21-3.71-2.2-5.4-.85-1.36-1.73-2.21-2.57-2.21h-.28c-.99.28-1.38,1.75-1.38,3.73.04,1.82.3,3.62.79,5.37"/><path class="cls-5" d="m49.02,28.81h0c-1.46-.3-2.62-1.39-3.03-2.83v-.2h-.14l-1.07.76c.19.64.29,1.31.28,1.98,0,.78-.35,1.52-.96,2.01-.39.26-.86.4-1.33.4h-.14c-.68-.06-1.34-.29-1.92-.65-1.62,1.58-2.73,3.61-3.19,5.82-.02.37.1.73.34,1.02.29.26.66.39,1.05.37,2.78-.64,5.28-2.17,7.12-4.35,1.22-1.19,2.3-2.54,3.19-3.99l-.2-.34Z"/><path class="cls-5" d="m64.06,26.43c-1.67-1-3.48-1.75-5.37-2.23-1.64-.45-3.33-.7-5.03-.76v.2c.09.33.13.67.14,1.02-.04,1.09-.53,2.11-1.36,2.83v.14c1.51.8,3.1,1.42,4.75,1.87,1.75.48,3.55.75,5.37.79,1.98,0,3.42-.42,3.7-1.38v-.31c0-.43-.85-1.3-2.2-2.15"/><path class="cls-4" d="m242.7,25.4h-8.76l.82,8.75h11.76l-2.68-7.93c-.17-.49-.63-.83-1.14-.83"/><path class="cls-4" d="m205.07,49.65h13.91l1.21-13.03h-12.39l-3.86,11.39c-.13.37-.07.79.16,1.12.22.32.59.52.97.52"/><polygon class="cls-4" points="231.52 25.4 223.65 25.4 222.84 34.15 232.33 34.15 231.52 25.4"/><path class="cls-4" d="m250.1,49.65c.39,0,.76-.2.97-.52.23-.33.29-.75.16-1.12l-3.86-11.39h-12.38l1.2,13.03h13.91Z"/><path class="cls-4" d="m221.23,25.4h-8.76c-.52,0-.97.33-1.14.83l-2.68,7.93h11.78l.81-8.75Z"/><polygon class="cls-4" points="232.56 36.62 222.61 36.62 221.4 49.65 233.77 49.65 232.56 36.62"/><path class="cls-4" d="m256,9.18c.31,0,.61-.12.85-.36l2.48-2.54c.47-.48.47-1.26,0-1.74-.48-.48-1.24-.48-1.71,0l-2.47,2.53c-.48.49-.48,1.27,0,1.75.23.23.54.36.84.36"/><path class="cls-4" d="m240.39,8.83c.24.23.55.36.85.36s.61-.12.85-.36c.47-.48.47-1.27,0-1.75l-2.48-2.53c-.47-.48-1.23-.48-1.7,0-.47.48-.47,1.26,0,1.74l2.47,2.54Z"/><path class="cls-4" d="m257.86,15.52c0,.68.54,1.23,1.2,1.23h3.5c.66,0,1.2-.56,1.2-1.23s-.54-1.23-1.2-1.23h-3.5c-.66,0-1.2.56-1.2,1.23"/><path class="cls-4" d="m248.63,23.02c4.04,0,7.33-3.37,7.33-7.51s-3.28-7.52-7.33-7.52-7.34,3.38-7.34,7.52,3.3,7.51,7.34,7.51"/><path class="cls-4" d="m258.48,26.84c.3,0,.61-.12.85-.36.47-.48.47-1.27,0-1.75l-2.48-2.53c-.47-.48-1.23-.48-1.7,0-.48.48-.48,1.26,0,1.74l2.47,2.54c.24.23.54.36.86.36"/><path class="cls-4" d="m248.63,6.05c.66,0,1.2-.56,1.2-1.23V1.23c0-.68-.54-1.23-1.2-1.23s-1.2.56-1.2,1.23v3.59c0,.68.53,1.23,1.2,1.23"/><path class="cls-4" d="m234.69,16.75h3.5c.66,0,1.2-.56,1.2-1.23s-.54-1.23-1.2-1.23h-3.5c-.66,0-1.2.56-1.2,1.23s.54,1.23,1.2,1.23"/><path class="cls-4" d="m222.39,52.11v7.05h-3.32c-.66,0-1.2.56-1.2,1.23s.54,1.23,1.2,1.23h17.02c.66,0,1.2-.56,1.2-1.23s-.54-1.23-1.2-1.23h-3.32v-7.05h-10.38Z"/><path class="cls-2" d="m463.3,40.33l-2.01-6.37c-.09-.35-.43-.62-.87-.62h-3.14v-2.92c0-.53-.44-.88-.87-.88h-.7v-3.18c0-.53-.35-.88-.87-.88h-3.84c-.53,0-.87.35-.87.88v3.18h-.78c-.53,0-.87.35-.87.88v2.92h-17.29c-.35,0-.7.26-.87.62l-2.01,6.37c-.09.26,0,.53.09.8.18.26.44.35.7.35h33.35c.26,0,.52-.18.7-.35.18-.26.26-.53.18-.8"/><path class="cls-2" d="m418.33,40.95l6.29,6.28-9.34,9.37,3.06-15.64Zm-5.32-5.92h3.84v2.48l-3.84-2.48Zm0-15.11h3.84v2.47l-3.84-2.47Zm5.67,5.74l5.5,3.45-5.5,3.54v-6.98Zm0-5.74h14.41v3.18h-14.41v-3.18Zm2.1-12.64h10.21l1.92,10.78h-14.06l1.92-10.78Zm5.06,20.77l-4.98-3.18h10.04l-5.07,3.18Zm8.91-8.13h3.84l-3.84,2.47v-2.47Zm-6.2,38.45h-12.57l9.87-9.81,2.71,2.74v-2.56l-1.48-1.5,1.48-1.5v-2.47l-2.71,2.74-5.94-5.92h6.63c0-.09.09-.26.09-.35l.44-1.41h-8.47v-3.27h9.52l.52-1.68v-.09h-7.86l4.98-3.18,3.49,2.21c.52-.53,1.14-.8,1.92-.8h.18l-3.84-2.39,5.5-3.45v5.92h1.75v-7.07l7.34-4.77.09-.09.09-.09c0-.09.09-.09.09-.18v-.09c0-.09.09-.18.09-.35v-1.86h.87c.52,0,.87-.35.87-.88,0-.44-.35-.88-.87-.88h-.87v-1.24h.87c.52,0,.87-.35.87-.88s-.35-.88-.87-.88h-.87v-.71c0-.44-.44-.88-.87-.88-.52,0-.87.44-.87.88v.71h-.87c-.52,0-.87.35-.87.88s.35.88.87.88h.87v1.24h-.87c-.52,0-.87.44-.87.88,0,.53.35.88.87.88h.87v.97h-6.11l-1.83-10.78h2.88v2.03c0,.53.44.88.87.88s.87-.35.87-.88v-2.92c0-.53-.44-.88-.87-.88h-21.3c-.44,0-.87.35-.87.88v2.92c0,.53.44.88.87.88.52,0,.87-.35.87-.88v-2.03h2.88l-1.92,10.87h-6.11v-.97h.87c.44,0,.87-.35.87-.88,0-.44-.43-.88-.87-.88h-.87v-1.24h.87c.44,0,.87-.36.87-.88s-.43-.88-.87-.88h-.87v-.8c0-.44-.44-.88-.87-.88s-.87.44-.87.88v.71h-.87c-.53,0-.87.35-.87.88s.35.88.87.88h.87v1.24h-.87c-.53,0-.87.44-.87.88,0,.53.35.88.87.88h.87v1.86c0,.09,0,.18.09.35v.09c0,.09.09.09.18.18l.09.09.09.09,7.34,4.77v8.84h-6.03v-.97h.87c.44,0,.87-.35.87-.88s-.43-.88-.87-.88h-.87v-1.32h.87c.44,0,.87-.35.87-.88s-.43-.88-.87-.88h-.87v-.71c0-.53-.44-.88-.87-.88s-.87.35-.87.88v.71h-.87c-.53,0-.87.35-.87.88s.35.88.87.88h.87v1.24h-.87c-.53,0-.87.35-.87.88s.35.88.87.88h.87v1.86c0,.09,0,.18.09.35v.09c0,.09.09.18.18.18l.09.09.09.09,7.25,4.68-3.67,18.74h-4.19c-.44,0-.87.35-.87.88s.44.88.87.88h19.73c-.09-.26-.18-.53-.18-.88v-.88Z"/><rect class="cls-2" x="448.8" y="49.35" width="5.5" height="3"/><rect class="cls-2" x="437.89" y="49.35" width="4.45" height="10.7"/><path class="cls-2" d="m447.15,48.55c0-.44.35-.88.87-.88h7.25c.52,0,.87.44.87.88v4.77c0,.44-.35.88-.87.88h-7.25c-.52,0-.87-.44-.87-.88v-4.77Zm-16.85,10.7c0,.53.35.88.87.88h4.98v-11.58c0-.44.44-.88.87-.88h6.11c.43,0,.87.44.87.88v11.58h16.33c.44,0,.87-.35.87-.88v-16h-30.91v16Z"/><path class="cls-3" d="m162.26,61.62h-8.95l-.38-.92c-6.35-15.19-9.23-26.54-10.53-33.96h10.24c.42,8.61,2.18,26.37,9.62,34.88"/><path class="cls-3" d="m153.67,20.2v2.9c0,.67-.49,1.23-1.11,1.26h-10.55c-.02-.12-.05-.24-.06-.35-.26-1.8-.45-3.53-.56-5.09h11.1c.66,0,1.18.57,1.18,1.27"/><path class="cls-3" d="m141.39,18.93h-.24c.08-.05.15-.12.22-.19v.05s.01.09.01.14"/><path class="cls-3" d="m140.33,12.27v3.5c0,.84-.63,1.53-1.41,1.53h-22c-.79-.01-1.41-.69-1.41-1.55v-3.49c0-.86.63-1.55,1.42-1.55h21.98c.78,0,1.42.69,1.42,1.55"/><path class="cls-3" d="m126.93,51.31c-4.03-.56-6.15-2.79-6.69-6.7,4.08.57,6.15,2.86,6.69,6.7"/><path class="cls-3" d="m135.6,42.81c-.55,3.98-2.72,6.15-6.7,6.7.57-4.06,2.82-6.13,6.7-6.7"/><path class="cls-3" d="m139.63,45.87c0,6.15-4.78,11.2-10.81,11.67v-6.21c5.22-.59,8.28-3.64,8.67-9.49,0-.24-.09-.46-.26-.63-.18-.16-.42-.31-.64-.26-3.88,0-7.65,1.97-9.03,6.43-1.6-3.1-5.14-4.63-8.3-4.63-.24-.01-.46.09-.63.26-.17.17-.26.39-.26.63,0,5.05,3.06,8.86,8.67,9.49v4.42c-6.04-.46-10.81-5.51-10.81-11.67s5.25-11.71,11.71-11.71,11.71,5.25,11.71,11.71"/><path class="cls-3" d="m127.92,59.36c-7.44,0-13.49-6.05-13.49-13.49s6.05-13.49,13.49-13.49,13.49,6.05,13.49,13.49-6.05,13.49-13.49,13.49m11.13-39.68c-.13.04.78.01-22.13.01-.05,0-.08,0-.13-.01-.56,6.99-2.87,20.84-11.67,41.95h45.62c-5.55-13.32-10.29-27.77-11.68-41.95"/><path class="cls-6" d="m348.43,61.14h-37.67c-1.68,0-3.04-1.36-3.04-3.04V13.96c0-1.68,1.36-3.04,3.04-3.04h37.67c1.68,0,3.04,1.36,3.04,3.04v44.14c0,1.68-1.36,3.04-3.04,3.04"/><path class="cls-1" d="m347.64,14.68c-.16-.01-.33,0-.49,0-11.49,0-22.97,0-34.46,0-1.79,0-2.33.54-2.33,2.3,0,13.27,0,26.53,0,39.8,0,1.63.51,2.13,2.15,2.13h34.88c1.63,0,2.11-.48,2.11-2.09v-19.97c0-6.73,0-13.46,0-20.18,0-1.27-.6-1.9-1.86-1.98m1.27,42.39c0,.97-.34,1.32-1.31,1.32-11.76,0-23.53,0-35.29,0-1.01,0-1.34-.35-1.35-1.36,0-1.73.03-3.47-.01-5.2-.02-.71.26-.87.9-.86,6.02.02,12.05.01,18.07.01h17.99c.98,0,1,.01,1,.97,0,1.71,0,3.42,0,5.13m-2.11-12.92h0c0-1.24.01-2.48,0-3.72,0-.51.2-.7.71-.71,1.41-.04,1.41-.05,1.41,1.33,0,2.23-.02,4.46.01,6.68,0,.64-.21.92-.85.84-.14-.02-.28-.02-.42,0-.63.08-.88-.18-.86-.83.04-1.19.01-2.39.01-3.59m1.2-5c-1.8-.03-1.8,0-1.8,1.77v7.1q0,1.14,1.18,1.14c.23,0,.47,0,.7,0,.45-.01.84,0,.84.64,0,.61-.39.59-.81.59-1.8,0-3.61,0-5.42,0h-12.8c-6,0-12,0-18.01,0-.93,0-.93,0-.93-.94V16.8c0-1.23.3-1.53,1.53-1.53,11.65,0,23.31,0,34.96,0,1.19,0,1.46.26,1.46,1.44,0,7.17,0,14.35.02,21.52,0,.71-.22.93-.93.92"/><path class="cls-1" d="m345.04,18.05h-15.04c-5.11,0-10.22,0-15.33,0-1.25,0-1.53.29-1.53,1.54,0,5.6,0,11.2,0,16.8,0,1.35.27,1.64,1.66,1.64,10.1,0,20.2,0,30.3,0,1.35,0,1.7-.35,1.7-1.73,0-5.5,0-11.01,0-16.52,0-1.41-.34-1.73-1.75-1.73m1.16,18.38c0,.91-.09,1-1.02,1-5.09,0-10.17,0-15.26,0-5.04,0-10.08,0-15.12,0-1.07,0-1.15-.07-1.15-1.1,0-5.56,0-11.11,0-16.67,0-.9.12-1.03,1.01-1.03h30.6c.88,0,.95.08.95.98,0,5.6,0,11.21,0,16.81"/><path class="cls-1" d="m340.59,39.13h-21.3c-1.27,0-1.6.32-1.61,1.56,0,2.3,0,4.59,0,6.89,0,1.26.33,1.58,1.6,1.58,3.54,0,7.08,0,10.62,0s7.12,0,10.69,0c1.28,0,1.59-.31,1.59-1.57,0-2.3,0-4.59,0-6.89,0-1.26-.31-1.57-1.59-1.57m1,8.5c0,.85-.07.93-.93.93-3.59,0-7.17,0-10.76,0h-10.62c-.96,0-1-.04-1-.98,0-2.32.02-4.64-.01-6.96,0-.67.22-.91.9-.91,7.17.02,14.35,0,21.53.01.83,0,.91.09.91.95,0,2.32,0,4.64,0,6.96"/><path class="cls-1" d="m345.15,25.67c.01-.63-.17-.88-.83-.88-9.61.02-19.22.02-28.82,0-.6,0-.83.19-.82.81.03,2.04.01,4.08.01,6.12,0,.99,0,.99,1.03.99,4.73,0,9.47,0,14.2,0s9.56-.01,14.34.01c.67,0,.91-.2.89-.88-.03-2.06-.03-4.12,0-6.18m-1.45,6.55c-4.62-.02-9.24-.01-13.86-.01s-9.19-.01-13.79.01c-.67,0-.9-.18-.88-.87.05-1.73.04-3.47,0-5.2,0-.59.19-.77.77-.77,9.26.01,18.52.02,27.78,0,.6,0,.84.17.83.8-.03,1.73-.04,3.47,0,5.21.01.66-.22.83-.86.83"/><path class="cls-1" d="m338.07,33.93c-5.25,0-10.5,0-15.75,0-1.73,0-1.53-.21-1.58,1.59-.01.61.23.74.79.73,2.76-.02,5.53,0,8.29,0s5.3,0,7.94,0c1.45,0,1.33.12,1.33-1.32,0-.99,0-1-1.03-1m-16.1,1.93c-.65.12-.76-.22-.77-.75-.02-.61.27-.73.81-.73.6-.01.75.25.75.8,0,.61-.26.8-.79.69m1.99,0c-.6.12-.76-.17-.77-.74-.01-.61.25-.75.8-.75.55,0,.75.19.75.74s-.16.86-.77.75m2.01,0c-.57.1-.8-.1-.8-.71-.01-.65.26-.79.84-.78.55,0,.8.13.8.75,0,.64-.24.85-.83.74m1.94,0c-.57.11-.77-.13-.78-.71-.01-.64.25-.78.83-.78.59,0,.81.16.82.79,0,.68-.32.78-.87.71m1.96,0c-.61.12-.74-.18-.76-.74-.03-.69.32-.74.87-.75.58-.01.76.21.77.78.02.69-.33.79-.88.71m2.1,0c-.58.1-.8-.13-.8-.73,0-.6.24-.77.8-.77.53,0,.76.17.75.73,0,.54-.12.88-.75.76m1.97,0c-.63.12-.78-.18-.79-.73,0-.59.24-.75.79-.76.58,0,.77.22.76.78,0,.57-.2.84-.76.71m1.93,0c-.62.12-.73-.21-.75-.75-.02-.61.27-.73.8-.74.6-.01.75.25.76.79.01.61-.26.79-.81.7m2,0c-.61.12-.76-.18-.77-.74,0-.54.17-.75.73-.75.54,0,.83.13.81.74,0,.57-.17.86-.78.75"/><path class="cls-1" d="m318.12,23.65c.29.03.36-.19.37-.4.02-.46,0-.93,0-1.39.3.3.43.64.61.96.24.43.53.43.76-.01.19-.35.34-.73.5-1.09.1.5.09.97.1,1.44,0,.21,0,.47.29.48.35.01.33-.28.33-.51.01-.66,0-1.31,0-1.97,0-.26.02-.54-.34-.6-.32-.05-.54.09-.67.37-.18.38-.37.75-.6,1.23-.24-.5-.43-.9-.62-1.29-.13-.28-.36-.34-.63-.32-.31.03-.38.25-.39.49,0,.73,0,1.45,0,2.18,0,.18.04.4.28.42"/><path class="cls-1" d="m331.31,23.63c.29,0,.3-.25.31-.46.01-.45,0-.89,0-1.34.29.32.42.64.59.95.26.49.52.48.79,0,.17-.3.3-.63.45-.94.12.49.11.94.12,1.38,0,.22.06.45.35.42.24-.02.26-.25.26-.43,0-.68.01-1.36,0-2.04,0-.25.03-.54-.33-.6-.33-.06-.54.08-.67.37-.16.35-.34.7-.57,1.18-.27-.53-.46-.91-.65-1.28-.14-.28-.38-.32-.66-.27-.27.06-.29.28-.29.49,0,.7,0,1.41,0,2.11,0,.21,0,.46.3.46"/><path class="cls-1" d="m324.72,23.64c.4.03.28-.34.33-.57.04-.21-.12-.52.22-.59.3-.06.45.19.59.41.06.1.11.2.16.31.15.3.36.66.73.42.32-.21-.1-.47-.15-.72-.06-.29-.57-.44-.16-.89.54-.6.26-1.27-.53-1.44-1.23-.27-1.49-.06-1.49,1.19v.35c0,.3-.01.61,0,.91.01.25-.05.59.3.61"/><path class="cls-1" d="m342.43,23.31c0,.18.08.32.29.33.2,0,.28-.13.3-.31.01-.12.01-.23.02-.35.01-.18-.04-.41.19-.48.23-.06.41.09.53.27.16.23.27.49.42.72.12.18.3.24.49.15.25-.12.12-.32.04-.48-.09-.19-.2-.37-.32-.54-.16-.22-.15-.37.04-.6.51-.63.25-1.27-.54-1.44-1.23-.26-1.48-.06-1.48,1.2v.35h.02c0,.4,0,.79,0,1.19"/><path class="cls-1" d="m321.55,23.65c.18.06.33-.01.42-.17.17-.3.26-.62.73-.63.48,0,.66.25.82.61.09.19.27.26.47.17.21-.1.13-.28.07-.43-.29-.77-.57-1.53-.87-2.3-.08-.2-.21-.37-.47-.35-.19,0-.31.11-.37.27-.32.81-.63,1.61-.94,2.42-.06.16-.09.33.13.4"/><path class="cls-1" d="m334.68,23.21c0,.26.11.47.4.48.49.02.98.01,1.47,0,.18,0,.33-.08.33-.29,0-.21-.16-.28-.33-.29-.28-.02-.56-.02-.84-.03-.21,0-.37-.08-.38-.32-.02-.25.11-.37.35-.43.31-.08.88.18.88-.26,0-.45-.57-.19-.87-.26-.17-.04-.33-.06-.35-.27-.02-.23.11-.35.32-.37.26-.03.51-.02.77-.05.16-.02.35-.05.36-.26.02-.26-.19-.28-.38-.31-1.51-.26-1.74-.07-1.74,1.46v.07h.01c0,.37,0,.75,0,1.12"/><path class="cls-1" d="m340.48,23.7c.33-.01.66,0,.98,0,.22-.01.53.02.52-.32,0-.29-.28-.26-.49-.28-.21-.02-.42-.01-.63-.03-.26-.02-.37-.18-.35-.43.02-.23.18-.28.38-.33.28-.06.8.22.8-.24,0-.44-.52-.21-.81-.28-.2-.04-.37-.09-.36-.34.02-.24.19-.3.39-.32.23-.02.47-.02.7-.05.17-.02.33-.08.32-.29-.01-.22-.19-.23-.35-.26-1.46-.26-1.73-.05-1.74,1.4v.14h0c0,.33.01.66,0,.98-.02.45.18.65.62.63"/><path class="cls-1" d="m315.88,23.1c-.23-.09-.55-.43-.69,0-.12.37.3.46.58.57.15.06.32.06.42.07.59,0,1.07-.13,1.22-.71.15-.59-.22-.92-.71-1.13-.13-.06-.27-.09-.39-.16-.19-.09-.43-.18-.37-.45.07-.31.34-.27.57-.24.14.02.27.08.4.12.12.04.23.02.3-.1.07-.12.05-.24-.05-.32-.38-.29-.81-.36-1.26-.23-.4.11-.66.37-.71.78-.06.48.26.72.65.89.13.06.27.1.39.17.23.14.61.24.46.59-.15.35-.5.26-.8.15"/><path class="cls-1" d="m337.38,21.13c.47.01.57.3.56.7,0,.4-.01.79.01,1.19.02.26-.04.63.37.62.36-.01.3-.36.32-.6.02-.33.01-.65,0-.98-.01-.49-.02-.96.68-.96.15,0,.27-.1.26-.27,0-.2-.15-.28-.33-.28-.32-.01-.65,0-.98,0h0c-.28,0-.56-.02-.84,0-.19,0-.4.02-.42.26-.03.25.17.32.36.32"/><path class="cls-1" d="m327.34,21.12c.52.01.6.32.59.75-.02.42-.01.84,0,1.26,0,.23,0,.52.33.5.29-.01.28-.27.29-.48,0-.37.02-.75,0-1.12-.03-.51,0-.95.7-.93.17,0,.32-.09.31-.3-.02-.22-.18-.25-.35-.26-.3,0-.61,0-.91,0s-.61,0-.91,0c-.16,0-.35.03-.39.23-.04.25.15.34.35.34"/><path class="cls-1" d="m325.61,46.28c.29-.15.71-.07.66-.54-.04-.37-.57-.22-.61-.6.19-.09.55.38.59-.09.06-.63,0-1.27-.01-1.9,0-.11-.07-.19-.17-.18-.69.09-1.42-.32-2.13.28.09-.54.25-1.01-.02-1.38-.22-.31-.36-.52,0-.81.14-.12.17-.31-.12-.32-.46-.03-.91-.08-1.37-.06-.31,0-.78-.18-.88.19-.1.38.54.12.68.53-.73-.38-.81.02-.82.58,0,.47.04.93.2,1.39-.48-.53-1.06-.53-1.64-.38-.42.11-.09.51-.17.77-.43-.11-.06-.62-.52-.76-.2.69-.06,1.38-.1,2.05-.02.42.18.6.59.6.46,0,.92,0,1.39,0-.19.09-.37.09-.56.09-1.5,0-1.61.13-1.42,1.66.04.31.17.48.47.49.26.01.52,0,.77.02.59.05.89-.16.82-.8-.04-.32,0-.65,0-.97.05,0,.1,0,.14-.01.04.47.09.94.09,1.42,0,.16.11.36.16.28.4-.52.69-.04,1.03.05.28.07.64.14.8-.23.14-.31.21-.09.33,0,.7.5,1.48.23,2.23.19.18-.01.2-.22.25-.38.17-.6-.3-.84-.68-1.15"/><path class="cls-1" d="m325.4,42.81q.91,0,.9-1.26c-.01-.9-.01-.85-1.33-.91-.91-.04-.74.51-.73.8q.01,1.38,1.17,1.37"/><path class="cls-1" d="m320.13,42.81q1.12,0,1.12-1.11t-.98-1.04-1.09,1.07c0,1.07,0,1.08.94,1.08"/><polygon class="cls-1" points="318.52 26.61 317.3 27.11 317.3 28.08 318.11 27.76 318.11 30.69 319.1 30.69 319.1 26.61 318.52 26.61"/><polygon class="cls-1" points="338.98 27.53 340.56 27.53 339.22 30.69 340.35 30.69 341.86 26.98 341.86 26.61 338.98 26.61 338.98 27.53"/><path class="cls-1" d="m323.01,29.33c.61-.66.81-1.05.81-1.53,0-.71-.44-1.26-1.55-1.26-.51,0-.88.13-1.11.27v.9c.22-.16.6-.29.97-.29.45,0,.66.16.66.49s-.21.59-.54.98l-1.28,1.43v.37h2.89v-.92h-1.27l.42-.45Z"/><path class="cls-1" d="m326.86,28.03c-.07,0-.14,0-.21.01v-.52h1.57v-.92h-2.41l-.11,2.38c.32-.15.64-.2.88-.2.6,0,.85.22.85.53,0,.35-.3.56-.83.56-.4,0-.74-.12-.94-.25v.86c.21.13.53.27,1.03.27,1.13,0,1.71-.6,1.71-1.42,0-.75-.59-1.3-1.54-1.3"/><path class="cls-1" d="m331.79,27.97c-.12,0-.23.01-.34.04l.87-1.4h-1.12l-.77,1.3c-.35.57-.5,1.01-.5,1.42,0,.79.6,1.42,1.57,1.42s1.62-.63,1.62-1.49c0-.69-.51-1.3-1.32-1.3m-.3,1.87c-.36,0-.6-.23-.6-.55,0-.13.02-.28.1-.46.16-.08.33-.12.5-.12.36,0,.6.23.6.57s-.24.57-.6.57"/><path class="cls-1" d="m336.4,28.17l.95-1.19v-.37h-2.7v.91h1.25l-.66.79v.61c.15-.05.31-.08.48-.08.49,0,.75.2.75.52s-.3.52-.87.52c-.36,0-.7-.12-.9-.26v.86c.2.13.53.27,1.03.27,1.13,0,1.71-.59,1.71-1.39,0-.57-.36-1.03-1.03-1.19"/><path class="cls-6" d="m363.11,11.2c-.48-4.24-2.61-7.4-6.37-9.42-1.51-.81-3.13-1.24-4.85-1.29-.47-.02-.71.14-.67.64.02.21.02.42,0,.63-.06.59.2.76.77.8,4.61.27,8.46,3.97,8.97,8.6q.12,1.08,1.18,1.08c1.04,0,1.1,0,.98-1.04"/><path class="cls-6" d="m352.48,4.44c-1.27-.17-1.25-.17-1.27,1.14-.01.58.1.85.77.95,2.72.38,4.57,2.17,5.02,4.84.13.76.45,1.02,1.05.88,1.27,0,1.28,0,1.11-1.21-.47-3.31-3.35-6.16-6.68-6.6"/><path class="cls-6" d="m352.78,8.56c-1.38-.57-1.56-.43-1.56,1.04,0,.48.09.79.62.91.53.12.95.5,1.11.99.22.67.61.88,1.14.76,1.29,0,1.42-.17.99-1.29-.43-1.13-1.19-1.94-2.31-2.4"/></g></svg>